<?xml version="1.0" encoding="UTF-8" standalone="no"?>
<!-- Created with Inkscape (http://www.inkscape.org/) -->

<svg
   xmlns:dc="http://purl.org/dc/elements/1.1/"
   xmlns:cc="http://creativecommons.org/ns#"
   xmlns:rdf="http://www.w3.org/1999/02/22-rdf-syntax-ns#"
   xmlns:svg="http://www.w3.org/2000/svg"
   xmlns="http://www.w3.org/2000/svg"
   xmlns:sodipodi="http://sodipodi.sourceforge.net/DTD/sodipodi-0.dtd"
   xmlns:inkscape="http://www.inkscape.org/namespaces/inkscape"
   width="210mm"
   height="210mm"
   viewBox="0 0 744.09449 744.09448"
   id="svg2"
   version="1.1"
   inkscape:version="0.91 r13725"
   sodipodi:docname="emergency_icon.svg">
  <defs
     id="defs4">
    <inkscape:path-effect
       is_visible="true"
       id="path-effect4189"
       effect="spiro" />
    <inkscape:path-effect
       effect="spiro"
       id="path-effect4185"
       is_visible="true" />
    <inkscape:path-effect
       effect="spiro"
       id="path-effect4181"
       is_visible="true" />
    <inkscape:path-effect
       effect="spiro"
       id="path-effect4177"
       is_visible="true" />
    <inkscape:path-effect
       effect="spiro"
       id="path-effect4162"
       is_visible="true" />
    <inkscape:path-effect
       effect="spiro"
       id="path-effect4251"
       is_visible="true" />
    <inkscape:path-effect
       effect="spiro"
       id="path-effect4247"
       is_visible="true" />
    <inkscape:path-effect
       effect="spiro"
       id="path-effect4243"
       is_visible="true" />
    <inkscape:path-effect
       effect="spiro"
       id="path-effect4239"
       is_visible="true" />
    <inkscape:path-effect
       effect="spiro"
       id="path-effect4169"
       is_visible="true" />
    <inkscape:path-effect
       effect="spiro"
       id="path-effect4145"
       is_visible="true" />
    <inkscape:path-effect
       effect="spiro"
       id="path-effect4141"
       is_visible="true" />
    <inkscape:path-effect
       effect="spiro"
       id="path-effect4151"
       is_visible="true" />
    <inkscape:path-effect
       effect="spiro"
       id="path-effect4147"
       is_visible="true" />
    <inkscape:path-effect
       effect="spiro"
       id="path-effect4142"
       is_visible="true" />
  </defs>
  <sodipodi:namedview
     id="base"
     pagecolor="#ffffff"
     bordercolor="#666666"
     borderopacity="1.0"
     inkscape:pageopacity="0.0"
     inkscape:pageshadow="2"
     inkscape:zoom="0.24748738"
     inkscape:cx="546.61797"
     inkscape:cy="684.25953"
     inkscape:document-units="px"
     inkscape:current-layer="layer1"
     showgrid="false"
     inkscape:window-width="1280"
     inkscape:window-height="719"
     inkscape:window-x="0"
     inkscape:window-y="1"
     inkscape:window-maximized="1" />
  <metadata
     id="metadata7">
    <rdf:RDF>
      <cc:Work
         rdf:about="">
        <dc:format>image/svg+xml</dc:format>
        <dc:type
           rdf:resource="http://purl.org/dc/dcmitype/StillImage" />
        <dc:title></dc:title>
      </cc:Work>
    </rdf:RDF>
  </metadata>
  <g
     inkscape:label="Layer 1"
     inkscape:groupmode="layer"
     id="layer1"
     transform="translate(0,-308.26772)">
    <path
       style="fill:#000000;fill-opacity:1;fill-rule:evenodd;stroke:#000000;stroke-width:1.91075456px;stroke-linecap:butt;stroke-linejoin:miter;stroke-opacity:1"
       d="m 46.976032,314.44351 162.132898,-1.93015 c 12.07624,-1.43169 24.69168,2.53317 33.77769,10.61585 8.97052,7.97995 14.36228,19.84181 14.47614,31.84751 -1.40764,25.73219 -0.76154,51.57644 1.93014,77.20615 2.04505,19.47263 5.26983,38.8213 9.65078,57.90461 5.25732,11.83967 8.22321,24.69184 8.68571,37.63801 0.33592,9.40304 -0.64157,18.85207 -2.89524,27.98722 l -73.34584,94.57751 c 24.7202,45.44785 56.407,87.09802 93.61245,123.04729 34.14524,32.99238 72.92521,61.18118 114.84413,83.47914 l 77.20615,-63.69506 c 7.95705,-6.56456 16.65505,-12.49111 26.53962,-15.44123 11.41065,-3.40559 23.81464,-3.40559 35.22529,0 20.41983,7.03627 41.42646,12.36873 62.72998,15.92378 21.35569,3.56376 43.00917,5.34128 64.66014,5.30791 16.85498,-0.45432 33.77581,6.56603 45.35862,18.81899 9.91923,10.49313 15.86429,24.65637 16.40631,39.08561 l 1.93016,135.1108 c 1.36771,16.83295 -5.1915,34.14195 -17.3714,45.84105 -10.27664,9.871 -24.35579,15.6786 -38.60308,15.9238 C 508.35025,1054.9064 333.31263,984.74968 207.17877,862.60711 76.74149,736.2973 0.42549245,555.84919 0.65234929,374.27827 -1.1711555,359.95071 3.1157315,344.94661 12.233263,333.74506 20.801679,323.21814 33.511373,316.1572 46.976032,314.44351 Z"
       id="path4160"
       inkscape:path-effect="#path-effect4162"
       inkscape:original-d="m 46.976032,314.44351 162.132898,-1.93015 c 0,0 25.73537,3.53861 33.77769,10.61585 8.0423,7.07722 14.47614,31.84751 14.47614,31.84751 0,0 0,54.68769 1.93014,77.20615 1.93017,22.51847 9.65078,57.90461 9.65078,57.90461 0,0 7.72061,26.70046 8.68571,37.63801 0.96506,10.93752 -2.89524,27.98722 -2.89524,27.98722 l -73.34584,94.57751 c 0,0 66.36321,96.49823 93.61245,123.04729 5.53163,5.3895 114.84413,83.47914 114.84413,83.47914 l 77.20615,-63.69506 c 0,0 16.24547,-12.86769 26.53962,-15.44123 10.29415,-2.57353 35.22529,0 35.22529,0 0,0 41.4983,12.38516 62.72998,15.92378 21.2317,3.53862 64.66014,5.30791 64.66014,5.30791 0,0 35.06447,9.16823 45.35862,18.81899 10.29415,9.65079 16.40631,39.08561 16.40631,39.08561 l 1.93016,135.1108 c 0,0 -8.04232,35.54695 -17.3714,45.84105 -9.32908,10.2943 -38.60308,15.9238 -38.60308,15.9238 0,0 -362.86885,-77.84947 -476.74791,-191.08519 C 93.299714,749.37145 0.65234929,374.27827 0.65234929,374.27827 c 0,0 3.86030471,-30.56076 11.58091371,-40.53321 7.72061,-9.97248 34.742769,-19.30155 34.742769,-19.30155 z"
       inkscape:connector-curvature="0"
       sodipodi:nodetypes="cczczczccscczczczcczczcsc" />
    <g
       id="g4191"
       transform="matrix(1.8849669,0,0,1.8849669,-551.04085,-361.38544)">
      <path
         sodipodi:nodetypes="cczcczcc"
         inkscape:connector-curvature="0"
         inkscape:original-d="m 513.66257,409.40012 -25.00128,0 c 0,0 -16.92006,14.64721 -16.92006,21.97082 0,7.3236 16.92006,21.97081 16.92006,21.97081 l 9.84899,0 c 0,0 17.93021,14.05796 17.93021,21.08694 0,7.02897 -17.93021,21.08693 -17.93021,21.08693 l -26.51651,0"
         inkscape:path-effect="#path-effect4181"
         id="path4179"
         d="m 513.66257,409.40012 -25.00128,0 c -4.80612,1.26976 -9.16674,4.16687 -12.19981,8.10535 -3.03308,3.93847 -4.72025,8.89444 -4.72025,13.86547 0,4.97103 1.68717,9.927 4.72025,13.86547 3.03308,3.93847 7.39369,6.83558 12.19981,8.10534 l 9.84899,0 c 4.9531,0.80675 9.59088,3.42409 12.84168,7.24722 3.25081,3.82312 5.08853,8.82135 5.08853,13.83972 0,5.01837 -1.83773,10.01659 -5.08853,13.83972 -3.2508,3.82312 -7.88859,6.44046 -12.84168,7.24721 l -26.51651,0"
         style="fill:none;fill-rule:evenodd;stroke:#000000;stroke-width:20;stroke-linecap:round;stroke-linejoin:round;stroke-miterlimit:4;stroke-dasharray:none;stroke-opacity:1" />
      <path
         sodipodi:nodetypes="cczcczc"
         inkscape:connector-curvature="0"
         inkscape:original-d="m 546.49252,430.36078 0,43.6891 c 0,0 14.64721,22.47589 21.97082,22.47589 7.32361,0 21.97082,-22.47589 21.97082,-22.47589 l 0,-43.94164 c 0,0 -14.64721,-19.61379 -21.97082,-19.5717 -7.32361,0.0421 -21.97082,19.82424 -21.97082,19.82424 z"
         inkscape:path-effect="#path-effect4185"
         id="path4183"
         d="m 546.49252,430.36078 0,43.6891 c -0.13263,5.83517 2.17553,11.68777 6.25552,15.86155 4.07999,4.17378 9.87863,6.61434 15.7153,6.61434 5.83667,0 11.63531,-2.44056 15.7153,-6.61434 4.07999,-4.17378 6.38815,-10.02638 6.25552,-15.86155 l 0,-43.94164 c -0.61439,-5.3307 -3.24857,-10.4039 -7.25535,-13.97315 -4.00677,-3.56925 -9.34949,-5.6019 -14.71547,-5.59855 -5.40372,0.003 -10.78074,2.07258 -14.79271,5.69257 -4.01196,3.61999 -6.62114,8.75673 -7.17811,14.13167 z"
         style="fill:none;fill-rule:evenodd;stroke:#000000;stroke-width:20;stroke-linecap:butt;stroke-linejoin:miter;stroke-miterlimit:4;stroke-dasharray:none;stroke-opacity:1" />
      <path
         style="fill:none;fill-rule:evenodd;stroke:#000000;stroke-width:20;stroke-linecap:round;stroke-linejoin:round;stroke-miterlimit:4;stroke-dasharray:none;stroke-opacity:1"
         d="m 664.68037,409.40012 -25.00128,0 c -4.80612,1.26976 -9.16674,4.16687 -12.19981,8.10535 -3.03308,3.93847 -4.72025,8.89444 -4.72025,13.86547 0,4.97103 1.68717,9.927 4.72025,13.86547 3.03308,3.93847 7.39369,6.83558 12.19981,8.10534 l 9.84899,0 c 4.9531,0.80675 9.59088,3.42409 12.84168,7.24722 3.25081,3.82312 5.08853,8.82135 5.08853,13.83972 0,5.01837 -1.83773,10.01659 -5.08853,13.83972 -3.2508,3.82312 -7.88859,6.44046 -12.84168,7.24721 l -26.51651,0"
         id="path4187"
         inkscape:path-effect="#path-effect4189"
         inkscape:original-d="m 664.68037,409.40012 -25.00128,0 c 0,0 -16.92006,14.64721 -16.92006,21.97082 0,7.3236 16.92006,21.97081 16.92006,21.97081 l 9.84899,0 c 0,0 17.93021,14.05796 17.93021,21.08694 0,7.02897 -17.93021,21.08693 -17.93021,21.08693 l -26.51651,0"
         inkscape:connector-curvature="0"
         sodipodi:nodetypes="cczcczcc" />
    </g>
  </g>
</svg>
