<?xml version="1.0" encoding="UTF-8" standalone="no"?>
<!-- Created with Inkscape (http://www.inkscape.org/) -->

<svg
   xmlns:dc="http://purl.org/dc/elements/1.1/"
   xmlns:cc="http://creativecommons.org/ns#"
   xmlns:rdf="http://www.w3.org/1999/02/22-rdf-syntax-ns#"
   xmlns:svg="http://www.w3.org/2000/svg"
   xmlns="http://www.w3.org/2000/svg"
   xmlns:sodipodi="http://sodipodi.sourceforge.net/DTD/sodipodi-0.dtd"
   xmlns:inkscape="http://www.inkscape.org/namespaces/inkscape"
   width="20mm"
   height="20mm"
   viewBox="0 0 70.866142 70.866141"
   id="svg2"
   version="1.1"
   inkscape:version="0.91 r13725"
   sodipodi:docname="help_icon.svg">
  <defs
     id="defs4" />
  <sodipodi:namedview
     id="base"
     pagecolor="#ffffff"
     bordercolor="#666666"
     borderopacity="1.0"
     inkscape:pageopacity="0.0"
     inkscape:pageshadow="2"
     inkscape:zoom="4"
     inkscape:cx="44.124134"
     inkscape:cy="42.736419"
     inkscape:document-units="px"
     inkscape:current-layer="layer1"
     showgrid="false"
     inkscape:window-width="1280"
     inkscape:window-height="719"
     inkscape:window-x="0"
     inkscape:window-y="1"
     inkscape:window-maximized="1" />
  <metadata
     id="metadata7">
    <rdf:RDF>
      <cc:Work
         rdf:about="">
        <dc:format>image/svg+xml</dc:format>
        <dc:type
           rdf:resource="http://purl.org/dc/dcmitype/StillImage" />
        <dc:title></dc:title>
      </cc:Work>
    </rdf:RDF>
  </metadata>
  <g
     inkscape:label="Layer 1"
     inkscape:groupmode="layer"
     id="layer1"
     transform="translate(0,-981.49606)">
    <path
       style="opacity:1;fill:#1a1a1a;fill-opacity:1;fill-rule:nonzero;stroke:none;stroke-width:0;stroke-linecap:round;stroke-linejoin:round;stroke-miterlimit:4;stroke-dasharray:none;stroke-opacity:1"
       d="M 35.429688 0.005859375 A 35.429688 35.429688 0 0 0 0 35.435547 A 35.429688 35.429688 0 0 0 35.429688 70.865234 A 35.429688 35.429688 0 0 0 70.859375 35.435547 A 35.429688 35.429688 0 0 0 35.429688 0.005859375 z M 35.429688 5.8105469 A 29.625 29.625 0 0 1 65.054688 35.435547 A 29.625 29.625 0 0 1 35.429688 65.060547 A 29.625 29.625 0 0 1 5.8046875 35.435547 A 29.625 29.625 0 0 1 35.429688 5.8105469 z "
       transform="translate(0,981.49606)"
       id="path4176" />
    <circle
       style="opacity:1;fill:#000000;fill-opacity:1;fill-rule:nonzero;stroke:#000000;stroke-width:0;stroke-linecap:round;stroke-linejoin:round;stroke-miterlimit:4;stroke-dasharray:none;stroke-opacity:1"
       id="path4299"
       cx="35.125"
       cy="1037.3622"
       r="4.2499862" />
    <path
       style="opacity:1;fill:#000000;fill-opacity:1;fill-rule:nonzero;stroke:#000000;stroke-width:0;stroke-linecap:round;stroke-linejoin:round;stroke-miterlimit:4;stroke-dasharray:none;stroke-opacity:1"
       d="m 36,994.36129 a 12.5,12.5 0 0 0 -12.5,12.50001 12.5,12.5 0 0 0 0.01367,0.2832 1.53125,1.40625 0 0 0 -0.07617,0.4355 1.53125,1.40625 0 0 0 1.53125,1.4063 1.53125,1.40625 0 0 0 1.53125,-1.4063 1.53125,1.40625 0 0 0 -0.0039,-0.094 l 0.02539,0 a 9.499999,9.499999 0 0 1 -0.02148,-0.625 9.499999,9.499999 0 0 1 9.5,-9.50001 9.499999,9.499999 0 0 1 9.5,9.50001 9.499999,9.499999 0 0 1 -9.369141,9.4961 c -0.259318,-0.1516 -0.557582,-0.2461 -0.880859,-0.2461 -0.9695,0 -1.75,0.7805 -1.75,1.75 l 0,9.75 c 0,0.9695 0.7805,1.75 1.75,1.75 0.9695,0 1.75,-0.7805 1.75,-1.75 l 0,-8.3008 A 12.5,12.5 0 0 0 48.5,1006.8613 12.5,12.5 0 0 0 36,994.36129 Z"
       id="path4312"
       inkscape:connector-curvature="0" />
  </g>
</svg>
