<?xml version="1.0" encoding="utf-8"?>
<!-- Generator: Adobe Illustrator 23.0.0, SVG Export Plug-In . SVG Version: 6.00 Build 0)  -->
<svg version="1.1"
	 id="svg4199" inkscape:version="0.91 r13725" sodipodi:docname="legend_suspicius.svg" xmlns:cc="http://creativecommons.org/ns#" xmlns:dc="http://purl.org/dc/elements/1.1/" xmlns:inkscape="http://www.inkscape.org/namespaces/inkscape" xmlns:rdf="http://www.w3.org/1999/02/22-rdf-syntax-ns#" xmlns:sodipodi="http://sodipodi.sourceforge.net/DTD/sodipodi-0.dtd" xmlns:svg="http://www.w3.org/2000/svg"
	 xmlns="http://www.w3.org/2000/svg" xmlns:xlink="http://www.w3.org/1999/xlink" x="0px" y="0px" viewBox="0 0 56.7 56.7"
	 style="enable-background:new 0 0 56.7 56.7;" xml:space="preserve">
<style type="text/css">
	.st0{fill-rule:evenodd;clip-rule:evenodd;fill:#5E5D5D;}
	.st1{fill:none;stroke:#000000;stroke-width:0.6268;}
</style>
<defs>
	
	<inkscape:path-effect  effect="spiro" id="path-effect4762" is_visible="true"></inkscape:path-effect>
	<inkscape:path-effect  effect="spiro" id="path-effect4758" is_visible="true"></inkscape:path-effect>
	<inkscape:path-effect  effect="spiro" id="path-effect4754" is_visible="true"></inkscape:path-effect>
	<inkscape:path-effect  effect="spiro" id="path-effect4750" is_visible="true"></inkscape:path-effect>
	<inkscape:path-effect  effect="spiro" id="path-effect4746" is_visible="true"></inkscape:path-effect>
	<inkscape:path-effect  effect="spiro" id="path-effect4742" is_visible="true"></inkscape:path-effect>
	<inkscape:path-effect  effect="spiro" id="path-effect4738" is_visible="true"></inkscape:path-effect>
	<inkscape:path-effect  effect="spiro" id="path-effect4734" is_visible="true"></inkscape:path-effect>
	<inkscape:path-effect  effect="spiro" id="path-effect4700" is_visible="true"></inkscape:path-effect>
	<inkscape:path-effect  effect="spiro" id="path-effect4696" is_visible="true"></inkscape:path-effect>
	<inkscape:path-effect  effect="spiro" id="path-effect4692" is_visible="true"></inkscape:path-effect>
	<inkscape:path-effect  effect="spiro" id="path-effect4688" is_visible="true"></inkscape:path-effect>
	<inkscape:path-effect  effect="spiro" id="path-effect4684" is_visible="true"></inkscape:path-effect>
	<inkscape:path-effect  effect="spiro" id="path-effect4649" is_visible="true"></inkscape:path-effect>
	<inkscape:path-effect  effect="spiro" id="path-effect4627" is_visible="true"></inkscape:path-effect>
	<inkscape:path-effect  effect="spiro" id="path-effect4623" is_visible="true"></inkscape:path-effect>
	<inkscape:path-effect  effect="spiro" id="path-effect4619" is_visible="true"></inkscape:path-effect>
	<inkscape:path-effect  effect="spiro" id="path-effect4615" is_visible="true"></inkscape:path-effect>
	<inkscape:path-effect  effect="spiro" id="path-effect4611" is_visible="true"></inkscape:path-effect>
	<inkscape:path-effect  effect="spiro" id="path-effect4607" is_visible="true"></inkscape:path-effect>
	<inkscape:path-effect  effect="spiro" id="path-effect4603" is_visible="true"></inkscape:path-effect>
	<inkscape:path-effect  effect="spiro" id="path-effect4599" is_visible="true"></inkscape:path-effect>
	<inkscape:path-effect  effect="spiro" id="path-effect4595" is_visible="true"></inkscape:path-effect>
	<inkscape:path-effect  effect="spiro" id="path-effect4591" is_visible="true"></inkscape:path-effect>
	<inkscape:path-effect  effect="spiro" id="path-effect4587" is_visible="true"></inkscape:path-effect>
	<inkscape:path-effect  effect="spiro" id="path-effect4583" is_visible="true"></inkscape:path-effect>
	<inkscape:path-effect  effect="spiro" id="path-effect4304" is_visible="true"></inkscape:path-effect>
	<inkscape:path-effect  effect="spiro" id="path-effect4300" is_visible="true"></inkscape:path-effect>
	<inkscape:path-effect  effect="spiro" id="path-effect4266" is_visible="true"></inkscape:path-effect>
	<inkscape:path-effect  effect="spiro" id="path-effect4261" is_visible="true"></inkscape:path-effect>
	<inkscape:path-effect  effect="spiro" id="path-effect4242" is_visible="true"></inkscape:path-effect>
	<inkscape:path-effect  effect="spiro" id="path-effect4238" is_visible="true"></inkscape:path-effect>
	<inkscape:path-effect  effect="spiro" id="path-effect4174" is_visible="true"></inkscape:path-effect>
	<inkscape:path-effect  effect="spiro" id="path-effect4170" is_visible="true"></inkscape:path-effect>
	<inkscape:path-effect  effect="spiro" id="path-effect4160" is_visible="true"></inkscape:path-effect>
	<inkscape:path-effect  effect="spiro" id="path-effect4156" is_visible="true"></inkscape:path-effect>
	<inkscape:path-effect  effect="spiro" id="path-effect4152" is_visible="true"></inkscape:path-effect>
	<inkscape:path-effect  effect="spiro" id="path-effect4770" is_visible="true"></inkscape:path-effect>
	<inkscape:path-effect  effect="spiro" id="path-effect4766" is_visible="true"></inkscape:path-effect>
	<inkscape:path-effect  effect="spiro" id="path-effect4751" is_visible="true"></inkscape:path-effect>
	<inkscape:path-effect  effect="spiro" id="path-effect4770-0" is_visible="true"></inkscape:path-effect>
	<inkscape:path-effect  effect="spiro" id="path-effect4766-0" is_visible="true"></inkscape:path-effect>
	<inkscape:path-effect  effect="spiro" id="path-effect4751-8" is_visible="true"></inkscape:path-effect>
</defs>
<sodipodi:namedview  bordercolor="#666666" borderopacity="1.0" id="base" inkscape:current-layer="layer1" inkscape:cx="-11.874993" inkscape:cy="21.573544" inkscape:document-units="px" inkscape:pageopacity="0.0" inkscape:pageshadow="2" inkscape:window-height="719" inkscape:window-maximized="1" inkscape:window-width="1280" inkscape:window-x="0" inkscape:window-y="1" inkscape:zoom="2.7999999" pagecolor="#ffffff" showgrid="false">
	</sodipodi:namedview>
<g id="layer1" transform="translate(0,-981.49606)" inkscape:groupmode="layer" inkscape:label="Layer 1">
	
		<path id="path4732" inkscape:connector-curvature="0" inkscape:original-d="m 15.109813,1007.7369 3.805432,-15.78136 c 0,0 1.809446,-2.46233 3.133886,-3.18984 1.324439,-0.7275 4.812754,-1.1752 4.812754,-1.1752 l 16.340978,0 c 0,0 4.103899,0.10259 5.4843,0.64355 1.380402,0.54097 2.798113,2.60225 2.798113,2.60225 l 3.917358,17.3484 c 0,0 -12.759394,3.3203 -19.474864,3.2458 -6.715471,-0.075 -20.817957,-3.6936 -20.817957,-3.6936 z" inkscape:path-effect="#path-effect4734" sodipodi:nodetypes="cczcczcczc" class="st0" d="
		M12.1,1002.5l3-12.6c0.6-1.1,1.5-1.9,2.5-2.6c1.2-0.7,2.5-1,3.9-0.9h13.1c0.7,0,1.5,0,2.2,0c0.7,0.1,1.5,0.2,2.2,0.5
		c1,0.4,1.8,1.2,2.2,2.1l3.1,13.9c-5,1.7-10.3,2.6-15.6,2.6C23.1,1005.4,17.4,1004.4,12.1,1002.5z"/>
	
		<path id="path4736" inkscape:connector-curvature="0" inkscape:original-d="m 14.997889,1011.4305 c 0,0 14.251718,2.9472 21.097767,2.9659 6.846049,0.019 19.978525,-2.8544 19.978525,-2.8544 l 0.895395,4.2533 c 0,0 -13.971908,2.7607 -21.15373,2.742 -7.181824,-0.019 -21.937206,-2.8539 -21.937206,-2.8539 z" inkscape:path-effect="#path-effect4738" sodipodi:nodetypes="czcczcc" class="st0" d="
		M12,1005.4c5.5,1.6,11.2,2.4,16.9,2.4c5.4,0,10.8-0.8,16-2.3l0.7,3.4c-5.5,1.4-11.2,2.2-16.9,2.2c-5.9,0-11.8-0.8-17.5-2.3
		C11.1,1008.8,12,1005.4,12,1005.4z"/>
	
		<path id="path4740" inkscape:connector-curvature="0" inkscape:original-d="m 13.207092,1004.9388 -1.678866,9.7374 c 0,0 -0.07461,1.4271 0.167888,1.9867 0.2425,0.5596 1.287131,1.3711 1.287131,1.3711 0,0 15.333658,2.8727 22.720676,2.91 7.387017,0.037 21.601428,-2.6862 21.601428,-2.6862 0,0 1.436366,-0.9047 1.790793,-1.427 0.354426,-0.5223 0.335772,-1.7068 0.335772,-1.7068 l -2.01464,-10.1852 c 0,0 7.051245,3.0966 9.289729,4.5329 2.23849,1.4365 4.141211,4.0853 4.141211,4.0853 0,0 0.02939,2.3772 -6.426491,5.9789 -6.857559,3.826 -22.531076,6.1903 -27.430671,6.1649 -4.899595,-0.025 -21.08668,-2.4178 -29.1095416,-5.2516 C -0.1413508,1017.6155 0,1014.3405 0,1014.3405 c 0,0 2.4996503,-3.9174 4.7008293,-5.4843 2.201185,-1.5669 8.5062627,-3.9174 8.5062627,-3.9174 z" inkscape:path-effect="#path-effect4742" sodipodi:nodetypes="cczczczcczcsssczc" class="st0" d="
		M10.6,1000.3l-1.3,7.8c-0.1,0.5-0.1,1.1,0.1,1.6c0.2,0.5,0.6,0.9,1,1.1c5.9,1.6,12.1,2.3,18.2,2.3c5.8,0,11.6-0.7,17.3-2.1
		c0.6-0.2,1.1-0.6,1.4-1.1c0.2-0.4,0.3-0.9,0.3-1.4l-1.6-8.1c2.7,0.7,5.2,1.9,7.4,3.6c1.2,1,2.3,2.1,3.3,3.3
		c-1.4,1.9-3.2,3.5-5.1,4.8c-3.2,2.1-6.8,3.4-10.6,4s-7.6,0.8-11.4,0.9c-8,0.1-16.3-0.3-23.3-4.2c-2.3-1.3-4.5-2.9-6.3-4.9
		c1-1.7,2.2-3.2,3.8-4.4C5.7,1001.8,8.1,1000.7,10.6,1000.3z"/>
	<path id="path4744" inkscape:connector-curvature="0" class="st0" d="M7.3,1016.1l2.7,15.1c0.3,0.7,0.9,1.3,1.6,1.5
		c0.5,0.2,1.1,0.2,1.6,0.1c0.5-0.1,1-0.2,1.6-0.4c4.5-1.3,9.1-2.3,13.8-2.3c4.8-0.1,9.6,0.8,14,2.5c0.9,0.4,2,0.3,2.8-0.2
		c0.7-0.4,1.2-1.2,1.3-2l2.6-14.2c-6.8,2-13.8,3-20.8,3C21.4,1019.1,14.2,1018.1,7.3,1016.1L7.3,1016.1z M12.1,1020l10.7,6.2
		l-1.3,0.4c-1.2,0.3-2.3,0.7-3.5,0.8c-1.2,0.1-2.4,0-3.5-0.5c-1.2-0.6-2.2-1.7-2.6-3C11.3,1022.7,11.5,1021.2,12.1,1020L12.1,1020z
		 M44.6,1020.1c0.5,1.6,0.3,3.4-0.5,4.9c-0.8,1.5-2.3,2.5-3.9,2.9c-1.6,0.4-3.4,0-4.8-0.9l-1.4-0.8L44.6,1020.1z"/>
	
		<path id="path4748" inkscape:connector-curvature="0" inkscape:original-d="m 15.445584,1029.8981 c 3.357737,1.1936 1.678866,0.5969 0,0 z" inkscape:path-effect="#path-effect4750" sodipodi:nodetypes="cc" class="st1" d="
		M12.4,1020.2L12.4,1020.2z"/>
</g>
</svg>
