<?xml version="1.0" encoding="utf-8"?>
<!-- Generator: Adobe Illustrator 23.0.0, SVG Export Plug-In . SVG Version: 6.00 Build 0)  -->
<svg version="1.1"
	 id="svg4199" inkscape:version="0.91 r13725" sodipodi:docname="legend_rob.svg" xmlns:cc="http://creativecommons.org/ns#" xmlns:dc="http://purl.org/dc/elements/1.1/" xmlns:inkscape="http://www.inkscape.org/namespaces/inkscape" xmlns:rdf="http://www.w3.org/1999/02/22-rdf-syntax-ns#" xmlns:sodipodi="http://sodipodi.sourceforge.net/DTD/sodipodi-0.dtd" xmlns:svg="http://www.w3.org/2000/svg"
	 xmlns="http://www.w3.org/2000/svg" xmlns:xlink="http://www.w3.org/1999/xlink" x="0px" y="0px" viewBox="0 0 56.7 56.7"
	 style="enable-background:new 0 0 56.7 56.7;" xml:space="preserve">
<style type="text/css">
	.st0{fill:#5E5D5D;}
	.st1{fill-rule:evenodd;clip-rule:evenodd;fill:#5E5D5D;}
</style>
<defs>
	
	<inkscape:path-effect  effect="spiro" id="path-effect4174" is_visible="true"></inkscape:path-effect>
	<inkscape:path-effect  effect="spiro" id="path-effect4170" is_visible="true"></inkscape:path-effect>
	<inkscape:path-effect  effect="spiro" id="path-effect4160" is_visible="true"></inkscape:path-effect>
	<inkscape:path-effect  effect="spiro" id="path-effect4156" is_visible="true"></inkscape:path-effect>
	<inkscape:path-effect  effect="spiro" id="path-effect4152" is_visible="true"></inkscape:path-effect>
	<inkscape:path-effect  effect="spiro" id="path-effect4770" is_visible="true"></inkscape:path-effect>
	<inkscape:path-effect  effect="spiro" id="path-effect4766" is_visible="true"></inkscape:path-effect>
	<inkscape:path-effect  effect="spiro" id="path-effect4751" is_visible="true"></inkscape:path-effect>
</defs>
<sodipodi:namedview  bordercolor="#666666" borderopacity="1.0" id="base" inkscape:current-layer="layer1" inkscape:cx="35.802838" inkscape:cy="54.559103" inkscape:document-units="px" inkscape:pageopacity="0.0" inkscape:pageshadow="2" inkscape:window-height="719" inkscape:window-maximized="1" inkscape:window-width="1280" inkscape:window-x="0" inkscape:window-y="1" inkscape:zoom="3.959798" pagecolor="#ffffff" showgrid="false">
	</sodipodi:namedview>
<g id="layer1" transform="translate(0,-981.49606)" inkscape:groupmode="layer" inkscape:label="Layer 1">
	<circle id="path4148" class="st0" cx="37.2" cy="987.1" r="5.5"/>
	<path id="path4150" class="st1" d="M16,984.3c-0.9,0-1.7,0.1-2.6,0.2c-3.4,0.5-6.7,2.1-9,4.6c-1.9,2.1-3.1,4.8-3.5,7.6
		s0.2,5.7,1.6,8.2c1.9,3.6,5.5,6.4,9.5,7.3c4,0.9,8.4,0,11.7-2.5l-0.9,3c-0.1,0.3-0.2,0.6-0.2,0.9c0,0.3,0,0.6,0,0.9
		c0.1,0.7,0.6,1.4,1.2,1.8l13.7,9.6l8,11.3c0.5,0.6,1.3,0.9,2.1,0.9c0.7-0.1,1.5-0.5,1.9-1.1c0.4-0.6,0.5-1.5,0.2-2.2l-7.4-13.1
		l-8.5-6.3l3.4-11.2l5.7,6.1l3.2,0.5l8.8-3.3c0.5-0.4,0.8-1.1,0.8-1.8c0-0.5-0.3-0.9-0.6-1.2c-0.3-0.3-0.7-0.5-1.2-0.6l-8,2
		l-7.5-10.1l-3.2-1.1c-2.9-4-7-7.2-11.6-8.9C21.2,984.8,18.6,984.3,16,984.3z M15.3,985.7l0.1,3.1c0.9,0,1.9,0.1,2.8,0.2
		c0.9,0.1,1.9,0.3,2.8,0.5l0.1,3.5c-0.9-0.3-1.9-0.6-2.8-0.8c-0.9-0.2-1.9-0.3-2.8-0.3l0.2,4l0.4,0.1c2.4,0.3,4,0.8,5,1.7
		c1,0.8,1.5,2.1,1.6,3.8c0.1,1.7-0.4,3-1.5,4c-1.1,0.9-2.8,1.5-5,1.8l0.2,4.2l-2.2,0.1l-0.2-4.2c-1.2,0-2.3-0.1-3.4-0.3
		c-1.1-0.2-2.2-0.4-3.2-0.8l-0.1-3.6c1.1,0.5,2.2,0.9,3.3,1.1c1.1,0.2,2.2,0.4,3.3,0.3l-0.2-4.3l-0.5-0.1c-2.2-0.3-3.8-0.8-4.8-1.6
		c-1-0.8-1.5-2-1.5-3.5c-0.1-1.7,0.4-3,1.5-3.9c1.1-1,2.7-1.6,4.8-1.7l-0.1-3.2L15.3,985.7z M13.4,992.1c-0.7,0.1-1.2,0.3-1.6,0.6
		c-0.4,0.3-0.6,0.7-0.5,1.2c0,0.5,0.2,1,0.6,1.3c0.4,0.3,0.9,0.5,1.6,0.5L13.4,992.1z M15.9,1000.2l0.2,3.8c0.8,0,1.4-0.2,1.8-0.5
		c0.4-0.3,0.6-0.8,0.6-1.4c0-0.6-0.2-1.1-0.6-1.4C17.4,1000.4,16.8,1000.2,15.9,1000.2z"/>
	
		<path id="path4154" inkscape:connector-curvature="0" inkscape:original-d="m 31.597645,1029.5751 -4.105485,6.6319 -13.421776,-5.7634 c 0,0 -3.947582,2.0265 -4.4212912,3.0397 -0.4737107,1.0131 1.5790312,3.0396 1.5790312,3.0396 l 14.369197,7.1846 c 0,0 2.684355,0.7632 3.710726,0.6316 1.026371,-0.1316 2.447501,-1.4211 2.447501,-1.4211 l 7.184597,-8.7637 z" inkscape:path-effect="#path-effect4156" sodipodi:nodetypes="ccczcczccc" class="st1" d="
		M25.3,1020l-3.3,5.3l-10.7-4.6c-0.8-0.3-1.7-0.1-2.4,0.3c-0.7,0.5-1.1,1.3-1.2,2.1c0,0.5,0.1,1,0.3,1.4c0.2,0.4,0.6,0.8,1,1
		l11.5,5.7c0.9,0.6,2,0.7,3,0.5c0.7-0.2,1.4-0.6,2-1.1l5.7-7C31.2,1023.6,25.3,1020,25.3,1020z"/>
	
		<path id="path4158" inkscape:connector-curvature="0" inkscape:original-d="m 50.151275,1000.8367 3.276494,4.6187 0.315806,-0.2764 c 0,0 1.026371,-1.5 0.473709,-2.2501 -0.552661,-0.75 -3.789678,-2.25 -3.789678,-2.25 z" inkscape:path-effect="#path-effect4160" sodipodi:nodetypes="ccczcc" class="st1" d="
		M40.1,997l2.6,3.7l0.3-0.2c0.4-0.5,0.5-1.2,0.4-1.8c-0.1-0.7-0.5-1.2-1.1-1.6c-0.6-0.3-1.3-0.4-1.9-0.2L40.1,997L40.1,997z"/>
</g>
</svg>
