<?xml version="1.0" encoding="utf-8"?>
<!-- Generator: Adobe Illustrator 23.0.0, SVG Export Plug-In . SVG Version: 6.00 Build 0)  -->
<svg version="1.1"
	 id="svg2" inkscape:version="0.91 r13725" sodipodi:docname="legend_raped.svg" xmlns:cc="http://creativecommons.org/ns#" xmlns:dc="http://purl.org/dc/elements/1.1/" xmlns:inkscape="http://www.inkscape.org/namespaces/inkscape" xmlns:rdf="http://www.w3.org/1999/02/22-rdf-syntax-ns#" xmlns:sodipodi="http://sodipodi.sourceforge.net/DTD/sodipodi-0.dtd" xmlns:svg="http://www.w3.org/2000/svg"
	 xmlns="http://www.w3.org/2000/svg" xmlns:xlink="http://www.w3.org/1999/xlink" x="0px" y="0px" viewBox="0 0 20 20"
	 style="enable-background:new 0 0 20 20;" xml:space="preserve">
<style type="text/css">
	.st0{fill-rule:evenodd;clip-rule:evenodd;fill:#5E5D5D;}
</style>
<sodipodi:namedview  bordercolor="#666666" borderopacity="1.0" id="base" inkscape:current-layer="layer1" inkscape:cx="26.708623" inkscape:cy="7.6165146" inkscape:document-units="px" inkscape:pageopacity="0.0" inkscape:pageshadow="2" inkscape:window-height="719" inkscape:window-maximized="1" inkscape:window-width="1280" inkscape:window-x="0" inkscape:window-y="1" inkscape:zoom="11.2" pagecolor="#ffffff" showgrid="false" units="px">
	</sodipodi:namedview>
<g id="layer1" transform="translate(0,-1032.3622)" inkscape:groupmode="layer" inkscape:label="Layer 1">
	
		<path id="path4147" inkscape:connector-curvature="0" sodipodi:nodetypes="cccczccczccczcccccczcccccczccccczccccczc" class="st0" d="
		M1.3,1038.9l2.2-0.2l2.8-3.4l2.7-0.3c0,0,1.5-0.2,1.6,1c0.1,1.2-1.6,1.3-1.6,1.3l-1,0.1l-0.3,0.3c0,0,0.2,1.6,0.7,2
		c0.5,0.4,2.1,0.2,2.1,0.2l3.8-0.7l2.2-1.6c0,0,1.3-0.7,1.8,0.3c0.5,0.9-0.4,1.7-0.4,1.7l-2.3,1.7l-3.2,0.9l-1.7,0h4.6l2.7-1.1
		c0,0,1.4-0.4,1.8,0.6c0.3,1-0.7,1.5-0.7,1.5l-2.9,1.2l-4.1,0.3l-1.6-0.5l3.5,1.1l1.9-0.4c0,0,1.7-0.3,2,0.9
		c0.3,1.2-1.5,1.5-1.5,1.5l-2.1,0.1l-4.2-1.2l2.6,1.3l1.8,0c0,0,1.4,0.4,1,1.4s-1.5,0.7-1.5,0.7l-1.9-0.3l-3.3-1.8l-6.6-1.3
		l-1.1,0.1c0,0-1.2-0.2-1.3-4C0,1038.7,1.3,1038.9,1.3,1038.9L1.3,1038.9z"/>
</g>
</svg>
