<?xml version="1.0" encoding="utf-8"?>
<!-- Generator: Adobe Illustrator 23.0.0, SVG Export Plug-In . SVG Version: 6.00 Build 0)  -->
<svg version="1.1"
	 id="svg4199" inkscape:version="0.91 r13725" sodipodi:docname="legend_hitbycar.svg" xmlns:cc="http://creativecommons.org/ns#" xmlns:dc="http://purl.org/dc/elements/1.1/" xmlns:inkscape="http://www.inkscape.org/namespaces/inkscape" xmlns:rdf="http://www.w3.org/1999/02/22-rdf-syntax-ns#" xmlns:sodipodi="http://sodipodi.sourceforge.net/DTD/sodipodi-0.dtd" xmlns:svg="http://www.w3.org/2000/svg"
	 xmlns="http://www.w3.org/2000/svg" xmlns:xlink="http://www.w3.org/1999/xlink" x="0px" y="0px" viewBox="0 0 56.7 56.7"
	 style="enable-background:new 0 0 56.7 56.7;" xml:space="preserve">
<style type="text/css">
	.st0{fill-rule:evenodd;clip-rule:evenodd;fill:#5E5D5D;}
	.st1{fill:#5E5D5D;}
</style>
<defs>
	
	<inkscape:path-effect  effect="spiro" id="path-effect4214" is_visible="true"></inkscape:path-effect>
	<inkscape:path-effect  effect="spiro" id="path-effect4209" is_visible="true"></inkscape:path-effect>
	<inkscape:path-effect  effect="spiro" id="path-effect4202" is_visible="true"></inkscape:path-effect>
	<inkscape:path-effect  effect="spiro" id="path-effect4762" is_visible="true"></inkscape:path-effect>
	<inkscape:path-effect  effect="spiro" id="path-effect4758" is_visible="true"></inkscape:path-effect>
	<inkscape:path-effect  effect="spiro" id="path-effect4754" is_visible="true"></inkscape:path-effect>
	<inkscape:path-effect  effect="spiro" id="path-effect4750" is_visible="true"></inkscape:path-effect>
	<inkscape:path-effect  effect="spiro" id="path-effect4746" is_visible="true"></inkscape:path-effect>
	<inkscape:path-effect  effect="spiro" id="path-effect4742" is_visible="true"></inkscape:path-effect>
	<inkscape:path-effect  effect="spiro" id="path-effect4738" is_visible="true"></inkscape:path-effect>
	<inkscape:path-effect  effect="spiro" id="path-effect4734" is_visible="true"></inkscape:path-effect>
	<inkscape:path-effect  effect="spiro" id="path-effect4700" is_visible="true"></inkscape:path-effect>
	<inkscape:path-effect  effect="spiro" id="path-effect4696" is_visible="true"></inkscape:path-effect>
	<inkscape:path-effect  effect="spiro" id="path-effect4692" is_visible="true"></inkscape:path-effect>
	<inkscape:path-effect  effect="spiro" id="path-effect4688" is_visible="true"></inkscape:path-effect>
	<inkscape:path-effect  effect="spiro" id="path-effect4684" is_visible="true"></inkscape:path-effect>
	<inkscape:path-effect  effect="spiro" id="path-effect4649" is_visible="true"></inkscape:path-effect>
	<inkscape:path-effect  effect="spiro" id="path-effect4627" is_visible="true"></inkscape:path-effect>
	<inkscape:path-effect  effect="spiro" id="path-effect4623" is_visible="true"></inkscape:path-effect>
	<inkscape:path-effect  effect="spiro" id="path-effect4619" is_visible="true"></inkscape:path-effect>
	<inkscape:path-effect  effect="spiro" id="path-effect4615" is_visible="true"></inkscape:path-effect>
	<inkscape:path-effect  effect="spiro" id="path-effect4611" is_visible="true"></inkscape:path-effect>
	<inkscape:path-effect  effect="spiro" id="path-effect4607" is_visible="true"></inkscape:path-effect>
	<inkscape:path-effect  effect="spiro" id="path-effect4603" is_visible="true"></inkscape:path-effect>
	<inkscape:path-effect  effect="spiro" id="path-effect4599" is_visible="true"></inkscape:path-effect>
	<inkscape:path-effect  effect="spiro" id="path-effect4595" is_visible="true"></inkscape:path-effect>
	<inkscape:path-effect  effect="spiro" id="path-effect4591" is_visible="true"></inkscape:path-effect>
	<inkscape:path-effect  effect="spiro" id="path-effect4587" is_visible="true"></inkscape:path-effect>
	<inkscape:path-effect  effect="spiro" id="path-effect4583" is_visible="true"></inkscape:path-effect>
	<inkscape:path-effect  effect="spiro" id="path-effect4304" is_visible="true"></inkscape:path-effect>
	<inkscape:path-effect  effect="spiro" id="path-effect4300" is_visible="true"></inkscape:path-effect>
	<inkscape:path-effect  effect="spiro" id="path-effect4266" is_visible="true"></inkscape:path-effect>
	<inkscape:path-effect  effect="spiro" id="path-effect4261" is_visible="true"></inkscape:path-effect>
	<inkscape:path-effect  effect="spiro" id="path-effect4242" is_visible="true"></inkscape:path-effect>
	<inkscape:path-effect  effect="spiro" id="path-effect4238" is_visible="true"></inkscape:path-effect>
	<inkscape:path-effect  effect="spiro" id="path-effect4174" is_visible="true"></inkscape:path-effect>
	<inkscape:path-effect  effect="spiro" id="path-effect4170" is_visible="true"></inkscape:path-effect>
	<inkscape:path-effect  effect="spiro" id="path-effect4160" is_visible="true"></inkscape:path-effect>
	<inkscape:path-effect  effect="spiro" id="path-effect4156" is_visible="true"></inkscape:path-effect>
	<inkscape:path-effect  effect="spiro" id="path-effect4152" is_visible="true"></inkscape:path-effect>
	<inkscape:path-effect  effect="spiro" id="path-effect4770" is_visible="true"></inkscape:path-effect>
	<inkscape:path-effect  effect="spiro" id="path-effect4766" is_visible="true"></inkscape:path-effect>
	<inkscape:path-effect  effect="spiro" id="path-effect4751" is_visible="true"></inkscape:path-effect>
	<inkscape:path-effect  effect="spiro" id="path-effect4770-0" is_visible="true"></inkscape:path-effect>
	<inkscape:path-effect  effect="spiro" id="path-effect4766-0" is_visible="true"></inkscape:path-effect>
	<inkscape:path-effect  effect="spiro" id="path-effect4751-8" is_visible="true"></inkscape:path-effect>
</defs>
<sodipodi:namedview  bordercolor="#666666" borderopacity="1.0" id="base" inkscape:current-layer="layer1" inkscape:cx="44.140168" inkscape:cy="31.001095" inkscape:document-units="px" inkscape:pageopacity="0.0" inkscape:pageshadow="2" inkscape:window-height="719" inkscape:window-maximized="1" inkscape:window-width="1280" inkscape:window-x="0" inkscape:window-y="1" inkscape:zoom="5.5999998" pagecolor="#ffffff" showgrid="false">
	</sodipodi:namedview>
<g id="layer1" transform="translate(0,-981.49606)" inkscape:groupmode="layer" inkscape:label="Layer 1">
	<path id="path4200" inkscape:connector-curvature="0" class="st0" d="M1.2,999.6c-0.4,0-0.7,0-1.1,0l0,1.8c0.7,0.2,1.3,0.3,1.9,0.6
		c3.9,1.5,7.1,4.9,8.4,8.9L0,1010.6l0,18.7h10.2c0.1,1.9,1,3.8,2.4,5.1s3.3,2.1,5.2,2.1s3.8-0.8,5.2-2.1c1.4-1.3,2.3-3.2,2.4-5.1
		h4.7c0.6-1.5,0.8-3.1,0.8-4.7c0-1.4-0.3-2.8-0.8-4.1c-1.6-3.1-4.3-5.7-7.5-7.1c-2.9-1.3-6.1-1.6-8.7-3.4c-1.9-1.3-3.3-3.2-4.6-5
		s-2.9-3.6-5-4.6C3.4,999.9,2.3,999.6,1.2,999.6L1.2,999.6z M17.8,1025c2.3,0,4.1,1.8,4.1,4.1c0,2.3-1.8,4.1-4.1,4.1
		c-2.3,0-4.1-1.8-4.1-4.1c0,0,0,0,0,0C13.6,1026.8,15.5,1025,17.8,1025z"/>
	
		<path id="path4212" inkscape:connector-curvature="0" inkscape:original-d="m 36.592302,1001.9286 -5.475025,1.754 -12.863648,-8.98324 c 0,0 -3.614578,1.45292 -4.146134,2.17938 -0.531555,0.72646 0.956801,2.17938 0.956801,2.17938 l 16.850314,10.09958 5.581336,12.9167 10.950046,5.2092 2.923557,14.6711 c 0,0 2.03763,2.3919 3.056446,2.2591 1.018814,-0.1329 3.056445,-3.0565 3.056445,-3.0565 l -2.870401,-17.6476 -6.644447,-3.2957 9.089603,-2.1262 8.611202,8.186 c 0,0 3.384238,0.1595 4.172713,-0.5582 0.788474,-0.7175 0.558134,-3.7474 0.558134,-3.7474 l -12.066314,-10.4185 -11.05636,2.8705 -5.475022,-9.5149 0.850487,-21.31546 c 0,0 -1.55923,-1.70097 -2.338845,-1.80728 -0.779613,-0.10639 -2.338844,1.16943 -2.338844,1.16943 z" inkscape:path-effect="#path-effect4214" sodipodi:nodetypes="ccczccccczccccczccccczcc" class="st0" d="
		M29.3,997.8l-4.4,1.4l-10.3-7.2c-0.3-0.2-0.7-0.3-1.1-0.3c-0.4,0-0.8,0.1-1.1,0.2c-0.3,0.2-0.6,0.4-0.8,0.8s-0.3,0.7-0.3,1.1
		c0,0.7,0.3,1.3,0.8,1.7l13.5,8.1L30,1014l8.8,4.2l2.3,11.7c0.1,0.5,0.5,1,0.9,1.3s1,0.5,1.5,0.5c0.6,0,1.3-0.3,1.7-0.7
		c0.5-0.5,0.7-1.1,0.7-1.7l-2.3-14.1l-5.3-2.6l7.3-1.7l6.9,6.5c0.5,0.3,1.1,0.5,1.7,0.4c0.6-0.1,1.2-0.4,1.6-0.8
		c0.4-0.4,0.6-0.9,0.7-1.4c0.1-0.5,0-1.1-0.2-1.6l-9.7-8.3l-8.8,2.3l-4.4-7.6l0.7-17.1c-0.1-0.4-0.4-0.8-0.7-1s-0.7-0.4-1.2-0.4
		c-0.4,0-0.7,0.1-1.1,0.2c-0.3,0.2-0.6,0.4-0.8,0.7L29.3,997.8L29.3,997.8z"/>
	<circle id="path4216" class="st1" cx="25.3" cy="994" r="3.5"/>
</g>
</svg>
