<?xml version="1.0" encoding="utf-8"?>
<!-- Generator: Adobe Illustrator 23.0.0, SVG Export Plug-In . SVG Version: 6.00 Build 0)  -->
<svg version="1.1"
	 id="svg4199" inkscape:version="0.91 r13725" sodipodi:docname="legend_carcrash.svg" xmlns:cc="http://creativecommons.org/ns#" xmlns:dc="http://purl.org/dc/elements/1.1/" xmlns:inkscape="http://www.inkscape.org/namespaces/inkscape" xmlns:rdf="http://www.w3.org/1999/02/22-rdf-syntax-ns#" xmlns:sodipodi="http://sodipodi.sourceforge.net/DTD/sodipodi-0.dtd" xmlns:svg="http://www.w3.org/2000/svg"
	 xmlns="http://www.w3.org/2000/svg" xmlns:xlink="http://www.w3.org/1999/xlink" x="0px" y="0px" viewBox="0 0 56.7 56.7"
	 style="enable-background:new 0 0 56.7 56.7;" xml:space="preserve">
<style type="text/css">
	.st0{fill-rule:evenodd;clip-rule:evenodd;fill:#5E5D5D;}
</style>
<defs>
	
	<inkscape:path-effect  effect="spiro" id="path-effect4266" is_visible="true"></inkscape:path-effect>
	<inkscape:path-effect  effect="spiro" id="path-effect4261" is_visible="true"></inkscape:path-effect>
	<inkscape:path-effect  effect="spiro" id="path-effect4242" is_visible="true"></inkscape:path-effect>
	<inkscape:path-effect  effect="spiro" id="path-effect4238" is_visible="true"></inkscape:path-effect>
	<inkscape:path-effect  effect="spiro" id="path-effect4174" is_visible="true"></inkscape:path-effect>
	<inkscape:path-effect  effect="spiro" id="path-effect4170" is_visible="true"></inkscape:path-effect>
	<inkscape:path-effect  effect="spiro" id="path-effect4160" is_visible="true"></inkscape:path-effect>
	<inkscape:path-effect  effect="spiro" id="path-effect4156" is_visible="true"></inkscape:path-effect>
	<inkscape:path-effect  effect="spiro" id="path-effect4152" is_visible="true"></inkscape:path-effect>
	<inkscape:path-effect  effect="spiro" id="path-effect4770" is_visible="true"></inkscape:path-effect>
	<inkscape:path-effect  effect="spiro" id="path-effect4766" is_visible="true"></inkscape:path-effect>
	<inkscape:path-effect  effect="spiro" id="path-effect4751" is_visible="true"></inkscape:path-effect>
</defs>
<sodipodi:namedview  bordercolor="#666666" borderopacity="1.0" id="base" inkscape:current-layer="layer1" inkscape:cx="-17.831501" inkscape:cy="34.577447" inkscape:document-units="px" inkscape:pageopacity="0.0" inkscape:pageshadow="2" inkscape:window-height="719" inkscape:window-maximized="1" inkscape:window-width="1280" inkscape:window-x="0" inkscape:window-y="1" inkscape:zoom="1.979899" pagecolor="#ffffff" showgrid="false">
	</sodipodi:namedview>
<g id="layer1" transform="translate(0,-981.49606)" inkscape:groupmode="layer" inkscape:label="Layer 1">
	<path id="path4236" inkscape:connector-curvature="0" class="st0" d="M0.7,1003.5l0.1,22.7h14.7c0.1,1.2,0.7,2.4,1.6,3.3
		c0.9,0.8,2.2,1.3,3.4,1.3c1.3,0,2.5-0.5,3.4-1.3c0.9-0.8,1.5-2,1.6-3.3H31c0.3,0,0.6-0.1,0.9-0.2c0.3-0.1,0.5-0.4,0.6-0.6
		c0.1-0.3,0.2-0.6,0.2-0.9v-6.5c-0.1-0.7-0.4-1.3-0.9-1.8c-0.5-0.5-1.1-0.8-1.7-0.9l-9.8-2.4l-4.5-7.8c-0.4-0.5-1-1-1.6-1.2
		c-0.8-0.3-1.6-0.4-2.4-0.4L0.7,1003.5L0.7,1003.5z M3.7,1006.2h6.9c0.5,0,0.9,0.1,1.3,0.3c0.5,0.3,1,0.7,1.3,1.2l3.2,5.5H3.8
		L3.7,1006.2L3.7,1006.2z M20.6,1023.3c1.4,0,2.6,1.2,2.6,2.6c0,1.4-1.2,2.6-2.6,2.6c-1.4,0-2.6-1.2-2.6-2.6
		C18,1024.5,19.2,1023.3,20.6,1023.3C20.6,1023.3,20.6,1023.3,20.6,1023.3z"/>
	<path id="path4240" inkscape:connector-curvature="0" class="st0" d="M48.2,1002c-0.8,0-1.6,0.2-2.3,0.6c-1,0.5-1.8,1.4-2.3,2.4
		l-6,12.3l0.2,11.6c0,0.3,0.1,0.6,0.3,0.8c0.2,0.2,0.4,0.4,0.7,0.4H43c0.2,0,0.4,0,0.6-0.1c0.2-0.1,0.3-0.2,0.4-0.4s0.2-0.4,0.2-0.6
		v-2.2h12.3v-11.6H42.5l4-8c0.3-0.6,0.7-1.1,1.3-1.3c0.4-0.2,0.9-0.2,1.3-0.2h7.1v-3.6L48.2,1002L48.2,1002z M43.5,1018.3
		c1.4,0,2.6,1.2,2.6,2.6c0,0,0,0,0,0c0,1.4-1.2,2.6-2.6,2.6c0,0,0,0,0,0c-1.4,0-2.6-1.2-2.6-2.6c0,0,0,0,0,0
		C40.9,1019.4,42,1018.3,43.5,1018.3C43.5,1018.3,43.5,1018.3,43.5,1018.3z"/>
	
		<path id="path4264" inkscape:connector-curvature="0" inkscape:original-d="m 37.66076,1019.5273 -17.15339,-15.7812 16.055576,8.371 -3.842362,-24.15217 10.429265,18.11407 6.449675,-9.05701 2.058407,11.25271 -3.705134,-5.352 -4.116812,5.2148 -6.037996,-5.3519 0.960591,11.5271 -3.842362,-0.2745 z" inkscape:path-effect="#path-effect4266" class="st0" d="
		M30.1,1011.9l-13.7-12.6l12.8,6.7l-3.1-19.3l8.3,14.5l5.2-7.2l1.6,9l-3-4.3l-3.3,4.2l-4.8-4.3l0.8,9.2l-3.1-0.2L30.1,1011.9
		L30.1,1011.9z"/>
</g>
</svg>
