<?xml version="1.0" encoding="utf-8"?>
<!-- Generator: Adobe Illustrator 23.0.0, SVG Export Plug-In . SVG Version: 6.00 Build 0)  -->
<svg version="1.1"
	 id="svg4199" inkscape:version="0.91 r13725" sodipodi:docname="legend_carcrash.svg" xmlns:cc="http://creativecommons.org/ns#" xmlns:dc="http://purl.org/dc/elements/1.1/" xmlns:inkscape="http://www.inkscape.org/namespaces/inkscape" xmlns:rdf="http://www.w3.org/1999/02/22-rdf-syntax-ns#" xmlns:sodipodi="http://sodipodi.sourceforge.net/DTD/sodipodi-0.dtd" xmlns:svg="http://www.w3.org/2000/svg"
	 xmlns="http://www.w3.org/2000/svg" xmlns:xlink="http://www.w3.org/1999/xlink" x="0px" y="0px" viewBox="0 0 56.7 56.7"
	 style="enable-background:new 0 0 56.7 56.7;" xml:space="preserve">
<style type="text/css">
	.st0{fill:#5E5D5D;}
</style>
<defs>
	
	<inkscape:path-effect  effect="spiro" id="path-effect4266" is_visible="true"></inkscape:path-effect>
	<inkscape:path-effect  effect="spiro" id="path-effect4261" is_visible="true"></inkscape:path-effect>
	<inkscape:path-effect  effect="spiro" id="path-effect4242" is_visible="true"></inkscape:path-effect>
	<inkscape:path-effect  effect="spiro" id="path-effect4238" is_visible="true"></inkscape:path-effect>
	<inkscape:path-effect  effect="spiro" id="path-effect4174" is_visible="true"></inkscape:path-effect>
	<inkscape:path-effect  effect="spiro" id="path-effect4170" is_visible="true"></inkscape:path-effect>
	<inkscape:path-effect  effect="spiro" id="path-effect4160" is_visible="true"></inkscape:path-effect>
	<inkscape:path-effect  effect="spiro" id="path-effect4156" is_visible="true"></inkscape:path-effect>
	<inkscape:path-effect  effect="spiro" id="path-effect4152" is_visible="true"></inkscape:path-effect>
	<inkscape:path-effect  effect="spiro" id="path-effect4770" is_visible="true"></inkscape:path-effect>
	<inkscape:path-effect  effect="spiro" id="path-effect4766" is_visible="true"></inkscape:path-effect>
	<inkscape:path-effect  effect="spiro" id="path-effect4751" is_visible="true"></inkscape:path-effect>
</defs>
<sodipodi:namedview  bordercolor="#666666" borderopacity="1.0" id="base" inkscape:current-layer="layer1" inkscape:cx="-17.831501" inkscape:cy="34.577447" inkscape:document-units="px" inkscape:pageopacity="0.0" inkscape:pageshadow="2" inkscape:window-height="719" inkscape:window-maximized="1" inkscape:window-width="1280" inkscape:window-x="0" inkscape:window-y="1" inkscape:zoom="1.979899" pagecolor="#ffffff" showgrid="false">
	</sodipodi:namedview>
<g>
	<path class="st0" d="M6.5,25.8C6.5,25.8,6.5,25.8,6.5,25.8C7.2,26,7.8,26,8.4,25.7c1.1-0.5,2.4-0.6,3.5-0.4l1.9,0.5
		c0.7,0.2,1.1,0.8,1.1,1.5c0,0.3,0,0.6,0,0.9c0,0.7-0.6,1.3-1.4,1.3c-0.7,0-1.5-0.1-2-0.3c-0.4-0.2-0.8-0.2-1.2-0.1
		c-0.1,0-0.2,0-0.3,0.1c-0.7,0.2-1.2,1-1,1.8l0.2,1c0.1,0.8,0.8,1.4,1.6,1.3l0,0c0.6,0,1-0.3,1.4-0.6c0.3-0.3,1-0.7,1.6-0.9
		c0.7-0.3,1.5,0.1,1.7,0.8c0.1,0.3,0.2,0.6,0.3,0.9c0.3,0.6,0,1.4-0.6,1.7l-1.9,1.2c-1,0.6-2.2,0.9-3.4,0.9c-0.5,0-0.9,0.1-1.4,0.4
		c-0.1,0.1-0.2,0.1-0.3,0.2c-0.7,0.6-0.9,1.7-0.4,2.5l0.6,1.1c0.5,0.8,1.6,1.2,2.4,0.7c0,0,0,0,0,0c0.6-0.3,1-0.8,1.3-1.3
		c0.4-1.1,1.2-2.1,2.2-2.7l1.7-1.1c0.6-0.4,1.4-0.3,1.8,0.3c0.2,0.2,0.4,0.5,0.6,0.7c0.5,0.5,0.5,1.4-0.1,1.9
		c-0.5,0.5-1.2,1-1.6,1.2c-0.4,0.1-0.7,0.4-0.9,0.7c-0.1,0.1-0.1,0.2-0.2,0.3c-0.4,0.7-0.1,1.5,0.5,2l0.9,0.6
		c0.6,0.5,1.5,0.4,2.1-0.2l0,0c0.4-0.4,0.5-0.9,0.5-1.4c0-0.5,0.2-1.2,0.5-1.8c0.3-0.7,1.1-1,1.8-0.7c0.3,0.1,0.6,0.3,0.8,0.4
		c0.6,0.3,1,1,0.8,1.6l-0.5,2.1c-0.3,1.2-0.9,2.2-1.8,3c-0.3,0.3-0.6,0.7-0.7,1.2c0,0.1,0,0.2-0.1,0.3c-0.1,0.9,0.6,1.8,1.5,2
		l1.2,0.3c0.9,0.2,1.9-0.3,2.3-1.2c0,0,0,0,0,0c0.2-0.6,0.2-1.3-0.1-1.8c-0.5-1.1-0.6-2.4-0.4-3.5l0.5-1.9c0.2-0.7,0.8-1.1,1.5-1.1
		c0.3,0,0.6,0,0.9,0c0.7,0,1.3,0.6,1.3,1.4c0,0.7-0.1,1.5-0.3,2c-0.2,0.4-0.2,0.8-0.1,1.2c0,0.1,0,0.2,0.1,0.3
		c0.2,0.7,1,1.2,1.8,1.1l1-0.2c0.8-0.1,1.4-0.8,1.3-1.6l0,0c0-0.6-0.3-1-0.6-1.4c-0.3-0.3-0.7-1-0.9-1.6c-0.3-0.7,0.1-1.5,0.8-1.7
		c0.3-0.1,0.6-0.2,0.9-0.3c0.6-0.3,1.4,0,1.7,0.6l1.2,1.9c0.6,1,0.9,2.2,0.9,3.4c0,0.5,0.1,0.9,0.4,1.4c0.1,0.1,0.1,0.2,0.2,0.3
		c0.6,0.7,1.7,0.9,2.5,0.4l1.1-0.7c0.8-0.5,1.1-1.6,0.7-2.4l0,0c-0.3-0.6-0.8-1-1.3-1.3c-1.1-0.4-2.1-1.2-2.7-2.2l-1.1-1.7
		c-0.4-0.6-0.3-1.4,0.3-1.8c0.2-0.2,0.5-0.4,0.7-0.6c0.5-0.5,1.4-0.5,1.9,0.1c0.5,0.5,1,1.2,1.2,1.6c0.1,0.4,0.4,0.7,0.7,0.9
		c0.1,0.1,0.2,0.1,0.3,0.2c0.7,0.4,1.5,0.1,2-0.5l0.6-0.9c0.5-0.6,0.4-1.5-0.2-2.1l0,0c-0.4-0.4-0.9-0.5-1.4-0.5
		c-0.5,0-1.2-0.2-1.8-0.5c-0.7-0.3-1-1.1-0.7-1.8c0.1-0.3,0.3-0.6,0.4-0.8c0.3-0.6,1-1,1.6-0.8l2.1,0.5c1.2,0.3,2.2,0.9,3,1.8
		c0.3,0.3,0.7,0.6,1.2,0.7c0.1,0,0.2,0,0.3,0.1c0.9,0.1,1.8-0.6,2-1.5l0.3-1.2c0.2-0.9-0.3-1.9-1.2-2.3c0,0,0,0,0,0
		c-0.6-0.2-1.3-0.2-1.8,0.1c-1.1,0.5-2.4,0.6-3.5,0.4l-1.9-0.5c-0.7-0.2-1.1-0.8-1.1-1.5c0-0.3,0-0.6,0-0.9c0-0.7,0.6-1.3,1.4-1.3
		c0.7,0,1.5,0.1,2,0.3c0.4,0.2,0.8,0.2,1.2,0.1c0.1,0,0.2,0,0.3-0.1c0.7-0.2,1.2-1,1-1.8c-0.1-0.3-0.1-0.7-0.2-1
		c-0.1-0.8-0.8-1.4-1.6-1.3l0,0c-0.6,0-1,0.3-1.4,0.6c-0.3,0.3-1,0.7-1.6,0.9c-0.7,0.3-1.5-0.1-1.7-0.8c-0.1-0.3-0.2-0.6-0.3-0.9
		c-0.3-0.6,0-1.4,0.6-1.7l1.9-1.2c1-0.6,2.2-0.9,3.4-0.9c0.5,0,0.9-0.1,1.4-0.4c0.1-0.1,0.2-0.1,0.3-0.2c0.7-0.6,0.9-1.7,0.4-2.5
		L48,15.4c-0.5-0.8-1.5-1.1-2.3-0.7c0,0,0,0-0.1,0c-0.6,0.3-1,0.8-1.3,1.3c-0.4,1.1-1.2,2.1-2.2,2.7l-1.7,1.1
		c-0.6,0.4-1.4,0.3-1.8-0.3c-0.2-0.2-0.4-0.5-0.6-0.7c-0.5-0.5-0.5-1.4,0.1-1.9c0.5-0.5,1.2-1,1.6-1.2c0.4-0.1,0.7-0.4,0.9-0.7
		c0.1-0.1,0.1-0.2,0.2-0.3c0.4-0.7,0.1-1.5-0.5-2l-0.9-0.6c-0.6-0.5-1.5-0.4-2.1,0.2l0,0c-0.4,0.4-0.5,0.9-0.5,1.4
		c0,0.5-0.2,1.2-0.5,1.8c-0.3,0.7-1.1,1-1.8,0.7c-0.3-0.1-0.6-0.3-0.8-0.4c-0.6-0.3-1-1-0.8-1.6l0.5-2.1c0.3-1.2,0.9-2.2,1.8-3
		c0.3-0.3,0.6-0.7,0.7-1.2c0-0.1,0-0.2,0.1-0.3c0.1-0.9-0.6-1.8-1.5-2l-1.2-0.3c-0.9-0.2-1.9,0.3-2.3,1.2c0,0,0,0,0,0
		c-0.2,0.6-0.2,1.3,0.1,1.8c0.5,1.1,0.6,2.4,0.4,3.5l-0.5,1.9c-0.2,0.7-0.8,1.1-1.5,1.1c-0.3,0-0.6,0-0.9,0c-0.7,0-1.3-0.6-1.3-1.4
		c0-0.7,0.1-1.5,0.3-2c0.2-0.4,0.2-0.8,0.1-1.2c0-0.1,0-0.2-0.1-0.3c-0.2-0.7-1-1.2-1.8-1l-1,0.2c-0.8,0.1-1.4,0.8-1.3,1.6l0,0
		c0,0.6,0.3,1,0.6,1.4c0.3,0.3,0.7,1,0.9,1.6c0.3,0.7-0.1,1.5-0.8,1.7c-0.3,0.1-0.6,0.2-0.9,0.3c-0.6,0.3-1.4,0-1.7-0.6l-1.2-1.9
		c-0.6-1-0.9-2.2-0.9-3.4c0-0.5-0.1-0.9-0.4-1.4c-0.1-0.1-0.1-0.2-0.2-0.3c-0.6-0.7-1.7-0.9-2.5-0.4l-1.1,0.7
		c-0.8,0.5-1.1,1.6-0.7,2.4l0,0c0.3,0.6,0.8,1,1.3,1.3c1.1,0.4,2.1,1.2,2.7,2.2l1.1,1.7c0.4,0.6,0.3,1.4-0.3,1.8
		c-0.2,0.2-0.5,0.4-0.7,0.6c-0.5,0.5-1.4,0.5-1.9-0.1c-0.5-0.5-1-1.2-1.2-1.6c-0.1-0.4-0.4-0.7-0.7-0.9C15,16.1,15,16,14.9,16
		c-0.7-0.4-1.5-0.1-2,0.5l-0.6,0.9c-0.5,0.6-0.4,1.5,0.2,2.1l0,0c0.4,0.4,0.9,0.5,1.4,0.5c0.5,0,1.2,0.2,1.8,0.5
		c0.7,0.3,1,1.1,0.7,1.8c-0.1,0.3-0.3,0.6-0.4,0.8c-0.3,0.6-1,1-1.6,0.8l-2.1-0.5c-1.2-0.3-2.2-0.9-3-1.8C8.9,21.3,8.5,21,8,20.9
		c-0.1,0-0.2,0-0.3-0.1c-0.9-0.1-1.8,0.6-2,1.5l-0.3,1.2C5.1,24.5,5.6,25.5,6.5,25.8z M34.8,25.7c1,0.2,1.7,1.4,1.4,2.5
		c-0.3,1.1-1.3,1.8-2.4,1.6c-1-0.2-1.7-1.4-1.4-2.5C32.6,26.1,33.7,25.4,34.8,25.7z M32.5,33.6c0.8,0.2,1.3,1.1,1.1,2
		c-0.2,0.9-1.1,1.5-1.9,1.3c-0.8-0.2-1.3-1.1-1.1-2C30.8,33.9,31.6,33.4,32.5,33.6z M30.7,20c0.8,0.2,1.3,1.1,1.1,2
		c-0.2,0.9-1.1,1.5-1.9,1.3c-0.8-0.2-1.3-1.1-1.1-2C29,20.3,29.9,19.8,30.7,20z M28,26.8c0.8,0.2,1.3,1.1,1.1,2
		c-0.2,0.9-1.1,1.5-1.9,1.3c-0.8-0.2-1.3-1.1-1.1-2C26.3,27.2,27.1,26.7,28,26.8z M25.1,33.1c1,0.2,1.7,1.4,1.4,2.5
		c-0.3,1.1-1.3,1.8-2.4,1.6c-1-0.2-1.7-1.4-1.4-2.5C23,33.6,24.1,32.8,25.1,33.1z M23.8,21c0.8,0.2,1.3,1.1,1.1,2
		c-0.2,0.9-1.1,1.5-1.9,1.3c-0.8-0.2-1.3-1.1-1.1-2C22.1,21.4,22.9,20.8,23.8,21z M20.4,26.4c0.8,0.2,1.3,1.1,1.1,2
		c-0.2,0.9-1.1,1.5-1.9,1.3c-0.8-0.2-1.3-1.1-1.1-2C18.8,26.8,19.6,26.2,20.4,26.4z"/>
</g>
</svg>
