<?xml version="1.0" encoding="utf-8"?>
<!-- Generator: Adobe Illustrator 23.0.0, SVG Export Plug-In . SVG Version: 6.00 Build 0)  -->
<svg version="1.1"
	 id="svg4199" inkscape:version="0.91 r13725" sodipodi:docname="legend_abduction.svg" xmlns:cc="http://creativecommons.org/ns#" xmlns:dc="http://purl.org/dc/elements/1.1/" xmlns:inkscape="http://www.inkscape.org/namespaces/inkscape" xmlns:rdf="http://www.w3.org/1999/02/22-rdf-syntax-ns#" xmlns:sodipodi="http://sodipodi.sourceforge.net/DTD/sodipodi-0.dtd" xmlns:svg="http://www.w3.org/2000/svg"
	 xmlns="http://www.w3.org/2000/svg" xmlns:xlink="http://www.w3.org/1999/xlink" x="0px" y="0px" viewBox="0 0 56.7 56.7"
	 style="enable-background:new 0 0 56.7 56.7;" xml:space="preserve">
<style type="text/css">
	.st0{fill-rule:evenodd;clip-rule:evenodd;fill:#5E5D5D;}
	.st1{fill-rule:evenodd;clip-rule:evenodd;fill:#AD885D;stroke:#000000;stroke-width:1.1519;}
</style>
<defs>
	
	<inkscape:path-effect  effect="spiro" id="path-effect4700" is_visible="true"></inkscape:path-effect>
	<inkscape:path-effect  effect="spiro" id="path-effect4696" is_visible="true"></inkscape:path-effect>
	<inkscape:path-effect  effect="spiro" id="path-effect4692" is_visible="true"></inkscape:path-effect>
	<inkscape:path-effect  effect="spiro" id="path-effect4688" is_visible="true"></inkscape:path-effect>
	<inkscape:path-effect  effect="spiro" id="path-effect4684" is_visible="true"></inkscape:path-effect>
	<inkscape:path-effect  effect="spiro" id="path-effect4649" is_visible="true"></inkscape:path-effect>
	<inkscape:path-effect  effect="spiro" id="path-effect4627" is_visible="true"></inkscape:path-effect>
	<inkscape:path-effect  effect="spiro" id="path-effect4623" is_visible="true"></inkscape:path-effect>
	<inkscape:path-effect  effect="spiro" id="path-effect4619" is_visible="true"></inkscape:path-effect>
	<inkscape:path-effect  effect="spiro" id="path-effect4615" is_visible="true"></inkscape:path-effect>
	<inkscape:path-effect  effect="spiro" id="path-effect4611" is_visible="true"></inkscape:path-effect>
	<inkscape:path-effect  effect="spiro" id="path-effect4607" is_visible="true"></inkscape:path-effect>
	<inkscape:path-effect  effect="spiro" id="path-effect4603" is_visible="true"></inkscape:path-effect>
	<inkscape:path-effect  effect="spiro" id="path-effect4599" is_visible="true"></inkscape:path-effect>
	<inkscape:path-effect  effect="spiro" id="path-effect4595" is_visible="true"></inkscape:path-effect>
	<inkscape:path-effect  effect="spiro" id="path-effect4591" is_visible="true"></inkscape:path-effect>
	<inkscape:path-effect  effect="spiro" id="path-effect4587" is_visible="true"></inkscape:path-effect>
	<inkscape:path-effect  effect="spiro" id="path-effect4583" is_visible="true"></inkscape:path-effect>
	<inkscape:path-effect  effect="spiro" id="path-effect4304" is_visible="true"></inkscape:path-effect>
	<inkscape:path-effect  effect="spiro" id="path-effect4300" is_visible="true"></inkscape:path-effect>
	<inkscape:path-effect  effect="spiro" id="path-effect4266" is_visible="true"></inkscape:path-effect>
	<inkscape:path-effect  effect="spiro" id="path-effect4261" is_visible="true"></inkscape:path-effect>
	<inkscape:path-effect  effect="spiro" id="path-effect4242" is_visible="true"></inkscape:path-effect>
	<inkscape:path-effect  effect="spiro" id="path-effect4238" is_visible="true"></inkscape:path-effect>
	<inkscape:path-effect  effect="spiro" id="path-effect4174" is_visible="true"></inkscape:path-effect>
	<inkscape:path-effect  effect="spiro" id="path-effect4170" is_visible="true"></inkscape:path-effect>
	<inkscape:path-effect  effect="spiro" id="path-effect4160" is_visible="true"></inkscape:path-effect>
	<inkscape:path-effect  effect="spiro" id="path-effect4156" is_visible="true"></inkscape:path-effect>
	<inkscape:path-effect  effect="spiro" id="path-effect4152" is_visible="true"></inkscape:path-effect>
	<inkscape:path-effect  effect="spiro" id="path-effect4770" is_visible="true"></inkscape:path-effect>
	<inkscape:path-effect  effect="spiro" id="path-effect4766" is_visible="true"></inkscape:path-effect>
	<inkscape:path-effect  effect="spiro" id="path-effect4751" is_visible="true"></inkscape:path-effect>
	<inkscape:path-effect  effect="spiro" id="path-effect4770-0" is_visible="true"></inkscape:path-effect>
	<inkscape:path-effect  effect="spiro" id="path-effect4766-0" is_visible="true"></inkscape:path-effect>
	<inkscape:path-effect  effect="spiro" id="path-effect4751-8" is_visible="true"></inkscape:path-effect>
</defs>
<sodipodi:namedview  bordercolor="#666666" borderopacity="1.0" id="base" inkscape:current-layer="layer1" inkscape:cx="12.208087" inkscape:cy="22.864713" inkscape:document-units="px" inkscape:pageopacity="0.0" inkscape:pageshadow="2" inkscape:window-height="719" inkscape:window-maximized="1" inkscape:window-width="1280" inkscape:window-x="0" inkscape:window-y="1" inkscape:zoom="5.5999998" pagecolor="#ffffff" showgrid="false">
	</sodipodi:namedview>
<g id="layer1" transform="translate(0,-981.49606)" inkscape:groupmode="layer" inkscape:label="Layer 1">
	
		<path id="path4682" inkscape:connector-curvature="0" inkscape:original-d="m 51.92066,1047.8959 -1.920995,-22.3191 16.83157,-9.7139 c 0,0 4.421335,-9.8683 3.933464,-13.7615 -0.487871,-3.89338 -8.049881,-14.80238 -8.049881,-14.80238 l -12.349249,9.13582 c -0.627013,2.40114 -0.645538,5.31526 -0.548855,8.32636 l -1.738044,-0.231 0.731808,-9.25137 3.110182,-1.50329 c 0,0 0.853774,-2.31284 0.64033,-3.06458 -0.213443,-0.75173 -1.920993,-1.44558 -1.920993,-1.44558 l -4.9397,2.31284 -3.933466,12.60508 -2.835753,8.2108 0.548856,35.1551 z" inkscape:path-effect="#path-effect4684" sodipodi:nodetypes="ccczcccccczcccccc" class="st0" d="
		M41.5,1034.6l-1.5-17.9l13.5-7.8c2.3-3.1,3.4-7.1,3.1-11c-0.4-4.6-2.8-9-6.4-11.8l-9.9,7.3l-0.4,6.7l-1.4-0.2l0.6-7.4l2.5-1.2
		c0.3-0.3,0.6-0.7,0.7-1.1c0.1-0.4,0-0.9-0.2-1.3c-0.3-0.6-0.9-1-1.5-1.2l-4,1.9c-1,3.4-2,6.7-3.1,10.1c-0.7,2.2-1.5,4.4-2.3,6.6
		l0.4,28.1L41.5,1034.6L41.5,1034.6z"/>
	
		<path id="path4686" inkscape:connector-curvature="0" inkscape:original-d="m 18.945948,1047.5346 1.927408,-22.3937 -16.8877653,-9.7464 c 0,0 -4.43609744,-9.9012 -3.94659644,-13.8074 0.48949989,-3.9064 8.07675754,-14.85175 8.07675754,-14.85175 l 12.3904792,9.1662 c 0.629106,2.40922 0.647692,5.33305 0.550687,8.35415 l 1.743846,-0.2316 -0.734251,-9.28222 -3.120565,-1.5084 c 0,0 -0.856625,-2.32061 -0.642469,-3.07479 0.214156,-0.7542 1.927407,-1.45037 1.927407,-1.45037 l 4.956194,2.32047 3.946597,12.64711 2.845222,8.2383 -0.550689,35.2726 z" inkscape:path-effect="#path-effect4688" sodipodi:nodetypes="ccczcccccczcccccc" class="st0" d="
		M15.2,1034.3l1.5-17.9l-13.5-7.8c-2.3-3.2-3.5-7.1-3.2-11c0.4-4.6,2.8-9.1,6.5-11.9l9.9,7.3l0.4,6.7l1.4-0.2l-0.6-7.4l-2.5-1.2
		c-0.3-0.3-0.6-0.7-0.7-1.1c-0.1-0.4,0-0.9,0.2-1.3c0.3-0.6,0.9-1.1,1.5-1.2l4,1.9c1,3.4,2,6.8,3.2,10.1c0.7,2.2,1.5,4.4,2.3,6.6
		l-0.4,28.2C25.1,1034,15.2,1034.3,15.2,1034.3z"/>
	
		<path id="path4690" inkscape:connector-curvature="0" inkscape:original-d="m 53.292799,1024.9986 -13.081059,0 -7.318073,0 -16.557141,0 c 0,0 -3.018707,3.4694 -3.018707,4.9148 0,1.4456 3.018707,3.7584 3.018707,3.7584 l 15.825333,0 21.496843,0 c 0,0 3.262642,-2.891 3.201658,-4.3366 -0.06098,-1.4456 -3.567561,-4.3366 -3.567561,-4.3366 z" inkscape:path-effect="#path-effect4692" sodipodi:nodetypes="cccczccczc" class="st1" d="
		M42.6,1016.3H32.2h-5.9H13.1c-0.8,0.3-1.5,0.8-1.9,1.5c-0.4,0.7-0.6,1.6-0.5,2.4c0.1,0.7,0.4,1.3,0.8,1.8c0.4,0.5,1,0.9,1.6,1.2
		h12.7h17.2c0.7-0.2,1.4-0.7,1.9-1.3c0.5-0.6,0.7-1.4,0.7-2.2c0-0.8-0.3-1.6-0.8-2.2C44.2,1016.9,43.4,1016.5,42.6,1016.3
		L42.6,1016.3z"/>
	
		<path id="path4694" inkscape:connector-curvature="0" inkscape:original-d="m 16.336526,1034.8284 c 0,0 -3.018707,2.6597 -3.018707,4.1631 0,1.5033 3.018707,4.857 3.018707,4.857 l 37.047747,0 c 0,0 9.017687,1.6515 3.384609,-4.1053 -5.633077,-5.757 -3.384609,-4.7993 -3.384609,-4.7993 z" inkscape:path-effect="#path-effect4696" sodipodi:nodetypes="czcczcc" class="st1" d="
		M13.1,1024.2c-0.7,0.3-1.3,0.7-1.7,1.3c-0.4,0.6-0.7,1.3-0.7,2c-0.1,0.8,0.1,1.6,0.6,2.3c0.4,0.7,1.1,1.2,1.8,1.6h29.6
		c0.7-0.2,1.4-0.6,1.9-1.2c0.5-0.6,0.8-1.3,0.8-2.1c0.1-0.8-0.2-1.7-0.7-2.4c-0.5-0.7-1.2-1.2-2-1.4L13.1,1024.2L13.1,1024.2z"/>
	
		<path id="path4698" inkscape:connector-curvature="0" inkscape:original-d="m 33.351048,1023.0326 -3.38461,22.2036 c 0,0 2.103945,3.3919 3.384609,3.4112 1.280662,0.02 4.299369,-3.296 4.299369,-3.296 l 2.378374,-20.7002 c 0,0 -1.494108,-3.1992 -2.607064,-3.4691 -1.112957,-0.2697 -4.070678,1.8505 -4.070678,1.8505 z" inkscape:path-effect="#path-effect4700" sodipodi:nodetypes="cczcczc" class="st1" d="
		M26.7,1014.7l-2.7,17.8c0.1,0.7,0.4,1.3,0.9,1.8s1.1,0.8,1.8,0.9c0.8,0.1,1.6-0.1,2.3-0.6c0.6-0.5,1.1-1.2,1.2-2L32,1016
		c0-0.6-0.2-1.2-0.6-1.7c-0.4-0.5-0.9-0.9-1.5-1c-0.6-0.2-1.3-0.1-1.9,0.2C27.5,1013.7,27,1014.1,26.7,1014.7L26.7,1014.7z"/>
</g>
</svg>
