<?xml version="1.0" encoding="utf-8"?>
<!-- Generator: Adobe Illustrator 23.0.0, SVG Export Plug-In . SVG Version: 6.00 Build 0)  -->
<svg version="1.1"
	 id="svg4199" inkscape:version="0.91 r13725" sodipodi:docname="legend_busassault.svg" xmlns:cc="http://creativecommons.org/ns#" xmlns:dc="http://purl.org/dc/elements/1.1/" xmlns:inkscape="http://www.inkscape.org/namespaces/inkscape" xmlns:rdf="http://www.w3.org/1999/02/22-rdf-syntax-ns#" xmlns:sodipodi="http://sodipodi.sourceforge.net/DTD/sodipodi-0.dtd" xmlns:svg="http://www.w3.org/2000/svg"
	 xmlns="http://www.w3.org/2000/svg" xmlns:xlink="http://www.w3.org/1999/xlink" x="0px" y="0px" viewBox="0 0 56.7 56.7"
	 style="enable-background:new 0 0 56.7 56.7;" xml:space="preserve">
<style type="text/css">
	.st0{fill-rule:evenodd;clip-rule:evenodd;fill:#5E5D5D;stroke:#000000;stroke-width:0.1307;}
	.st1{fill-rule:evenodd;clip-rule:evenodd;fill:#5E5D5D;}
</style>
<defs>
	
	<inkscape:path-effect  effect="spiro" id="path-effect4304" is_visible="true"></inkscape:path-effect>
	<inkscape:path-effect  effect="spiro" id="path-effect4300" is_visible="true"></inkscape:path-effect>
	<inkscape:path-effect  effect="spiro" id="path-effect4266" is_visible="true"></inkscape:path-effect>
	<inkscape:path-effect  effect="spiro" id="path-effect4261" is_visible="true"></inkscape:path-effect>
	<inkscape:path-effect  effect="spiro" id="path-effect4242" is_visible="true"></inkscape:path-effect>
	<inkscape:path-effect  effect="spiro" id="path-effect4238" is_visible="true"></inkscape:path-effect>
	<inkscape:path-effect  effect="spiro" id="path-effect4174" is_visible="true"></inkscape:path-effect>
	<inkscape:path-effect  effect="spiro" id="path-effect4170" is_visible="true"></inkscape:path-effect>
	<inkscape:path-effect  effect="spiro" id="path-effect4160" is_visible="true"></inkscape:path-effect>
	<inkscape:path-effect  effect="spiro" id="path-effect4156" is_visible="true"></inkscape:path-effect>
	<inkscape:path-effect  effect="spiro" id="path-effect4152" is_visible="true"></inkscape:path-effect>
	<inkscape:path-effect  effect="spiro" id="path-effect4770" is_visible="true"></inkscape:path-effect>
	<inkscape:path-effect  effect="spiro" id="path-effect4766" is_visible="true"></inkscape:path-effect>
	<inkscape:path-effect  effect="spiro" id="path-effect4751" is_visible="true"></inkscape:path-effect>
	<inkscape:path-effect  effect="spiro" id="path-effect4770-0" is_visible="true"></inkscape:path-effect>
	<inkscape:path-effect  effect="spiro" id="path-effect4766-0" is_visible="true"></inkscape:path-effect>
	<inkscape:path-effect  effect="spiro" id="path-effect4751-8" is_visible="true"></inkscape:path-effect>
</defs>
<sodipodi:namedview  bordercolor="#666666" borderopacity="1.0" id="base" inkscape:current-layer="layer1" inkscape:cx="24.360025" inkscape:cy="32.397526" inkscape:document-units="px" inkscape:pageopacity="0.0" inkscape:pageshadow="2" inkscape:window-height="719" inkscape:window-maximized="1" inkscape:window-width="1280" inkscape:window-x="0" inkscape:window-y="1" inkscape:zoom="5.5999999" pagecolor="#ffffff" showgrid="false">
	</sodipodi:namedview>
<g id="layer1" transform="translate(0,-981.49606)" inkscape:groupmode="layer" inkscape:label="Layer 1">
	<path id="path4302" class="st0" d="M25.5,982.3L25.5,982.3c-7.6,0-15.1,1.7-22,4.8v1.4v6.6c-0.9,0.5-1.6,1.2-2.1,2.1
		c-0.5,0.9-0.8,1.9-0.8,2.8s0.3,2,0.8,2.8c0.5,0.9,1.2,1.6,2.1,2.1v21.9c0,0.4,0,0.7,0.2,1.1c0.2,0.5,0.6,0.9,1.1,1.1h2.4l-0.1,3.9
		c0.1,0.7,0.5,1.3,1.1,1.8c0.6,0.4,1.3,0.7,2,0.7c0.7,0,1.4-0.2,2-0.7c0.6-0.4,0.9-1.1,1.1-1.8v-3.6h6.5v-7.9H17v-2.4
		c-0.1-0.4-0.3-0.9-0.7-1.1c-0.3-0.2-0.7-0.3-1-0.3l0.2-4c0-0.1,0-0.3,0.1-0.4c0-0.1,0.1-0.3,0.2-0.4c0.1-0.1,0.3-0.2,0.5-0.3
		c0.2-0.1,0.4-0.1,0.5,0l2.5,0.1l3.2-2.1l-0.2,2.1h25.3v-7.2c0.9-0.5,1.6-1.2,2.1-2c0.5-0.9,0.8-1.8,0.8-2.8s-0.3-2-0.8-2.8
		c-0.5-0.9-1.2-1.6-2.1-2V987C40.6,983.9,33.1,982.3,25.5,982.3z M12.6,987H37v3.6H12.6V987z M8.4,992.9H41v16.8H8.4V992.9z
		 M12.9,1018.2c1.9,0,3.4,1.5,3.4,3.4c0,1.9-1.5,3.4-3.4,3.4c-1.9,0-3.4-1.5-3.4-3.4c0,0,0,0,0,0C9.5,1019.7,11,1018.2,12.9,1018.2
		C12.9,1018.2,12.9,1018.2,12.9,1018.2z"/>
	<g id="g4536" transform="matrix(-0.60762218,0,0,0.60762218,70.468312,419.0009)" inkscape:label="Layer 1">
		<path id="path4538" inkscape:connector-curvature="0" class="st1" d="M70.7,979.3l0.2,2.6H29.3c-0.3,0-0.6,0-0.9,0
			c-0.3,0-0.6,0.1-0.9,0.2c-0.4,0.2-0.8,0.6-0.8,1.1l1.1,8.5c1.1,0.1,2.1,0.7,2.8,1.6c0.6,0.9,0.9,2,0.8,3.1l-7.8,16.6
			c-0.2,0.6-0.2,1.3,0.1,1.9c0.2,0.6,0.7,1.2,1.3,1.6l15.2,2.5l0.8-2.6c-0.6-0.2-1.1-0.8-1.3-1.4c-0.1-0.5-0.1-1.1,0.2-1.6l4.9-11.6
			l13.6-0.1c0.2,0,0.4,0,0.6-0.1c0.2,0,0.4-0.1,0.5-0.2c0.4-0.3,0.7-0.8,0.7-1.3l-0.1-5.5c0-0.6,0.3-1.1,0.7-1.5
			c0.4-0.3,0.8-0.5,1.3-0.4h15.4v-3c0.1-0.6,0.4-1.1,0.8-1.4c0.4-0.3,0.8-0.4,1.3-0.4l-0.2-4.9c0-0.2,0-0.3-0.1-0.5
			c-0.1-0.2-0.1-0.3-0.3-0.4c-0.2-0.2-0.3-0.3-0.6-0.4c-0.2-0.1-0.4-0.1-0.7,0l-3.1,0.1L70.7,979.3L70.7,979.3z M49.9,993.1h6.4
			c0.5,0,1,0.2,1.4,0.6c0.3,0.3,0.4,0.7,0.5,1.1l-0.1,3.5c-0.1,0.3-0.3,0.7-0.6,0.9c-0.4,0.4-0.9,0.6-1.4,0.6l-7.8,0.1
			c-0.5-0.3-1-0.7-1.3-1.2c-0.3-0.5-0.5-1.1-0.5-1.7c-0.1-1.2,0.5-2.3,1.4-3c0.1,0.8,0.2,1.7,0.5,2.5c0.3,0.8,0.6,1.5,1.1,2.2
			l1.1-0.3c-0.5-0.8-0.8-1.8-0.9-2.7C49.5,994.8,49.6,993.9,49.9,993.1L49.9,993.1z"/>
	</g>
</g>
</svg>
