<?xml version="1.0" encoding="UTF-8" standalone="no"?>
<!-- Created with Inkscape (http://www.inkscape.org/) -->

<svg
   xmlns:dc="http://purl.org/dc/elements/1.1/"
   xmlns:cc="http://creativecommons.org/ns#"
   xmlns:rdf="http://www.w3.org/1999/02/22-rdf-syntax-ns#"
   xmlns:svg="http://www.w3.org/2000/svg"
   xmlns="http://www.w3.org/2000/svg"
   xmlns:sodipodi="http://sodipodi.sourceforge.net/DTD/sodipodi-0.dtd"
   xmlns:inkscape="http://www.inkscape.org/namespaces/inkscape"
   width="20mm"
   height="20mm"
   viewBox="0 0 70.866142 70.866141"
   id="svg2"
   version="1.1"
   inkscape:version="0.91 r13725"
   sodipodi:docname="map_icon.svg">
  <defs
     id="defs4" />
  <sodipodi:namedview
     id="base"
     pagecolor="#ffffff"
     bordercolor="#666666"
     borderopacity="1.0"
     inkscape:pageopacity="0.0"
     inkscape:pageshadow="2"
     inkscape:zoom="4"
     inkscape:cx="26.682785"
     inkscape:cy="6.2092102"
     inkscape:document-units="px"
     inkscape:current-layer="layer1"
     showgrid="false"
     inkscape:window-width="1280"
     inkscape:window-height="719"
     inkscape:window-x="0"
     inkscape:window-y="1"
     inkscape:window-maximized="1" />
  <metadata
     id="metadata7">
    <rdf:RDF>
      <cc:Work
         rdf:about="">
        <dc:format>image/svg+xml</dc:format>
        <dc:type
           rdf:resource="http://purl.org/dc/dcmitype/StillImage" />
        <dc:title></dc:title>
      </cc:Work>
    </rdf:RDF>
  </metadata>
  <g
     inkscape:label="Layer 1"
     inkscape:groupmode="layer"
     id="layer1"
     transform="translate(0,-981.49606)">
    <path
       style="opacity:1;fill:#000000;fill-opacity:1;fill-rule:nonzero;stroke:none;stroke-width:0;stroke-linecap:round;stroke-linejoin:round;stroke-miterlimit:4;stroke-dasharray:none;stroke-opacity:1"
       d="m 35.464469,981.50285 a 35.464551,35.428967 0 0 0 -0.04782,9.4e-4 c -1.565605,1.18865 -2.579654,1.90891 -0.05102,3.25062 3.166464,1.68075 4.25502,1.08767 4.947691,2.37268 0.692672,1.285 2.275781,2.8669 0.494625,3.2623 -1.781157,0.39538 -2.473722,1.38385 -4.056972,-1.08768 -1.58325,-2.47117 0.59379,-2.86655 -3.3643,-4.44811 -3.958124,-1.5819 -3.067688,-3.65768 -7.124729,-1.5819 -4.057078,2.07579 -6.728777,2.57038 -6.926683,3.85539 -0.198047,1.285 2.968628,1.68039 3.859171,1.48269 0.890578,-0.19839 7.619248,-3.95387 7.817154,-2.07578 0.198049,1.87809 1.78e-4,2.37232 -1.484119,4.15192 -1.484261,1.77925 -3.166429,1.68039 -1.682133,2.96541 1.484262,1.285 -3.5e-5,2.17463 3.067477,1.77924 3.06751,-0.39538 3.957911,1.18652 3.562099,-0.98847 -0.395813,-2.17462 -2.671521,-3.2623 -0.09884,-3.2623 2.57278,0 4.551879,0.69229 5.937186,1.5819 1.385344,0.88963 3.85903,0.0992 3.661124,2.96541 -0.198047,2.86691 -0.09884,2.76807 -3.067475,4.74539 -2.968558,1.9769 -3.463396,1.2846 -4.947692,3.2619 -1.484296,1.9769 -3.364299,3.7561 -2.671627,5.4369 0.692635,1.6804 3.760218,2.7678 1.088484,2.7678 -2.671699,0 -1.682167,0.3957 -4.155995,-1.1863 -2.473792,-1.5815 -3.364583,-1.7792 -3.364583,-0.3953 0,1.3839 -1.583073,2.6692 0.890755,2.7681 2.473793,0.099 1.979028,-1.0873 2.770652,0.099 0.791625,1.1861 0.593611,1.0872 1.583108,2.6689 0.98953,1.5815 0.79166,3.7565 2.473862,3.2623 1.682204,-0.4944 -1.385414,-3.2623 3.3643,-2.175 4.749714,1.0876 4.848845,1.4826 7.124731,2.57 2.275922,1.0876 1.978955,2.6692 3.661123,2.6692 1.682203,0 2.572923,-2.0758 3.661407,0.2976 1.088484,2.3727 -0.0992,6.03 -1.286568,7.8093 -1.187436,1.7796 -4.254842,5.9315 -5.046466,6.7222 -0.791626,0.7907 -1.880146,-0.1984 -3.166535,1.8781 -1.286355,2.0759 -1.781014,1.0877 -2.275781,3.6578 -0.494765,2.5699 -1.781084,2.5699 -0.296894,4.3492 1.484296,1.7795 2.968593,3.4599 2.078016,3.4599 -0.890579,0 -2.275958,0.692 -3.166536,-0.9884 -0.890542,-1.6804 -0.692743,0.7908 -1.484333,-2.6688 -0.791624,-3.4601 -2.275956,-3.0646 -1.088518,-5.9313 1.187401,-2.8668 2.276062,-4.4484 2.276062,-5.5357 0,-1.0876 0.494731,-1.6803 0,-4.0531 -0.494765,-2.3723 -0.692919,-0.9884 -2.375087,-3.0642 -1.682203,-2.0762 -2.275673,-1.582 -2.47358,-3.4601 -0.198047,-1.878 0.09884,-3.0645 -0.198047,-3.6576 -0.296895,-0.5931 0.0992,0.7908 -1.583108,-1.7796 -1.682204,-2.5699 0.395776,-2.9654 -2.473863,-3.4597 -2.869605,-0.4942 -0.692779,1.3843 -4.650868,-0.4942 -3.958089,-1.8781 -5.343255,-1.2851 -5.640114,-2.9657 -0.296896,-1.6804 0.989495,-1.2847 -1.781157,-2.8666 -2.770686,-1.5815 -5.442385,-5.338 -6.23401,-8.6003 -0.791625,-3.26238 0.692459,-1.58163 -1.9792394,-4.44854 -0.7086149,-0.7603 -1.2339556,-1.31584 -1.6369602,-1.73673 A 35.464551,35.428967 0 0 0 0,1016.9332 a 35.464551,35.428967 0 0 0 35.46454,35.429 35.464551,35.428967 0 0 0 35.393399,-33.4162 c -0.535262,0.1062 -1.097413,0.2551 -1.679723,0.4669 -4.618025,1.6776 -3.638307,1.2581 -7.416665,1.2581 -3.778394,0 -1.539424,-1.6775 -2.658944,-2.6561 -1.11952,-0.9785 -1.679262,-2.2367 -4.897913,-7.2693 -3.218616,-5.0331 1.539388,-0.839 6.997044,-3.0756 5.457656,-2.237 1.679262,-1.3981 -0.699722,-4.0542 -1.86243,-2.0797 2.192805,-3.388 4.176048,-6.74245 a 35.464551,35.428967 0 0 0 -9.51987,-9.38372 c -2.687253,-0.66925 -6.017187,-1.09227 -6.137396,0.52896 -0.198049,2.66921 2.48e-4,7.11768 -1.780909,4.44847 -1.781156,-2.66888 -3.760431,-6.52425 -3.760431,-7.21618 0,-0.5077 0.743053,-1.70591 0.827692,-2.58207 a 35.464551,35.428967 0 0 0 -8.84261,-1.16455 z"
       id="path4147"
       inkscape:connector-curvature="0" />
  </g>
</svg>
