<?xml version="1.0" encoding="UTF-8" standalone="no"?>
<!-- Created with Inkscape (http://www.inkscape.org/) -->

<svg
   xmlns:dc="http://purl.org/dc/elements/1.1/"
   xmlns:cc="http://creativecommons.org/ns#"
   xmlns:rdf="http://www.w3.org/1999/02/22-rdf-syntax-ns#"
   xmlns:svg="http://www.w3.org/2000/svg"
   xmlns="http://www.w3.org/2000/svg"
   xmlns:sodipodi="http://sodipodi.sourceforge.net/DTD/sodipodi-0.dtd"
   xmlns:inkscape="http://www.inkscape.org/namespaces/inkscape"
   width="141.73228"
   height="141.73228"
   viewBox="0 0 40.000001 40.000001"
   version="1.1"
   id="svg8"
   sodipodi:docname="marker_abduction.svg"
   inkscape:version="0.48.4 r9939">
  <defs
     id="defs2">
    <style
       id="style3848">.cls-1{fill:#919ea8;}.cls-2{fill:#fff;}.cls-3{fill:none;stroke:#3d344c;stroke-linecap:round;stroke-linejoin:round;stroke-width:2px;}</style>
    <inkscape:path-effect
       is_visible="true"
       id="path-effect4751"
       effect="spiro" />
    <inkscape:path-effect
       is_visible="true"
       id="path-effect4766"
       effect="spiro" />
    <inkscape:path-effect
       is_visible="true"
       id="path-effect4770"
       effect="spiro" />
    <inkscape:path-effect
       effect="spiro"
       id="path-effect4751-8"
       is_visible="true" />
    <inkscape:path-effect
       effect="spiro"
       id="path-effect4766-0"
       is_visible="true" />
    <inkscape:path-effect
       effect="spiro"
       id="path-effect4770-0"
       is_visible="true" />
    <inkscape:path-effect
       is_visible="true"
       id="path-effect4751-4"
       effect="spiro" />
    <inkscape:path-effect
       is_visible="true"
       id="path-effect4766-09"
       effect="spiro" />
    <inkscape:path-effect
       is_visible="true"
       id="path-effect4770-4"
       effect="spiro" />
    <inkscape:path-effect
       is_visible="true"
       id="path-effect4152"
       effect="spiro" />
    <inkscape:path-effect
       is_visible="true"
       id="path-effect4156"
       effect="spiro" />
    <inkscape:path-effect
       is_visible="true"
       id="path-effect4160"
       effect="spiro" />
    <inkscape:path-effect
       is_visible="true"
       id="path-effect4170"
       effect="spiro" />
    <inkscape:path-effect
       is_visible="true"
       id="path-effect4174"
       effect="spiro" />
    <inkscape:path-effect
       is_visible="true"
       id="path-effect4238"
       effect="spiro" />
    <inkscape:path-effect
       is_visible="true"
       id="path-effect4242"
       effect="spiro" />
    <inkscape:path-effect
       is_visible="true"
       id="path-effect4261"
       effect="spiro" />
    <inkscape:path-effect
       is_visible="true"
       id="path-effect4266"
       effect="spiro" />
    <inkscape:path-effect
       is_visible="true"
       id="path-effect4300"
       effect="spiro" />
    <inkscape:path-effect
       is_visible="true"
       id="path-effect4304"
       effect="spiro" />
    <inkscape:path-effect
       is_visible="true"
       id="path-effect4583"
       effect="spiro" />
    <inkscape:path-effect
       is_visible="true"
       id="path-effect4587"
       effect="spiro" />
    <inkscape:path-effect
       is_visible="true"
       id="path-effect4591"
       effect="spiro" />
    <inkscape:path-effect
       is_visible="true"
       id="path-effect4595"
       effect="spiro" />
    <inkscape:path-effect
       is_visible="true"
       id="path-effect4599"
       effect="spiro" />
    <inkscape:path-effect
       is_visible="true"
       id="path-effect4603"
       effect="spiro" />
    <inkscape:path-effect
       is_visible="true"
       id="path-effect4607"
       effect="spiro" />
    <inkscape:path-effect
       is_visible="true"
       id="path-effect4611"
       effect="spiro" />
    <inkscape:path-effect
       is_visible="true"
       id="path-effect4615"
       effect="spiro" />
    <inkscape:path-effect
       is_visible="true"
       id="path-effect4619"
       effect="spiro" />
    <inkscape:path-effect
       is_visible="true"
       id="path-effect4623"
       effect="spiro" />
    <inkscape:path-effect
       is_visible="true"
       id="path-effect4627"
       effect="spiro" />
    <inkscape:path-effect
       is_visible="true"
       id="path-effect4649"
       effect="spiro" />
    <inkscape:path-effect
       is_visible="true"
       id="path-effect4684"
       effect="spiro" />
    <inkscape:path-effect
       effect="spiro"
       id="path-effect4688"
       is_visible="true" />
    <inkscape:path-effect
       is_visible="true"
       id="path-effect4692"
       effect="spiro" />
    <inkscape:path-effect
       is_visible="true"
       id="path-effect4696"
       effect="spiro" />
    <inkscape:path-effect
       is_visible="true"
       id="path-effect4700"
       effect="spiro" />
  </defs>
  <sodipodi:namedview
     id="base"
     pagecolor="#ffffff"
     bordercolor="#666666"
     borderopacity="1.0"
     inkscape:pageopacity="0.0"
     inkscape:pageshadow="2"
     inkscape:zoom="3.959798"
     inkscape:cx="3.4355074"
     inkscape:cy="65.419315"
     inkscape:document-units="mm"
     inkscape:current-layer="layer1-8"
     showgrid="false"
     inkscape:window-width="1920"
     inkscape:window-height="1027"
     inkscape:window-x="1272"
     inkscape:window-y="284"
     inkscape:window-maximized="1"
     units="mm" />
  <metadata
     id="metadata5">
    <rdf:RDF>
      <cc:Work
         rdf:about="">
        <dc:format>image/svg+xml</dc:format>
        <dc:type
           rdf:resource="http://purl.org/dc/dcmitype/StillImage" />
        <dc:title />
      </cc:Work>
    </rdf:RDF>
  </metadata>
  <g
     inkscape:label="Layer 1"
     inkscape:groupmode="layer"
     id="layer1"
     transform="translate(0,-257)">
    <path
       style="fill:#d41900;fill-opacity:1;stroke:#ffffff;stroke-width:0.87906247000000004;stroke-miterlimit:4;stroke-opacity:1;stroke-dasharray:none"
       d="m 19.780583,296.53472 c 0,0 -14.152422,-13.26004 -14.152422,-24.01516 0,-10.75513 7.825889,-15.05428 14.152422,-15.05428 6.326535,0 14.591257,4.0646 14.591257,15.05428 0,10.98967 -14.591257,24.01516 -14.591257,24.01516 z"
       id="path4747"
       inkscape:connector-curvature="0"
       sodipodi:nodetypes="czzzc" />
    <ellipse
       style="fill:#ffffff;fill-opacity:1;stroke:none;stroke-width:2.84264471000000010;stroke-miterlimit:4;stroke-opacity:1;stroke-dasharray:none"
       id="ellipse4749"
       cx="70.268692"
       cy="169.42744"
       rx="15.004569"
       ry="14.967523"
       sodipodi:cx="70.268692"
       sodipodi:cy="169.42744"
       sodipodi:rx="15.004569"
       sodipodi:ry="14.967523"
       d="m 85.273261,169.42744 c 0,8.26634 -6.717774,14.96753 -15.004569,14.96753 -8.286795,0 -15.004569,-6.70119 -15.004569,-14.96753 0,-8.26633 6.717774,-14.96752 15.004569,-14.96752 8.286795,0 15.004569,6.70119 15.004569,14.96752 z"
       transform="matrix(0.66592917,0,0,0.66592917,-26.793971,159.01813)" />
    <g
       transform="matrix(0.06857231,0,0,0.06857231,2.9659114,253.4701)"
       id="g3" />
    <g
       transform="matrix(0.06857231,0,0,0.06857231,2.9659114,252.96613)"
       id="g13" />
    <g
       transform="matrix(0.06857231,0,0,0.06857231,2.9659114,252.96613)"
       id="g15" />
    <g
       transform="matrix(0.06857231,0,0,0.06857231,2.9659114,252.96613)"
       id="g17" />
    <g
       transform="matrix(0.06857231,0,0,0.06857231,2.9659114,252.96613)"
       id="g19" />
    <g
       transform="matrix(0.06857231,0,0,0.06857231,2.9659114,252.96613)"
       id="g21" />
    <g
       transform="matrix(0.06857231,0,0,0.06857231,2.9659114,252.96613)"
       id="g23" />
    <g
       transform="matrix(0.06857231,0,0,0.06857231,2.9659114,252.96613)"
       id="g25" />
    <g
       transform="matrix(0.06857231,0,0,0.06857231,2.9659114,252.96613)"
       id="g27" />
    <g
       transform="matrix(0.06857231,0,0,0.06857231,2.9659114,252.96613)"
       id="g29" />
    <g
       transform="matrix(0.06857231,0,0,0.06857231,2.9659114,252.96613)"
       id="g31" />
    <g
       transform="matrix(0.06857231,0,0,0.06857231,2.9659114,252.96613)"
       id="g33" />
    <g
       transform="matrix(0.06857231,0,0,0.06857231,2.9659114,252.96613)"
       id="g35" />
    <g
       transform="matrix(0.06857231,0,0,0.06857231,2.9659114,252.96613)"
       id="g37" />
    <g
       transform="matrix(0.06857231,0,0,0.06857231,2.9659114,252.96613)"
       id="g39" />
    <g
       transform="matrix(0.06857231,0,0,0.06857231,2.9659114,252.96613)"
       id="g41" />
    <g
       transform="matrix(0.20539206,0,0,0.20539206,12.786698,63.016312)"
       id="layer1-8"
       inkscape:label="Layer 1">
      <path
         sodipodi:nodetypes="ccczcccccczcccccc"
         inkscape:connector-curvature="0"
         inkscape:original-d="m 51.92066,1047.8959 -1.920995,-22.3191 16.83157,-9.7139 c 0,0 4.421335,-9.8683 3.933464,-13.7615 -0.487871,-3.89338 -8.049881,-14.80238 -8.049881,-14.80238 l -12.349249,9.13582 c -0.627013,2.40114 -0.645538,5.31526 -0.548855,8.32636 l -1.738044,-0.231 0.731808,-9.25137 3.110182,-1.50329 c 0,0 0.853774,-2.31284 0.64033,-3.06458 -0.213443,-0.75173 -1.920993,-1.44558 -1.920993,-1.44558 l -4.9397,2.31284 -3.933466,12.60508 -2.835753,8.2108 0.548856,35.1551 z"
         inkscape:path-effect="#path-effect4684"
         id="path4682"
         d="m 51.92066,1047.8959 -1.920995,-22.3191 16.83157,-9.7139 c 2.883887,-3.9275 4.306113,-8.9032 3.933464,-13.7615 -0.442539,-5.76946 -3.447529,-11.29513 -8.049881,-14.80238 l -12.349249,9.13582 -0.548855,8.32636 -1.738044,-0.231 0.731808,-9.25137 3.110182,-1.50329 c 0.422793,-0.36769 0.72103,-0.87612 0.835629,-1.42459 0.114599,-0.54846 0.0449,-1.13378 -0.195299,-1.63999 -0.357249,-0.75291 -1.098604,-1.31079 -1.920993,-1.44558 l -4.9397,2.31284 c -1.234815,4.22501 -2.546258,8.42758 -3.933466,12.60508 -0.912555,2.7481 -1.857896,5.4853 -2.835753,8.2108 l 0.548856,35.1551 12.440726,0.3467"
         style="fill:#000000;fill-opacity:1;fill-rule:evenodd;stroke:#000000;stroke-width:0;stroke-linecap:butt;stroke-linejoin:miter;stroke-miterlimit:4;stroke-opacity:1;stroke-dasharray:none" />
      <path
         style="fill:#000000;fill-opacity:1;fill-rule:evenodd;stroke:#000000;stroke-width:0;stroke-linecap:butt;stroke-linejoin:miter;stroke-miterlimit:4;stroke-opacity:1;stroke-dasharray:none"
         d="m 18.945948,1047.5346 1.927408,-22.3937 -16.8877653,-9.7464 c -2.8935137,-3.9406 -4.32048855,-8.9329 -3.94659644,-13.8074 0.44401615,-5.7887 3.45904104,-11.33281 8.07675754,-14.85175 l 12.3904792,9.1662 0.550687,8.35415 1.743846,-0.2316 -0.734251,-9.28222 -3.120565,-1.5084 c -0.424207,-0.36891 -0.723441,-0.87904 -0.838423,-1.42933 -0.114983,-0.55029 -0.04505,-1.13756 0.195954,-1.64546 0.358445,-0.75541 1.102276,-1.31514 1.927407,-1.45037 l 4.956194,2.32047 c 1.238949,4.23909 2.554769,8.45572 3.946597,12.64711 0.915607,2.7573 1.864104,5.5036 2.845222,8.2383 l -0.550689,35.2726 -12.482262,0.3478"
         id="path4686"
         inkscape:path-effect="#path-effect4688"
         inkscape:original-d="m 18.945948,1047.5346 1.927408,-22.3937 -16.8877653,-9.7464 c 0,0 -4.43609744,-9.9012 -3.94659644,-13.8074 0.48949989,-3.9064 8.07675754,-14.85175 8.07675754,-14.85175 l 12.3904792,9.1662 c 0.629106,2.40922 0.647692,5.33305 0.550687,8.35415 l 1.743846,-0.2316 -0.734251,-9.28222 -3.120565,-1.5084 c 0,0 -0.856625,-2.32061 -0.642469,-3.07479 0.214156,-0.7542 1.927407,-1.45037 1.927407,-1.45037 l 4.956194,2.32047 3.946597,12.64711 2.845222,8.2383 -0.550689,35.2726 z"
         inkscape:connector-curvature="0"
         sodipodi:nodetypes="ccczcccccczcccccc" />
      <path
         sodipodi:nodetypes="cccczccczc"
         inkscape:connector-curvature="0"
         inkscape:original-d="m 53.292799,1024.9986 -13.081059,0 -7.318073,0 -16.557141,0 c 0,0 -3.018707,3.4694 -3.018707,4.9148 0,1.4456 3.018707,3.7584 3.018707,3.7584 l 15.825333,0 21.496843,0 c 0,0 3.262642,-2.891 3.201658,-4.3366 -0.06098,-1.4456 -3.567561,-4.3366 -3.567561,-4.3366 z"
         inkscape:path-effect="#path-effect4692"
         id="path4690"
         d="m 53.292799,1024.9986 -13.081059,0 -7.318073,0 -16.557141,0 c -0.978167,0.3497 -1.830374,1.0411 -2.374043,1.9263 -0.543669,0.8852 -0.775083,1.9579 -0.644664,2.9885 0.106158,0.8389 0.44884,1.6465 0.978327,2.3057 0.529488,0.6592 1.244179,1.1681 2.04038,1.4527 l 15.825333,0 21.496843,0 c 0.924256,-0.2744 1.754258,-0.8566 2.326903,-1.6322 0.572645,-0.7757 0.884668,-1.7403 0.874755,-2.7044 -0.0104,-1.0116 -0.376324,-2.0161 -1.019058,-2.7974 -0.642734,-0.7813 -1.557847,-1.334 -2.548503,-1.5392"
         style="fill:#ad885d;fill-opacity:1;fill-rule:evenodd;stroke:#000000;stroke-width:0;stroke-linecap:butt;stroke-linejoin:miter;stroke-opacity:1;stroke-miterlimit:4;stroke-dasharray:none" />
      <path
         sodipodi:nodetypes="czcczcc"
         inkscape:connector-curvature="0"
         inkscape:original-d="m 16.336526,1034.8284 c 0,0 -3.018707,2.6597 -3.018707,4.1631 0,1.5033 3.018707,4.857 3.018707,4.857 l 37.047747,0 c 0,0 9.017687,1.6515 3.384609,-4.1053 -5.633077,-5.757 -3.384609,-4.7993 -3.384609,-4.7993 z"
         inkscape:path-effect="#path-effect4696"
         id="path4694"
         d="m 16.336526,1034.8284 c -0.835999,0.341 -1.573494,0.9198 -2.103509,1.6507 -0.530016,0.731 -0.850886,1.6118 -0.915198,2.5124 -0.07256,1.016 0.183841,2.053 0.721545,2.9181 0.537704,0.8652 1.353989,1.5542 2.297162,1.9389 l 37.047747,0 c 0.911575,-0.2494 1.742101,-0.7867 2.343298,-1.5159 0.601198,-0.7293 0.970265,-1.647 1.041311,-2.5894 0.07975,-1.0579 -0.219248,-2.1404 -0.830652,-3.0073 -0.611403,-0.867 -1.530712,-1.512 -2.553957,-1.792 l -37.047747,-0.1155"
         style="fill:#ad885d;fill-opacity:1;fill-rule:evenodd;stroke:#000000;stroke-width:0;stroke-linecap:butt;stroke-linejoin:miter;stroke-opacity:1;stroke-miterlimit:4;stroke-dasharray:none" />
      <path
         sodipodi:nodetypes="cczcczc"
         inkscape:connector-curvature="0"
         inkscape:original-d="m 33.351048,1023.0326 -3.38461,22.2036 c 0,0 2.103945,3.3919 3.384609,3.4112 1.280662,0.02 4.299369,-3.296 4.299369,-3.296 l 2.378374,-20.7002 c 0,0 -1.494108,-3.1992 -2.607064,-3.4691 -1.112957,-0.2697 -4.070678,1.8505 -4.070678,1.8505 z"
         inkscape:path-effect="#path-effect4700"
         id="path4698"
         d="m 33.351048,1023.0326 -3.38461,22.2036 c 0.09693,0.8585 0.490968,1.6806 1.09946,2.2938 0.608492,0.6133 1.427464,1.0138 2.285149,1.1174 0.992639,0.12 2.028126,-0.1632 2.821638,-0.7715 0.793513,-0.6083 1.335811,-1.5348 1.477731,-2.5245 l 2.378374,-20.7002 c 0.01559,-0.7792 -0.236861,-1.5613 -0.705073,-2.1843 -0.468212,-0.623 -1.149209,-1.083 -1.901991,-1.2848 -0.78004,-0.2091 -1.631908,-0.1387 -2.36708,0.1955 -0.735172,0.3342 -1.348265,0.9298 -1.703598,1.655"
         style="fill:#ad885d;fill-opacity:1;fill-rule:evenodd;stroke:#000000;stroke-width:0;stroke-linecap:butt;stroke-linejoin:miter;stroke-opacity:1;stroke-miterlimit:4;stroke-dasharray:none" />
    </g>
  </g>
</svg>
