<?xml version="1.0" encoding="UTF-8" standalone="no"?>
<!-- Created with Inkscape (http://www.inkscape.org/) -->

<svg
   xmlns:dc="http://purl.org/dc/elements/1.1/"
   xmlns:cc="http://creativecommons.org/ns#"
   xmlns:rdf="http://www.w3.org/1999/02/22-rdf-syntax-ns#"
   xmlns:svg="http://www.w3.org/2000/svg"
   xmlns="http://www.w3.org/2000/svg"
   xmlns:sodipodi="http://sodipodi.sourceforge.net/DTD/sodipodi-0.dtd"
   xmlns:inkscape="http://www.inkscape.org/namespaces/inkscape"
   width="141.73228"
   height="141.73228"
   viewBox="0 0 40.000001 40.000001"
   version="1.1"
   id="svg8"
   sodipodi:docname="marker_carcrash.svg"
   inkscape:version="0.48.4 r9939">
  <defs
     id="defs2">
    <style
       id="style3848">.cls-1{fill:#919ea8;}.cls-2{fill:#fff;}.cls-3{fill:none;stroke:#3d344c;stroke-linecap:round;stroke-linejoin:round;stroke-width:2px;}</style>
    <inkscape:path-effect
       is_visible="true"
       id="path-effect4751"
       effect="spiro" />
    <inkscape:path-effect
       is_visible="true"
       id="path-effect4766"
       effect="spiro" />
    <inkscape:path-effect
       is_visible="true"
       id="path-effect4770"
       effect="spiro" />
    <inkscape:path-effect
       effect="spiro"
       id="path-effect4751-8"
       is_visible="true" />
    <inkscape:path-effect
       effect="spiro"
       id="path-effect4766-0"
       is_visible="true" />
    <inkscape:path-effect
       effect="spiro"
       id="path-effect4770-0"
       is_visible="true" />
    <inkscape:path-effect
       is_visible="true"
       id="path-effect4751-4"
       effect="spiro" />
    <inkscape:path-effect
       is_visible="true"
       id="path-effect4766-09"
       effect="spiro" />
    <inkscape:path-effect
       is_visible="true"
       id="path-effect4770-4"
       effect="spiro" />
    <inkscape:path-effect
       is_visible="true"
       id="path-effect4152"
       effect="spiro" />
    <inkscape:path-effect
       is_visible="true"
       id="path-effect4156"
       effect="spiro" />
    <inkscape:path-effect
       is_visible="true"
       id="path-effect4160"
       effect="spiro" />
    <inkscape:path-effect
       is_visible="true"
       id="path-effect4170"
       effect="spiro" />
    <inkscape:path-effect
       is_visible="true"
       id="path-effect4174"
       effect="spiro" />
    <inkscape:path-effect
       is_visible="true"
       id="path-effect4238"
       effect="spiro" />
    <inkscape:path-effect
       is_visible="true"
       id="path-effect4242"
       effect="spiro" />
    <inkscape:path-effect
       is_visible="true"
       id="path-effect4261"
       effect="spiro" />
    <inkscape:path-effect
       is_visible="true"
       id="path-effect4266"
       effect="spiro" />
    <inkscape:path-effect
       is_visible="true"
       id="path-effect4300"
       effect="spiro" />
    <inkscape:path-effect
       is_visible="true"
       id="path-effect4304"
       effect="spiro" />
    <inkscape:path-effect
       is_visible="true"
       id="path-effect4583"
       effect="spiro" />
    <inkscape:path-effect
       is_visible="true"
       id="path-effect4587"
       effect="spiro" />
    <inkscape:path-effect
       is_visible="true"
       id="path-effect4591"
       effect="spiro" />
    <inkscape:path-effect
       is_visible="true"
       id="path-effect4595"
       effect="spiro" />
    <inkscape:path-effect
       is_visible="true"
       id="path-effect4599"
       effect="spiro" />
    <inkscape:path-effect
       is_visible="true"
       id="path-effect4603"
       effect="spiro" />
    <inkscape:path-effect
       is_visible="true"
       id="path-effect4607"
       effect="spiro" />
    <inkscape:path-effect
       is_visible="true"
       id="path-effect4611"
       effect="spiro" />
    <inkscape:path-effect
       is_visible="true"
       id="path-effect4615"
       effect="spiro" />
    <inkscape:path-effect
       is_visible="true"
       id="path-effect4619"
       effect="spiro" />
    <inkscape:path-effect
       is_visible="true"
       id="path-effect4623"
       effect="spiro" />
    <inkscape:path-effect
       is_visible="true"
       id="path-effect4627"
       effect="spiro" />
    <inkscape:path-effect
       is_visible="true"
       id="path-effect4649"
       effect="spiro" />
    <inkscape:path-effect
       is_visible="true"
       id="path-effect4684"
       effect="spiro" />
    <inkscape:path-effect
       effect="spiro"
       id="path-effect4688"
       is_visible="true" />
    <inkscape:path-effect
       is_visible="true"
       id="path-effect4692"
       effect="spiro" />
    <inkscape:path-effect
       is_visible="true"
       id="path-effect4696"
       effect="spiro" />
    <inkscape:path-effect
       is_visible="true"
       id="path-effect4700"
       effect="spiro" />
    <inkscape:path-effect
       effect="spiro"
       id="path-effect4751-8-2"
       is_visible="true" />
    <inkscape:path-effect
       effect="spiro"
       id="path-effect4766-0-2"
       is_visible="true" />
    <inkscape:path-effect
       effect="spiro"
       id="path-effect4770-0-3"
       is_visible="true" />
    <inkscape:path-effect
       is_visible="true"
       id="path-effect4751-42"
       effect="spiro" />
    <inkscape:path-effect
       is_visible="true"
       id="path-effect4766-1"
       effect="spiro" />
    <inkscape:path-effect
       is_visible="true"
       id="path-effect4770-6"
       effect="spiro" />
    <inkscape:path-effect
       is_visible="true"
       id="path-effect4152-7"
       effect="spiro" />
    <inkscape:path-effect
       is_visible="true"
       id="path-effect4156-2"
       effect="spiro" />
    <inkscape:path-effect
       is_visible="true"
       id="path-effect4160-5"
       effect="spiro" />
    <inkscape:path-effect
       is_visible="true"
       id="path-effect4170-1"
       effect="spiro" />
    <inkscape:path-effect
       is_visible="true"
       id="path-effect4174-1"
       effect="spiro" />
    <inkscape:path-effect
       is_visible="true"
       id="path-effect4238-7"
       effect="spiro" />
    <inkscape:path-effect
       is_visible="true"
       id="path-effect4242-1"
       effect="spiro" />
    <inkscape:path-effect
       is_visible="true"
       id="path-effect4261-5"
       effect="spiro" />
    <inkscape:path-effect
       is_visible="true"
       id="path-effect4266-5"
       effect="spiro" />
    <inkscape:path-effect
       is_visible="true"
       id="path-effect4300-4"
       effect="spiro" />
    <inkscape:path-effect
       is_visible="true"
       id="path-effect4304-2"
       effect="spiro" />
    <inkscape:path-effect
       is_visible="true"
       id="path-effect4751-3"
       effect="spiro" />
    <inkscape:path-effect
       is_visible="true"
       id="path-effect4766-4"
       effect="spiro" />
    <inkscape:path-effect
       is_visible="true"
       id="path-effect4770-5"
       effect="spiro" />
    <inkscape:path-effect
       is_visible="true"
       id="path-effect4152-9"
       effect="spiro" />
    <inkscape:path-effect
       is_visible="true"
       id="path-effect4156-7"
       effect="spiro" />
    <inkscape:path-effect
       is_visible="true"
       id="path-effect4160-2"
       effect="spiro" />
    <inkscape:path-effect
       is_visible="true"
       id="path-effect4170-9"
       effect="spiro" />
    <inkscape:path-effect
       is_visible="true"
       id="path-effect4174-8"
       effect="spiro" />
    <inkscape:path-effect
       is_visible="true"
       id="path-effect4238-1"
       effect="spiro" />
    <inkscape:path-effect
       is_visible="true"
       id="path-effect4242-6"
       effect="spiro" />
    <inkscape:path-effect
       is_visible="true"
       id="path-effect4261-57"
       effect="spiro" />
    <inkscape:path-effect
       is_visible="true"
       id="path-effect4266-8"
       effect="spiro" />
  </defs>
  <sodipodi:namedview
     id="base"
     pagecolor="#ffffff"
     bordercolor="#666666"
     borderopacity="1.0"
     inkscape:pageopacity="0.0"
     inkscape:pageshadow="2"
     inkscape:zoom="1.979899"
     inkscape:cx="-65.372364"
     inkscape:cy="139.15029"
     inkscape:document-units="mm"
     inkscape:current-layer="layer1"
     showgrid="false"
     inkscape:window-width="1920"
     inkscape:window-height="1027"
     inkscape:window-x="1272"
     inkscape:window-y="284"
     inkscape:window-maximized="1"
     units="mm" />
  <metadata
     id="metadata5">
    <rdf:RDF>
      <cc:Work
         rdf:about="">
        <dc:format>image/svg+xml</dc:format>
        <dc:type
           rdf:resource="http://purl.org/dc/dcmitype/StillImage" />
        <dc:title />
      </cc:Work>
    </rdf:RDF>
  </metadata>
  <g
     inkscape:label="Layer 1"
     inkscape:groupmode="layer"
     id="layer1"
     transform="translate(0,-257)">
    <path
       style="fill:#ffcc00;fill-opacity:1;stroke:#ffffff;stroke-width:0.87906247000000004;stroke-miterlimit:4;stroke-opacity:1;stroke-dasharray:none"
       d="m 19.780583,296.53472 c 0,0 -14.152422,-13.26004 -14.152422,-24.01516 0,-10.75513 7.825889,-15.05428 14.152422,-15.05428 6.326535,0 14.591257,4.0646 14.591257,15.05428 0,10.98967 -14.591257,24.01516 -14.591257,24.01516 z"
       id="path4747"
       inkscape:connector-curvature="0"
       sodipodi:nodetypes="czzzc" />
    <ellipse
       style="fill:#ffffff;fill-opacity:1;stroke:none;stroke-width:2.84264471000000010;stroke-miterlimit:4;stroke-opacity:1;stroke-dasharray:none"
       id="ellipse4749"
       cx="70.268692"
       cy="169.42744"
       rx="15.004569"
       ry="14.967523"
       sodipodi:cx="70.268692"
       sodipodi:cy="169.42744"
       sodipodi:rx="15.004569"
       sodipodi:ry="14.967523"
       d="m 85.273261,169.42744 c 0,8.26634 -6.717774,14.96753 -15.004569,14.96753 -8.286795,0 -15.004569,-6.70119 -15.004569,-14.96753 0,-8.26633 6.717774,-14.96752 15.004569,-14.96752 8.286795,0 15.004569,6.70119 15.004569,14.96752 z"
       transform="matrix(0.66592917,0,0,0.66592917,-26.793971,159.01813)" />
    <g
       transform="matrix(0.06857231,0,0,0.06857231,2.9659114,253.4701)"
       id="g3" />
    <g
       transform="matrix(0.06857231,0,0,0.06857231,2.9659114,252.96613)"
       id="g13" />
    <g
       transform="matrix(0.06857231,0,0,0.06857231,2.9659114,252.96613)"
       id="g15" />
    <g
       transform="matrix(0.06857231,0,0,0.06857231,2.9659114,252.96613)"
       id="g17" />
    <g
       transform="matrix(0.06857231,0,0,0.06857231,2.9659114,252.96613)"
       id="g19" />
    <g
       transform="matrix(0.06857231,0,0,0.06857231,2.9659114,252.96613)"
       id="g21" />
    <g
       transform="matrix(0.06857231,0,0,0.06857231,2.9659114,252.96613)"
       id="g23" />
    <g
       transform="matrix(0.06857231,0,0,0.06857231,2.9659114,252.96613)"
       id="g25" />
    <g
       transform="matrix(0.06857231,0,0,0.06857231,2.9659114,252.96613)"
       id="g27" />
    <g
       transform="matrix(0.06857231,0,0,0.06857231,2.9659114,252.96613)"
       id="g29" />
    <g
       transform="matrix(0.06857231,0,0,0.06857231,2.9659114,252.96613)"
       id="g31" />
    <g
       transform="matrix(0.06857231,0,0,0.06857231,2.9659114,252.96613)"
       id="g33" />
    <g
       transform="matrix(0.06857231,0,0,0.06857231,2.9659114,252.96613)"
       id="g35" />
    <g
       transform="matrix(0.06857231,0,0,0.06857231,2.9659114,252.96613)"
       id="g37" />
    <g
       transform="matrix(0.06857231,0,0,0.06857231,2.9659114,252.96613)"
       id="g39" />
    <g
       transform="matrix(0.06857231,0,0,0.06857231,2.9659114,252.96613)"
       id="g41" />
    <g
       id="g4008"
       transform="matrix(0.03436229,0,0,0.03436229,12.469542,263.20528)">
      <g
         id="g3958">
        <path
           id="path3960"
           d="m 459.179,290.209 -3.149,-14.551 c -0.467,-2.159 -2.597,-3.529 -4.756,-3.063 l -2.522,0.546 -8.871,-56.684 c -0.012,-0.076 -0.026,-0.152 -0.042,-0.227 -1.582,-7.312 -8.154,-12.619 -15.626,-12.619 -1.136,0 -2.278,0.123 -3.396,0.364 l -7.437,1.609 -29.415,-82.418 c -0.675,-1.892 -2.648,-2.986 -4.613,-2.565 L 237.52,151.294 c -1.963,0.425 -3.307,2.241 -3.14,4.243 l 7.29,87.205 -7.438,1.609 c -3.22,0.697 -6.003,2.325 -8.131,4.539 -0.572,-8.306 -7.495,-14.894 -15.944,-14.894 h -7.609 L 191.23,147.222 c -0.26,-1.993 -1.957,-3.483 -3.966,-3.483 H 42.15 c -2.009,0 -3.707,1.49 -3.966,3.482 l -11.319,86.774 h -7.608 c -8.822,0 -16,7.178 -16,16 0,0.077 0.002,0.154 0.007,0.232 l 3.318,57.277 H 4 c -2.209,0 -4,1.791 -4,4 v 14.888 c 0,2.209 1.791,4 4,4 h 16.937 v 19.358 c 0,8.822 7.178,16 16,16 h 10.428 c 8.822,0 16,-7.178 16,-16 v -19.358 h 102.687 v 19.358 c 0,8.822 7.178,16 16,16 h 10.428 c 8.822,0 16,-7.178 16,-16 v -19.358 h 16.936 c 2.209,0 4,-1.791 4,-4 v -14.888 c 0,-2.209 -1.791,-4 -4,-4 h -2.581 l 1.967,-33.952 12.592,45.325 -2.523,0.546 c -1.037,0.225 -1.942,0.852 -2.517,1.744 -0.574,0.892 -0.771,1.975 -0.547,3.012 l 3.149,14.551 c 0.406,1.874 2.064,3.155 3.906,3.155 0.28,0 0.565,-0.03 0.85,-0.091 l 16.552,-3.582 4.094,18.92 c 1.583,7.312 8.155,12.618 15.626,12.618 1.136,0 2.278,-0.123 3.396,-0.364 l 10.192,-2.206 c 4.177,-0.904 7.753,-3.38 10.067,-6.973 2.314,-3.593 3.091,-7.872 2.188,-12.049 l -4.094,-18.92 100.363,-21.718 4.094,18.92 c 1.582,7.312 8.154,12.619 15.627,12.619 1.135,0 2.278,-0.123 3.396,-0.364 l 10.191,-2.206 c 8.622,-1.866 14.119,-10.4 12.254,-19.023 l -4.094,-18.92 16.553,-3.582 c 1.037,-0.225 1.942,-0.852 2.517,-1.744 0.573,-0.891 0.769,-1.974 0.545,-3.011 z M 51.01,161.847 c 0.26,-1.992 1.957,-3.482 3.966,-3.482 h 119.462 c 2.009,0 3.707,1.49 3.966,3.482 l 9.411,72.148 H 41.599 L 51.01,161.847 z M 46.906,298.31 c -10.415,0 -18.888,-8.473 -18.888,-18.888 0,-10.415 8.473,-18.888 18.888,-18.888 10.415,0 18.888,8.473 18.888,18.888 0,10.415 -8.473,18.888 -18.888,18.888 z m 135.602,0 c -10.415,0 -18.888,-8.473 -18.888,-18.888 0,-10.415 8.473,-18.888 18.888,-18.888 10.415,0 18.888,8.473 18.888,18.888 -10e-4,10.415 -8.474,18.888 -18.888,18.888 z m 92.353,3.053 c -1.32,0.285 -2.669,0.43 -4.009,0.43 -8.82,0 -16.579,-6.265 -18.447,-14.896 -2.202,-10.179 4.288,-20.253 14.466,-22.456 1.32,-0.285 2.669,-0.43 4.009,-0.43 8.82,0 16.579,6.265 18.447,14.897 2.201,10.179 -4.288,20.252 -14.466,22.455 z m -18.79,-61.738 -6.062,-72.506 c -0.167,-2.002 1.177,-3.818 3.14,-4.243 l 116.76,-25.266 c 1.967,-0.427 3.938,0.672 4.613,2.565 l 24.457,68.525 -142.908,30.925 z m 163.207,24.826 c -2.733,4.241 -6.953,7.165 -11.883,8.232 -1.32,0.286 -2.669,0.43 -4.01,0.43 -8.82,0 -16.578,-6.265 -18.446,-14.896 -1.067,-4.931 -0.15,-9.982 2.582,-14.224 2.732,-4.242 6.953,-7.165 11.884,-8.232 1.32,-0.285 2.668,-0.43 4.009,-0.43 8.821,0 16.579,6.265 18.446,14.897 1.067,4.93 0.15,9.982 -2.582,14.223 z"
           inkscape:connector-curvature="0" />
        <path
           id="path3962"
           d="m 237.958,355.776 c -1.982,-2.656 -5.739,-3.202 -8.397,-1.221 l -48.432,36.132 c -2.656,1.982 -3.203,5.741 -1.221,8.397 1.178,1.579 2.984,2.413 4.814,2.413 1.247,0 2.506,-0.388 3.583,-1.191 l 48.432,-36.132 c 2.656,-1.983 3.203,-5.742 1.221,-8.398 z"
           inkscape:connector-curvature="0" />
        <path
           id="path3964"
           d="m 252.891,367.52 c -3.181,-0.923 -6.511,0.907 -7.435,4.089 l -6.919,23.831 c -0.924,3.182 0.907,6.511 4.089,7.435 0.559,0.162 1.122,0.239 1.676,0.239 2.601,0 4.998,-1.705 5.759,-4.329 l 6.919,-23.832 c 0.924,-3.18 -0.907,-6.509 -4.089,-7.433 z"
           inkscape:connector-curvature="0" />
        <path
           id="path3966"
           d="m 217.26,168.169 c 1.084,2.013 3.151,3.156 5.288,3.156 0.96,0 1.935,-0.231 2.839,-0.718 2.917,-1.571 4.009,-5.209 2.438,-8.127 l -43.05,-79.951 c -1.57,-2.917 -5.209,-4.008 -8.127,-2.438 -2.917,1.571 -4.009,5.209 -2.438,8.127 l 43.05,79.951 z"
           inkscape:connector-curvature="0" />
        <path
           id="path3968"
           d="m 128.921,115.071 43.05,19.219 c 0.794,0.355 1.625,0.523 2.442,0.523 2.295,0 4.486,-1.324 5.482,-3.556 1.351,-3.026 -0.007,-6.574 -3.033,-7.925 l -43.05,-19.219 c -3.023,-1.349 -6.574,0.007 -7.925,3.033 -1.349,3.026 0.009,6.574 3.034,7.925 z"
           inkscape:connector-curvature="0" />
        <path
           id="path3970"
           d="m 224.232,121.968 c 0.086,0 0.174,-0.002 0.261,-0.005 3.311,-0.142 5.879,-2.941 5.738,-6.252 l -2.306,-53.813 c -0.142,-3.311 -2.934,-5.883 -6.251,-5.738 -3.311,0.142 -5.879,2.941 -5.738,6.251 l 2.306,53.813 c 0.138,3.224 2.795,5.744 5.99,5.744 z"
           inkscape:connector-curvature="0" />
      </g>
      <g
         id="g3972" />
      <g
         id="g3974" />
      <g
         id="g3976" />
      <g
         id="g3978" />
      <g
         id="g3980" />
      <g
         id="g3982" />
      <g
         id="g3984" />
      <g
         id="g3986" />
      <g
         id="g3988" />
      <g
         id="g3990" />
      <g
         id="g3992" />
      <g
         id="g3994" />
      <g
         id="g3996" />
      <g
         id="g3998" />
      <g
         id="g4000" />
    </g>
  </g>
</svg>
