<?xml version="1.0" encoding="UTF-8" standalone="no"?>
<!-- Created with Inkscape (http://www.inkscape.org/) -->

<svg
   xmlns:dc="http://purl.org/dc/elements/1.1/"
   xmlns:cc="http://creativecommons.org/ns#"
   xmlns:rdf="http://www.w3.org/1999/02/22-rdf-syntax-ns#"
   xmlns:svg="http://www.w3.org/2000/svg"
   xmlns="http://www.w3.org/2000/svg"
   xmlns:sodipodi="http://sodipodi.sourceforge.net/DTD/sodipodi-0.dtd"
   xmlns:inkscape="http://www.inkscape.org/namespaces/inkscape"
   width="141.73228"
   height="141.73228"
   viewBox="0 0 40.000001 40.000001"
   version="1.1"
   id="svg8"
   sodipodi:docname="marker_coronavirus.svg"
   inkscape:version="0.48.4 r9939">
  <defs
     id="defs2">
    <style
       id="style3848">.cls-1{fill:#919ea8;}.cls-2{fill:#fff;}.cls-3{fill:none;stroke:#3d344c;stroke-linecap:round;stroke-linejoin:round;stroke-width:2px;}</style>
    <inkscape:path-effect
       is_visible="true"
       id="path-effect4751"
       effect="spiro" />
    <inkscape:path-effect
       is_visible="true"
       id="path-effect4766"
       effect="spiro" />
    <inkscape:path-effect
       is_visible="true"
       id="path-effect4770"
       effect="spiro" />
    <inkscape:path-effect
       effect="spiro"
       id="path-effect4751-8"
       is_visible="true" />
    <inkscape:path-effect
       effect="spiro"
       id="path-effect4766-0"
       is_visible="true" />
    <inkscape:path-effect
       effect="spiro"
       id="path-effect4770-0"
       is_visible="true" />
    <inkscape:path-effect
       is_visible="true"
       id="path-effect4751-4"
       effect="spiro" />
    <inkscape:path-effect
       is_visible="true"
       id="path-effect4766-09"
       effect="spiro" />
    <inkscape:path-effect
       is_visible="true"
       id="path-effect4770-4"
       effect="spiro" />
    <inkscape:path-effect
       is_visible="true"
       id="path-effect4152"
       effect="spiro" />
    <inkscape:path-effect
       is_visible="true"
       id="path-effect4156"
       effect="spiro" />
    <inkscape:path-effect
       is_visible="true"
       id="path-effect4160"
       effect="spiro" />
    <inkscape:path-effect
       is_visible="true"
       id="path-effect4170"
       effect="spiro" />
    <inkscape:path-effect
       is_visible="true"
       id="path-effect4174"
       effect="spiro" />
    <inkscape:path-effect
       is_visible="true"
       id="path-effect4238"
       effect="spiro" />
    <inkscape:path-effect
       is_visible="true"
       id="path-effect4242"
       effect="spiro" />
    <inkscape:path-effect
       is_visible="true"
       id="path-effect4261"
       effect="spiro" />
    <inkscape:path-effect
       is_visible="true"
       id="path-effect4266"
       effect="spiro" />
    <inkscape:path-effect
       is_visible="true"
       id="path-effect4300"
       effect="spiro" />
    <inkscape:path-effect
       is_visible="true"
       id="path-effect4304"
       effect="spiro" />
    <inkscape:path-effect
       is_visible="true"
       id="path-effect4583"
       effect="spiro" />
    <inkscape:path-effect
       is_visible="true"
       id="path-effect4587"
       effect="spiro" />
    <inkscape:path-effect
       is_visible="true"
       id="path-effect4591"
       effect="spiro" />
    <inkscape:path-effect
       is_visible="true"
       id="path-effect4595"
       effect="spiro" />
    <inkscape:path-effect
       is_visible="true"
       id="path-effect4599"
       effect="spiro" />
    <inkscape:path-effect
       is_visible="true"
       id="path-effect4603"
       effect="spiro" />
    <inkscape:path-effect
       is_visible="true"
       id="path-effect4607"
       effect="spiro" />
    <inkscape:path-effect
       is_visible="true"
       id="path-effect4611"
       effect="spiro" />
    <inkscape:path-effect
       is_visible="true"
       id="path-effect4615"
       effect="spiro" />
    <inkscape:path-effect
       is_visible="true"
       id="path-effect4619"
       effect="spiro" />
    <inkscape:path-effect
       is_visible="true"
       id="path-effect4623"
       effect="spiro" />
    <inkscape:path-effect
       is_visible="true"
       id="path-effect4627"
       effect="spiro" />
    <inkscape:path-effect
       is_visible="true"
       id="path-effect4649"
       effect="spiro" />
    <inkscape:path-effect
       is_visible="true"
       id="path-effect4684"
       effect="spiro" />
    <inkscape:path-effect
       effect="spiro"
       id="path-effect4688"
       is_visible="true" />
    <inkscape:path-effect
       is_visible="true"
       id="path-effect4692"
       effect="spiro" />
    <inkscape:path-effect
       is_visible="true"
       id="path-effect4696"
       effect="spiro" />
    <inkscape:path-effect
       is_visible="true"
       id="path-effect4700"
       effect="spiro" />
    <inkscape:path-effect
       effect="spiro"
       id="path-effect4751-8-2"
       is_visible="true" />
    <inkscape:path-effect
       effect="spiro"
       id="path-effect4766-0-2"
       is_visible="true" />
    <inkscape:path-effect
       effect="spiro"
       id="path-effect4770-0-3"
       is_visible="true" />
    <inkscape:path-effect
       is_visible="true"
       id="path-effect4751-42"
       effect="spiro" />
    <inkscape:path-effect
       is_visible="true"
       id="path-effect4766-1"
       effect="spiro" />
    <inkscape:path-effect
       is_visible="true"
       id="path-effect4770-6"
       effect="spiro" />
    <inkscape:path-effect
       is_visible="true"
       id="path-effect4152-7"
       effect="spiro" />
    <inkscape:path-effect
       is_visible="true"
       id="path-effect4156-2"
       effect="spiro" />
    <inkscape:path-effect
       is_visible="true"
       id="path-effect4160-5"
       effect="spiro" />
    <inkscape:path-effect
       is_visible="true"
       id="path-effect4170-1"
       effect="spiro" />
    <inkscape:path-effect
       is_visible="true"
       id="path-effect4174-1"
       effect="spiro" />
    <inkscape:path-effect
       is_visible="true"
       id="path-effect4238-7"
       effect="spiro" />
    <inkscape:path-effect
       is_visible="true"
       id="path-effect4242-1"
       effect="spiro" />
    <inkscape:path-effect
       is_visible="true"
       id="path-effect4261-5"
       effect="spiro" />
    <inkscape:path-effect
       is_visible="true"
       id="path-effect4266-5"
       effect="spiro" />
    <inkscape:path-effect
       is_visible="true"
       id="path-effect4300-4"
       effect="spiro" />
    <inkscape:path-effect
       is_visible="true"
       id="path-effect4304-2"
       effect="spiro" />
    <inkscape:path-effect
       is_visible="true"
       id="path-effect4751-3"
       effect="spiro" />
    <inkscape:path-effect
       is_visible="true"
       id="path-effect4766-4"
       effect="spiro" />
    <inkscape:path-effect
       is_visible="true"
       id="path-effect4770-5"
       effect="spiro" />
    <inkscape:path-effect
       is_visible="true"
       id="path-effect4152-9"
       effect="spiro" />
    <inkscape:path-effect
       is_visible="true"
       id="path-effect4156-7"
       effect="spiro" />
    <inkscape:path-effect
       is_visible="true"
       id="path-effect4160-2"
       effect="spiro" />
    <inkscape:path-effect
       is_visible="true"
       id="path-effect4170-9"
       effect="spiro" />
    <inkscape:path-effect
       is_visible="true"
       id="path-effect4174-8"
       effect="spiro" />
    <inkscape:path-effect
       is_visible="true"
       id="path-effect4238-1"
       effect="spiro" />
    <inkscape:path-effect
       is_visible="true"
       id="path-effect4242-6"
       effect="spiro" />
    <inkscape:path-effect
       is_visible="true"
       id="path-effect4261-57"
       effect="spiro" />
    <inkscape:path-effect
       is_visible="true"
       id="path-effect4266-8"
       effect="spiro" />
    <inkscape:path-effect
       effect="spiro"
       id="path-effect4751-8-27"
       is_visible="true" />
    <inkscape:path-effect
       effect="spiro"
       id="path-effect4766-0-9"
       is_visible="true" />
    <inkscape:path-effect
       effect="spiro"
       id="path-effect4770-0-8"
       is_visible="true" />
    <inkscape:path-effect
       is_visible="true"
       id="path-effect4751-1"
       effect="spiro" />
    <inkscape:path-effect
       is_visible="true"
       id="path-effect4766-6"
       effect="spiro" />
    <inkscape:path-effect
       is_visible="true"
       id="path-effect4770-57"
       effect="spiro" />
    <inkscape:path-effect
       is_visible="true"
       id="path-effect4152-8"
       effect="spiro" />
    <inkscape:path-effect
       is_visible="true"
       id="path-effect4156-6"
       effect="spiro" />
    <inkscape:path-effect
       is_visible="true"
       id="path-effect4160-1"
       effect="spiro" />
    <inkscape:path-effect
       is_visible="true"
       id="path-effect4170-2"
       effect="spiro" />
    <inkscape:path-effect
       is_visible="true"
       id="path-effect4174-2"
       effect="spiro" />
    <inkscape:path-effect
       is_visible="true"
       id="path-effect4238-3"
       effect="spiro" />
    <inkscape:path-effect
       is_visible="true"
       id="path-effect4242-2"
       effect="spiro" />
    <inkscape:path-effect
       is_visible="true"
       id="path-effect4261-4"
       effect="spiro" />
    <inkscape:path-effect
       is_visible="true"
       id="path-effect4266-1"
       effect="spiro" />
    <inkscape:path-effect
       is_visible="true"
       id="path-effect4300-6"
       effect="spiro" />
    <inkscape:path-effect
       is_visible="true"
       id="path-effect4304-7"
       effect="spiro" />
    <inkscape:path-effect
       is_visible="true"
       id="path-effect4583-2"
       effect="spiro" />
    <inkscape:path-effect
       is_visible="true"
       id="path-effect4587-5"
       effect="spiro" />
    <inkscape:path-effect
       is_visible="true"
       id="path-effect4591-1"
       effect="spiro" />
    <inkscape:path-effect
       is_visible="true"
       id="path-effect4595-1"
       effect="spiro" />
    <inkscape:path-effect
       is_visible="true"
       id="path-effect4599-7"
       effect="spiro" />
    <inkscape:path-effect
       is_visible="true"
       id="path-effect4603-1"
       effect="spiro" />
    <inkscape:path-effect
       is_visible="true"
       id="path-effect4607-5"
       effect="spiro" />
    <inkscape:path-effect
       is_visible="true"
       id="path-effect4611-5"
       effect="spiro" />
    <inkscape:path-effect
       is_visible="true"
       id="path-effect4615-4"
       effect="spiro" />
    <inkscape:path-effect
       is_visible="true"
       id="path-effect4619-2"
       effect="spiro" />
    <inkscape:path-effect
       is_visible="true"
       id="path-effect4623-8"
       effect="spiro" />
    <inkscape:path-effect
       is_visible="true"
       id="path-effect4627-8"
       effect="spiro" />
    <inkscape:path-effect
       is_visible="true"
       id="path-effect4649-4"
       effect="spiro" />
    <inkscape:path-effect
       is_visible="true"
       id="path-effect4684-9"
       effect="spiro" />
    <inkscape:path-effect
       effect="spiro"
       id="path-effect4688-0"
       is_visible="true" />
    <inkscape:path-effect
       is_visible="true"
       id="path-effect4692-4"
       effect="spiro" />
    <inkscape:path-effect
       is_visible="true"
       id="path-effect4696-7"
       effect="spiro" />
    <inkscape:path-effect
       is_visible="true"
       id="path-effect4700-1"
       effect="spiro" />
    <inkscape:path-effect
       is_visible="true"
       id="path-effect4734"
       effect="spiro" />
    <inkscape:path-effect
       is_visible="true"
       id="path-effect4738"
       effect="spiro" />
    <inkscape:path-effect
       is_visible="true"
       id="path-effect4742"
       effect="spiro" />
    <inkscape:path-effect
       is_visible="true"
       id="path-effect4746"
       effect="spiro" />
    <inkscape:path-effect
       is_visible="true"
       id="path-effect4750"
       effect="spiro" />
    <inkscape:path-effect
       is_visible="true"
       id="path-effect4754"
       effect="spiro" />
    <inkscape:path-effect
       is_visible="true"
       id="path-effect4758"
       effect="spiro" />
    <inkscape:path-effect
       is_visible="true"
       id="path-effect4762"
       effect="spiro" />
    <inkscape:path-effect
       is_visible="true"
       id="path-effect4202"
       effect="spiro" />
    <inkscape:path-effect
       is_visible="true"
       id="path-effect4209"
       effect="spiro" />
    <inkscape:path-effect
       is_visible="true"
       id="path-effect4214"
       effect="spiro" />
    <inkscape:path-effect
       is_visible="true"
       id="path-effect4751-87"
       effect="spiro" />
    <inkscape:path-effect
       is_visible="true"
       id="path-effect4766-3"
       effect="spiro" />
    <inkscape:path-effect
       is_visible="true"
       id="path-effect4770-1"
       effect="spiro" />
    <inkscape:path-effect
       is_visible="true"
       id="path-effect4152-1"
       effect="spiro" />
    <inkscape:path-effect
       is_visible="true"
       id="path-effect4156-4"
       effect="spiro" />
    <inkscape:path-effect
       is_visible="true"
       id="path-effect4160-3"
       effect="spiro" />
    <inkscape:path-effect
       is_visible="true"
       id="path-effect4170-3"
       effect="spiro" />
    <inkscape:path-effect
       is_visible="true"
       id="path-effect4174-12"
       effect="spiro" />
  </defs>
  <sodipodi:namedview
     id="base"
     pagecolor="#ffffff"
     bordercolor="#666666"
     borderopacity="1.0"
     inkscape:pageopacity="0.0"
     inkscape:pageshadow="2"
     inkscape:zoom="2.8"
     inkscape:cx="83.246051"
     inkscape:cy="100.21184"
     inkscape:document-units="mm"
     inkscape:current-layer="layer1"
     showgrid="false"
     inkscape:window-width="1920"
     inkscape:window-height="1027"
     inkscape:window-x="1272"
     inkscape:window-y="284"
     inkscape:window-maximized="1"
     units="mm" />
  <metadata
     id="metadata5">
    <rdf:RDF>
      <cc:Work
         rdf:about="">
        <dc:format>image/svg+xml</dc:format>
        <dc:type
           rdf:resource="http://purl.org/dc/dcmitype/StillImage" />
        <dc:title></dc:title>
      </cc:Work>
    </rdf:RDF>
  </metadata>
  <g
     inkscape:label="Layer 1"
     inkscape:groupmode="layer"
     id="layer1"
     transform="translate(0,-257)">
    <path
       style="fill:#e9a400;fill-opacity:1;stroke:#ffffff;stroke-width:0.87906247000000004;stroke-miterlimit:4;stroke-opacity:1;stroke-dasharray:none"
       d="m 19.780583,296.53472 c 0,0 -14.152422,-13.26004 -14.152422,-24.01516 0,-10.75513 7.825889,-15.05428 14.152422,-15.05428 6.326535,0 14.591257,4.0646 14.591257,15.05428 0,10.98967 -14.591257,24.01516 -14.591257,24.01516 z"
       id="path4747"
       inkscape:connector-curvature="0"
       sodipodi:nodetypes="czzzc" />
    <ellipse
       style="fill:#ffffff;fill-opacity:1;stroke:none;stroke-width:2.84264471000000010;stroke-miterlimit:4;stroke-opacity:1;stroke-dasharray:none"
       id="ellipse4749"
       cx="70.268692"
       cy="169.42744"
       rx="15.004569"
       ry="14.967523"
       sodipodi:cx="70.268692"
       sodipodi:cy="169.42744"
       sodipodi:rx="15.004569"
       sodipodi:ry="14.967523"
       d="m 85.273261,169.42744 c 0,8.26634 -6.717774,14.96753 -15.004569,14.96753 -8.286795,0 -15.004569,-6.70119 -15.004569,-14.96753 0,-8.26633 6.717774,-14.96752 15.004569,-14.96752 8.286795,0 15.004569,6.70119 15.004569,14.96752 z"
       transform="matrix(0.66592917,0,0,0.66592917,-26.793971,159.01813)" />
    <g
       transform="matrix(0.06857231,0,0,0.06857231,2.9659114,253.4701)"
       id="g3" />
    <g
       transform="matrix(0.06857231,0,0,0.06857231,2.9659114,252.96613)"
       id="g13" />
    <g
       transform="matrix(0.06857231,0,0,0.06857231,2.9659114,252.96613)"
       id="g15" />
    <g
       transform="matrix(0.06857231,0,0,0.06857231,2.9659114,252.96613)"
       id="g17" />
    <g
       transform="matrix(0.06857231,0,0,0.06857231,2.9659114,252.96613)"
       id="g19" />
    <g
       transform="matrix(0.06857231,0,0,0.06857231,2.9659114,252.96613)"
       id="g21" />
    <g
       transform="matrix(0.06857231,0,0,0.06857231,2.9659114,252.96613)"
       id="g23" />
    <g
       transform="matrix(0.06857231,0,0,0.06857231,2.9659114,252.96613)"
       id="g25" />
    <g
       transform="matrix(0.06857231,0,0,0.06857231,2.9659114,252.96613)"
       id="g27" />
    <g
       transform="matrix(0.06857231,0,0,0.06857231,2.9659114,252.96613)"
       id="g29" />
    <g
       transform="matrix(0.06857231,0,0,0.06857231,2.9659114,252.96613)"
       id="g31" />
    <g
       transform="matrix(0.06857231,0,0,0.06857231,2.9659114,252.96613)"
       id="g33" />
    <g
       transform="matrix(0.06857231,0,0,0.06857231,2.9659114,252.96613)"
       id="g35" />
    <g
       transform="matrix(0.06857231,0,0,0.06857231,2.9659114,252.96613)"
       id="g37" />
    <g
       transform="matrix(0.06857231,0,0,0.06857231,2.9659114,252.96613)"
       id="g39" />
    <g
       transform="matrix(0.06857231,0,0,0.06857231,2.9659114,252.96613)"
       id="g41" />
    <g
       id="g3182"
       transform="matrix(0.02708724,0,0,0.02708724,12.972455,264.71609)"
       style="fill:#ff0000;fill-opacity:1">
      <g
         id="g3128"
         style="fill:#ff0000;fill-opacity:1">
	<g
   id="g3130"
   style="fill:#ff0000;fill-opacity:1">
		<g
   id="g3132"
   style="fill:#ff0000;fill-opacity:1">
			<path
   id="path3134"
   d="m 422.863,451.174 c -0.147,0.147 -0.293,0.293 -0.437,0.436 -0.144,0.144 -0.285,0.285 -0.423,0.423 0.304,-0.303 0.588,-0.587 0.86,-0.859 z"
   inkscape:connector-curvature="0"
   style="fill:#ff0000;fill-opacity:1" />

			<path
   id="path3136"
   d="m 426.138,447.898 c -0.105,0.105 -0.217,0.217 -0.334,0.334 -0.117,0.117 -0.24,0.24 -0.367,0.367 0.275,-0.274 0.499,-0.498 0.701,-0.701 z"
   inkscape:connector-curvature="0"
   style="fill:#ff0000;fill-opacity:1" />

			<path
   id="path3138"
   d="m 427.106,446.93 c -0.016,0.016 -0.043,0.043 -0.081,0.081 0.088,-0.088 0.116,-0.116 0.081,-0.081 z"
   inkscape:connector-curvature="0"
   style="fill:#ff0000;fill-opacity:1" />

			<path
   id="path3140"
   d="m 420.873,453.164 c -0.11,0.11 -0.214,0.214 -0.311,0.311 -0.097,0.097 -0.187,0.187 -0.269,0.269 0.196,-0.196 0.393,-0.394 0.58,-0.58 z"
   inkscape:connector-curvature="0"
   style="fill:#ff0000;fill-opacity:1" />

			<path
   id="path3142"
   d="m 471.539,227.517 v 8.251 h -48.783 c -3.762,-31.193 -16.097,-59.783 -34.586,-83.329 l 34.545,-34.545 5.836,5.836 c 18.875,18.875 47.498,-9.726 28.61,-28.61 -1.057,-1.057 -2.013,-2.013 -2.881,-2.881 -0.115,-0.115 -0.22,-0.22 -0.331,-0.331 -0.102,-0.102 -0.238,-0.238 -0.392,-0.392 0.065,0.065 0.132,0.132 0.189,0.189 -0.154,-0.154 -0.306,-0.306 -0.454,-0.454 -0.041,-0.041 -0.086,-0.086 -0.126,-0.126 -0.118,-0.118 -0.236,-0.236 -0.35,-0.35 -1.057,-1.057 -2.754,-2.754 -5.3,-5.3 -0.376,-0.376 -0.568,-0.568 -0.596,-0.596 -5.593,-5.593 -14.954,-14.954 -30.04,-30.04 -18.9,-18.9 -47.538,9.685 -28.61,28.61 l 5.836,5.836 -34.545,34.545 C 336.015,105.34 307.424,93.005 276.232,89.244 V 40.461 h 8.251 c 26.733,0 26.761,-40.461 0,-40.461 h -56.964 c -26.733,0 -26.761,40.461 0,40.461 h 8.251 v 48.783 c -31.193,3.762 -59.783,16.097 -83.329,34.586 l -34.546,-34.545 5.836,-5.836 c 18.905,-18.901 -9.686,-47.533 -28.61,-28.61 -2.238,2.238 -4.03,4.03 -5.456,5.456 -4.168,4.168 -14.111,14.111 -34.825,34.825 -18.905,18.902 9.763,47.459 28.61,28.61 l 5.836,-5.836 34.545,34.545 c -18.49,23.546 -30.825,52.137 -34.586,83.329 H 40.461 v -8.251 C 40.461,200.784 0,200.756 0,227.517 v 56.964 c 0,26.733 40.461,26.761 40.461,0 v -8.251 h 48.783 c 3.762,31.193 16.097,59.783 34.586,83.329 l -34.545,34.545 -5.836,-5.836 c -18.901,-18.899 -47.539,9.685 -28.61,28.61 1.057,1.057 2.013,2.013 2.881,2.881 5.376,5.376 7.266,7.266 7.36,7.36 5.593,5.593 14.954,14.954 30.04,30.04 18.9,18.9 47.541,-9.682 28.61,-28.61 l -5.836,-5.836 34.545,-34.545 c 23.546,18.49 52.136,30.825 83.329,34.586 v 48.783 h -8.251 c -26.733,0 -26.761,40.461 0,40.461 h 56.964 c 26.733,0 26.761,-40.461 0,-40.461 h -8.251 v -48.783 c 31.193,-3.762 59.783,-16.097 83.329,-34.586 l 34.545,34.545 -5.836,5.836 c -18.905,18.902 9.763,47.457 28.61,28.61 1.073,-1.073 2.043,-2.043 2.921,-2.921 -0.137,0.137 0.071,-0.071 0.762,-0.762 0.268,-0.268 0.611,-0.611 1.038,-1.038 0.249,-0.249 0.519,-0.519 0.827,-0.827 0.867,-0.867 1.986,-1.986 3.378,-3.378 0.409,-0.409 0.843,-0.843 1.302,-1.302 5.591,-5.591 14.955,-14.955 30.052,-30.052 18.905,-18.901 -9.686,-47.533 -28.61,-28.61 l -5.836,5.836 -34.545,-34.545 c 18.49,-23.546 30.825,-52.136 34.586,-83.329 h 48.783 v 8.251 c 0,26.733 40.461,26.761 40.461,0 V 227.518 C 512,200.784 471.539,200.757 471.539,227.517 z M 219.572,268.96 c -24.636,0 -44.607,-19.972 -44.607,-44.607 0,-24.635 19.972,-44.607 44.607,-44.607 24.635,0 44.607,19.972 44.607,44.607 0,24.635 -19.971,44.607 -44.607,44.607 z m 72.856,50.975 c -15.192,0 -27.507,-12.315 -27.507,-27.507 0,-15.192 12.315,-27.507 27.507,-27.507 15.192,0 27.507,12.315 27.507,27.507 0,15.192 -12.315,27.507 -27.507,27.507 z"
   inkscape:connector-curvature="0"
   style="fill:#ff0000;fill-opacity:1" />

			<path
   id="path3144"
   d="m 421.221,452.816 c 0.273,-0.273 0.532,-0.532 0.783,-0.783 -0.138,0.138 -0.273,0.273 -0.404,0.404 -0.131,0.131 -0.258,0.258 -0.379,0.379 z"
   inkscape:connector-curvature="0"
   style="fill:#ff0000;fill-opacity:1" />

		</g>

	</g>

</g>
      <g
         id="g3146"
         style="fill:#ff0000;fill-opacity:1">
</g>
      <g
         id="g3148"
         style="fill:#ff0000;fill-opacity:1">
</g>
      <g
         id="g3150"
         style="fill:#ff0000;fill-opacity:1">
</g>
      <g
         id="g3152"
         style="fill:#ff0000;fill-opacity:1">
</g>
      <g
         id="g3154"
         style="fill:#ff0000;fill-opacity:1">
</g>
      <g
         id="g3156"
         style="fill:#ff0000;fill-opacity:1">
</g>
      <g
         id="g3158"
         style="fill:#ff0000;fill-opacity:1">
</g>
      <g
         id="g3160"
         style="fill:#ff0000;fill-opacity:1">
</g>
      <g
         id="g3162"
         style="fill:#ff0000;fill-opacity:1">
</g>
      <g
         id="g3164"
         style="fill:#ff0000;fill-opacity:1">
</g>
      <g
         id="g3166"
         style="fill:#ff0000;fill-opacity:1">
</g>
      <g
         id="g3168"
         style="fill:#ff0000;fill-opacity:1">
</g>
      <g
         id="g3170"
         style="fill:#ff0000;fill-opacity:1">
</g>
      <g
         id="g3172"
         style="fill:#ff0000;fill-opacity:1">
</g>
      <g
         id="g3174"
         style="fill:#ff0000;fill-opacity:1">
</g>
    </g>
  </g>
</svg>
