<?xml version="1.0" encoding="UTF-8" standalone="no"?>
<!-- Created with Inkscape (http://www.inkscape.org/) -->

<svg
   xmlns:dc="http://purl.org/dc/elements/1.1/"
   xmlns:cc="http://creativecommons.org/ns#"
   xmlns:rdf="http://www.w3.org/1999/02/22-rdf-syntax-ns#"
   xmlns:svg="http://www.w3.org/2000/svg"
   xmlns="http://www.w3.org/2000/svg"
   xmlns:sodipodi="http://sodipodi.sourceforge.net/DTD/sodipodi-0.dtd"
   xmlns:inkscape="http://www.inkscape.org/namespaces/inkscape"
   width="141.73228"
   height="141.73228"
   viewBox="0 0 40.000001 40.000001"
   version="1.1"
   id="svg8"
   sodipodi:docname="marker_abduction.svg"
   inkscape:version="0.48.4 r9939">
  <defs
     id="defs2">
    <style
       id="style3848">.cls-1{fill:#919ea8;}.cls-2{fill:#fff;}.cls-3{fill:none;stroke:#3d344c;stroke-linecap:round;stroke-linejoin:round;stroke-width:2px;}</style>
    <inkscape:path-effect
       is_visible="true"
       id="path-effect4751"
       effect="spiro" />
    <inkscape:path-effect
       is_visible="true"
       id="path-effect4766"
       effect="spiro" />
    <inkscape:path-effect
       is_visible="true"
       id="path-effect4770"
       effect="spiro" />
    <inkscape:path-effect
       effect="spiro"
       id="path-effect4751-8"
       is_visible="true" />
    <inkscape:path-effect
       effect="spiro"
       id="path-effect4766-0"
       is_visible="true" />
    <inkscape:path-effect
       effect="spiro"
       id="path-effect4770-0"
       is_visible="true" />
    <inkscape:path-effect
       is_visible="true"
       id="path-effect4751-4"
       effect="spiro" />
    <inkscape:path-effect
       is_visible="true"
       id="path-effect4766-09"
       effect="spiro" />
    <inkscape:path-effect
       is_visible="true"
       id="path-effect4770-4"
       effect="spiro" />
    <inkscape:path-effect
       is_visible="true"
       id="path-effect4152"
       effect="spiro" />
    <inkscape:path-effect
       is_visible="true"
       id="path-effect4156"
       effect="spiro" />
    <inkscape:path-effect
       is_visible="true"
       id="path-effect4160"
       effect="spiro" />
    <inkscape:path-effect
       is_visible="true"
       id="path-effect4170"
       effect="spiro" />
    <inkscape:path-effect
       is_visible="true"
       id="path-effect4174"
       effect="spiro" />
    <inkscape:path-effect
       is_visible="true"
       id="path-effect4238"
       effect="spiro" />
    <inkscape:path-effect
       is_visible="true"
       id="path-effect4242"
       effect="spiro" />
    <inkscape:path-effect
       is_visible="true"
       id="path-effect4261"
       effect="spiro" />
    <inkscape:path-effect
       is_visible="true"
       id="path-effect4266"
       effect="spiro" />
    <inkscape:path-effect
       is_visible="true"
       id="path-effect4300"
       effect="spiro" />
    <inkscape:path-effect
       is_visible="true"
       id="path-effect4304"
       effect="spiro" />
    <inkscape:path-effect
       is_visible="true"
       id="path-effect4583"
       effect="spiro" />
    <inkscape:path-effect
       is_visible="true"
       id="path-effect4587"
       effect="spiro" />
    <inkscape:path-effect
       is_visible="true"
       id="path-effect4591"
       effect="spiro" />
    <inkscape:path-effect
       is_visible="true"
       id="path-effect4595"
       effect="spiro" />
    <inkscape:path-effect
       is_visible="true"
       id="path-effect4599"
       effect="spiro" />
    <inkscape:path-effect
       is_visible="true"
       id="path-effect4603"
       effect="spiro" />
    <inkscape:path-effect
       is_visible="true"
       id="path-effect4607"
       effect="spiro" />
    <inkscape:path-effect
       is_visible="true"
       id="path-effect4611"
       effect="spiro" />
    <inkscape:path-effect
       is_visible="true"
       id="path-effect4615"
       effect="spiro" />
    <inkscape:path-effect
       is_visible="true"
       id="path-effect4619"
       effect="spiro" />
    <inkscape:path-effect
       is_visible="true"
       id="path-effect4623"
       effect="spiro" />
    <inkscape:path-effect
       is_visible="true"
       id="path-effect4627"
       effect="spiro" />
    <inkscape:path-effect
       is_visible="true"
       id="path-effect4649"
       effect="spiro" />
    <inkscape:path-effect
       is_visible="true"
       id="path-effect4684"
       effect="spiro" />
    <inkscape:path-effect
       effect="spiro"
       id="path-effect4688"
       is_visible="true" />
    <inkscape:path-effect
       is_visible="true"
       id="path-effect4692"
       effect="spiro" />
    <inkscape:path-effect
       is_visible="true"
       id="path-effect4696"
       effect="spiro" />
    <inkscape:path-effect
       is_visible="true"
       id="path-effect4700"
       effect="spiro" />
    <inkscape:path-effect
       effect="spiro"
       id="path-effect4751-8-2"
       is_visible="true" />
    <inkscape:path-effect
       effect="spiro"
       id="path-effect4766-0-2"
       is_visible="true" />
    <inkscape:path-effect
       effect="spiro"
       id="path-effect4770-0-3"
       is_visible="true" />
    <inkscape:path-effect
       is_visible="true"
       id="path-effect4751-42"
       effect="spiro" />
    <inkscape:path-effect
       is_visible="true"
       id="path-effect4766-1"
       effect="spiro" />
    <inkscape:path-effect
       is_visible="true"
       id="path-effect4770-6"
       effect="spiro" />
    <inkscape:path-effect
       is_visible="true"
       id="path-effect4152-7"
       effect="spiro" />
    <inkscape:path-effect
       is_visible="true"
       id="path-effect4156-2"
       effect="spiro" />
    <inkscape:path-effect
       is_visible="true"
       id="path-effect4160-5"
       effect="spiro" />
    <inkscape:path-effect
       is_visible="true"
       id="path-effect4170-1"
       effect="spiro" />
    <inkscape:path-effect
       is_visible="true"
       id="path-effect4174-1"
       effect="spiro" />
    <inkscape:path-effect
       is_visible="true"
       id="path-effect4238-7"
       effect="spiro" />
    <inkscape:path-effect
       is_visible="true"
       id="path-effect4242-1"
       effect="spiro" />
    <inkscape:path-effect
       is_visible="true"
       id="path-effect4261-5"
       effect="spiro" />
    <inkscape:path-effect
       is_visible="true"
       id="path-effect4266-5"
       effect="spiro" />
    <inkscape:path-effect
       is_visible="true"
       id="path-effect4300-4"
       effect="spiro" />
    <inkscape:path-effect
       is_visible="true"
       id="path-effect4304-2"
       effect="spiro" />
  </defs>
  <sodipodi:namedview
     id="base"
     pagecolor="#ffffff"
     bordercolor="#666666"
     borderopacity="1.0"
     inkscape:pageopacity="0.0"
     inkscape:pageshadow="2"
     inkscape:zoom="2.8"
     inkscape:cx="0.10695909"
     inkscape:cy="75.124673"
     inkscape:document-units="mm"
     inkscape:current-layer="layer1"
     showgrid="false"
     inkscape:window-width="1920"
     inkscape:window-height="1027"
     inkscape:window-x="1272"
     inkscape:window-y="284"
     inkscape:window-maximized="1"
     units="mm" />
  <metadata
     id="metadata5">
    <rdf:RDF>
      <cc:Work
         rdf:about="">
        <dc:format>image/svg+xml</dc:format>
        <dc:type
           rdf:resource="http://purl.org/dc/dcmitype/StillImage" />
        <dc:title></dc:title>
      </cc:Work>
    </rdf:RDF>
  </metadata>
  <g
     inkscape:label="Layer 1"
     inkscape:groupmode="layer"
     id="layer1"
     transform="translate(0,-257)">
    <path
       style="fill:#d45100;fill-opacity:1;stroke:#ffffff;stroke-width:0.87906247000000004;stroke-miterlimit:4;stroke-opacity:1;stroke-dasharray:none"
       d="m 19.780583,296.53472 c 0,0 -14.152422,-13.26004 -14.152422,-24.01516 0,-10.75513 7.825889,-15.05428 14.152422,-15.05428 6.326535,0 14.591257,4.0646 14.591257,15.05428 0,10.98967 -14.591257,24.01516 -14.591257,24.01516 z"
       id="path4747"
       inkscape:connector-curvature="0"
       sodipodi:nodetypes="czzzc" />
    <ellipse
       style="fill:#ffffff;fill-opacity:1;stroke:none;stroke-width:2.84264471000000010;stroke-miterlimit:4;stroke-opacity:1;stroke-dasharray:none"
       id="ellipse4749"
       cx="70.268692"
       cy="169.42744"
       rx="15.004569"
       ry="14.967523"
       sodipodi:cx="70.268692"
       sodipodi:cy="169.42744"
       sodipodi:rx="15.004569"
       sodipodi:ry="14.967523"
       d="m 85.273261,169.42744 c 0,8.26634 -6.717774,14.96753 -15.004569,14.96753 -8.286795,0 -15.004569,-6.70119 -15.004569,-14.96753 0,-8.26633 6.717774,-14.96752 15.004569,-14.96752 8.286795,0 15.004569,6.70119 15.004569,14.96752 z"
       transform="matrix(0.66592917,0,0,0.66592917,-26.793971,159.01813)" />
    <g
       transform="matrix(0.06857231,0,0,0.06857231,2.9659114,253.4701)"
       id="g3" />
    <g
       transform="matrix(0.06857231,0,0,0.06857231,2.9659114,252.96613)"
       id="g13" />
    <g
       transform="matrix(0.06857231,0,0,0.06857231,2.9659114,252.96613)"
       id="g15" />
    <g
       transform="matrix(0.06857231,0,0,0.06857231,2.9659114,252.96613)"
       id="g17" />
    <g
       transform="matrix(0.06857231,0,0,0.06857231,2.9659114,252.96613)"
       id="g19" />
    <g
       transform="matrix(0.06857231,0,0,0.06857231,2.9659114,252.96613)"
       id="g21" />
    <g
       transform="matrix(0.06857231,0,0,0.06857231,2.9659114,252.96613)"
       id="g23" />
    <g
       transform="matrix(0.06857231,0,0,0.06857231,2.9659114,252.96613)"
       id="g25" />
    <g
       transform="matrix(0.06857231,0,0,0.06857231,2.9659114,252.96613)"
       id="g27" />
    <g
       transform="matrix(0.06857231,0,0,0.06857231,2.9659114,252.96613)"
       id="g29" />
    <g
       transform="matrix(0.06857231,0,0,0.06857231,2.9659114,252.96613)"
       id="g31" />
    <g
       transform="matrix(0.06857231,0,0,0.06857231,2.9659114,252.96613)"
       id="g33" />
    <g
       transform="matrix(0.06857231,0,0,0.06857231,2.9659114,252.96613)"
       id="g35" />
    <g
       transform="matrix(0.06857231,0,0,0.06857231,2.9659114,252.96613)"
       id="g37" />
    <g
       transform="matrix(0.06857231,0,0,0.06857231,2.9659114,252.96613)"
       id="g39" />
    <g
       transform="matrix(0.06857231,0,0,0.06857231,2.9659114,252.96613)"
       id="g41" />
    <g
       transform="matrix(0.17518776,0,0,0.17518776,13.727376,93.256475)"
       id="layer1-6"
       inkscape:label="Layer 1">
      <path
         id="path4302"
         transform="translate(0,981.49606)"
         d="m 31.873047,1.0585938 0,0.00195 C 22.41041,1.0811469 12.958604,3.1429463 4.3476562,7.0664062 l 0,1.71875 0,8.2499998 c -1.0770227,0.61798 -1.9870951,1.52511 -2.609375,2.59961 -0.6222891,1.0747 -0.95507808,2.312987 -0.95507808,3.554687 0,1.2418 0.33278898,2.483994 0.95507808,3.558594 0.6222798,1.0745 1.5323523,1.979556 2.609375,2.597656 l 0,27.361328 c -0.05412,0.4472 0.014296,0.908613 0.1972657,1.320313 0.2659128,0.5983 0.7761958,1.083812 1.3867187,1.320312 l 3.0351563,0 -0.1308594,4.886719 c 0.1841273,0.8691 0.6730454,1.669216 1.3632815,2.228516 0.690238,0.5593 1.57838,0.871093 2.466797,0.871093 0.888416,0 1.772652,-0.311793 2.46289,-0.871093 0.690236,-0.5593 1.179163,-1.359416 1.363282,-2.228516 l 0,-4.492187 8.15039,0 0,-9.888672 -3.382812,0 0,-3.058594 c -0.07664,-0.5603 -0.391371,-1.082763 -0.84961,-1.414063 -0.374429,-0.2705 -0.840997,-0.414637 -1.302734,-0.398437 l 0.226562,-4.978516 c 0.0079,-0.1742 0.02208,-0.351878 0.07617,-0.517578 0.05412,-0.1657 0.147354,-0.317312 0.265625,-0.445312 0.154578,-0.1674 0.351244,-0.296235 0.56836,-0.365235 0.217116,-0.069 0.452899,-0.0802 0.675781,-0.0332 l 3.169922,0.113281 3.96289,-2.605468 -0.226562,2.605468 31.574219,0 0,-9.015625 c 1.074991,-0.6035 1.984609,-1.4986 2.607421,-2.5625 0.622803,-1.064 0.957032,-2.294443 0.957032,-3.527343 0,-1.2329 -0.334229,-2.465297 -0.957032,-3.529297 -0.622812,-1.0639 -1.53243,-1.956927 -2.607421,-2.560547 l 0,-10.6289064 C 50.779387,3.0534006 41.326185,1.0379637 31.873047,1.0585938 z m -16.171875,5.875 30.498047,0 0,4.4902342 -30.498047,0 0,-4.4902342 z m -5.150391,7.2617182 40.664063,0 0,20.994141 -40.664063,0 0,-20.994141 z m 5.613281,31.685547 a 4.2907248,4.2907248 0 0 1 4.289063,4.291016 4.2907248,4.2907248 0 0 1 -4.289063,4.291016 4.2907248,4.2907248 0 0 1 -4.292968,-4.291016 4.2907248,4.2907248 0 0 1 4.292968,-4.291016 z"
         style="fill:#000000;fill-opacity:1;fill-rule:evenodd;stroke:#000000;stroke-width:0.1306954px;stroke-linecap:butt;stroke-linejoin:miter;stroke-opacity:1"
         inkscape:connector-curvature="0" />
      <g
         id="g4536"
         inkscape:label="Layer 1"
         transform="matrix(-0.60762218,0,0,0.60762218,70.468312,419.0009)">
        <path
           inkscape:connector-curvature="0"
           id="path4538"
           d="m 59.357505,992.72021 0.278815,3.2078 -52.0188255,0 c -0.3897071,0 -0.7797826,-0.012 -1.1686478,0.02 -0.3888676,0.025 -0.7825377,0.088 -1.1325149,0.2591 -0.5417203,0.2654 -0.9429028,0.8003 -1.0459572,1.3946 l 1.3946096,10.59899 c 1.3697921,0.1704 2.6584428,0.9179 3.4865274,2.0224 0.8122399,1.0832 1.1718664,2.4954 0.9763894,3.8352 l -9.7622762,20.7795 c -0.22912196,0.7708 -0.20445863,1.615 0.0695653,2.371 0.29261449,0.8073 0.8687769,1.5084 1.6038568,1.9523 l 19.0364921,3.1379 1.04596,-3.2075 c -0.76676,-0.2882 -1.380498,-0.9552 -1.603857,-1.7433 -0.182921,-0.6454 -0.106253,-1.3605 0.209245,-1.9526 l 6.136074,-14.5039 17.014413,-0.1394 c 0.232378,0 0.466314,-0.012 0.692183,-0.065 0.225866,-0.054 0.440887,-0.1525 0.63259,-0.2839 0.524542,-0.3594 0.869177,-0.9691 0.906552,-1.6039 l -0.139409,-6.8334 c 0.02892,-0.6955 0.367194,-1.3725 0.906282,-1.8131 0.447409,-0.3656 1.026167,-0.5668 1.603858,-0.5578 l 19.245468,0 0,-3.7655 c 0.09441,-0.69 0.481508,-1.3351 1.045961,-1.7431 0.461219,-0.3334 1.035091,-0.5081 1.603854,-0.4881 l -0.278812,-6.13629 c -0.0097,-0.2146 -0.02666,-0.4313 -0.09329,-0.6353 -0.06666,-0.2042 -0.179512,-0.3924 -0.325195,-0.5501 -0.190407,-0.2063 -0.43499,-0.3618 -0.702427,-0.4469 -0.267444,-0.085 -0.557048,-0.1 -0.831591,-0.042 l -3.905021,0.1394 -4.880868,-3.2077 z m -26.009548,17.22349 7.949176,0 c 0.652552,0.012 1.298033,0.29 1.743263,0.7671 0.338743,0.3629 0.561452,0.8328 0.627737,1.3247 l -0.06984,4.3932 c -0.141842,0.437 -0.396271,0.8369 -0.73209,1.1505 -0.478798,0.4471 -1.123254,0.7124 -1.778047,0.7321 l -9.762278,0.1395 c -0.671884,-0.3596 -1.248216,-0.8957 -1.655359,-1.5398 -0.407142,-0.6441 -0.644126,-1.3947 -0.680586,-2.1558 -0.06914,-1.4433 0.61954,-2.902 1.778047,-3.7657 0.07379,1.0444 0.285276,2.079 0.627467,3.0685 0.340736,0.985 0.810909,1.9254 1.394611,2.7891 l 1.325041,-0.3486 c -0.624181,-1.0349 -1.009025,-2.2132 -1.115795,-3.417 -0.0936,-1.0553 0.0257,-2.1289 0.348651,-3.1378 z"
           style="fill:#000000;fill-opacity:1;fill-rule:evenodd;stroke:#000000;stroke-width:0.13805892px;stroke-linecap:butt;stroke-linejoin:miter;stroke-opacity:1" />
      </g>
    </g>
  </g>
</svg>
