<?xml version="1.0" encoding="UTF-8" standalone="no"?>
<!-- Created with Inkscape (http://www.inkscape.org/) -->

<svg
   xmlns:dc="http://purl.org/dc/elements/1.1/"
   xmlns:cc="http://creativecommons.org/ns#"
   xmlns:rdf="http://www.w3.org/1999/02/22-rdf-syntax-ns#"
   xmlns:svg="http://www.w3.org/2000/svg"
   xmlns="http://www.w3.org/2000/svg"
   xmlns:sodipodi="http://sodipodi.sourceforge.net/DTD/sodipodi-0.dtd"
   xmlns:inkscape="http://www.inkscape.org/namespaces/inkscape"
   width="200"
   height="200"
   viewBox="0 0 200 200"
   id="svg2"
   version="1.1"
   inkscape:version="0.91 r13725"
   sodipodi:docname="new_icon.svg">
  <defs
     id="defs4">
    <inkscape:path-effect
       is_visible="true"
       id="path-effect4251"
       effect="spiro" />
    <inkscape:path-effect
       is_visible="true"
       id="path-effect4247"
       effect="spiro" />
    <inkscape:path-effect
       is_visible="true"
       id="path-effect4243"
       effect="spiro" />
    <inkscape:path-effect
       is_visible="true"
       id="path-effect4239"
       effect="spiro" />
    <inkscape:path-effect
       is_visible="true"
       id="path-effect4169"
       effect="spiro" />
    <inkscape:path-effect
       is_visible="true"
       id="path-effect4145"
       effect="spiro" />
    <inkscape:path-effect
       is_visible="true"
       id="path-effect4141"
       effect="spiro" />
    <inkscape:path-effect
       is_visible="true"
       id="path-effect4151"
       effect="spiro" />
    <inkscape:path-effect
       is_visible="true"
       id="path-effect4147"
       effect="spiro" />
    <inkscape:path-effect
       is_visible="true"
       id="path-effect4142"
       effect="spiro" />
    <inkscape:path-effect
       is_visible="true"
       id="path-effect4145-9"
       effect="spiro" />
    <inkscape:path-effect
       is_visible="true"
       id="path-effect4141-7"
       effect="spiro" />
    <inkscape:path-effect
       is_visible="true"
       id="path-effect4151-4"
       effect="spiro" />
    <inkscape:path-effect
       is_visible="true"
       id="path-effect4147-1"
       effect="spiro" />
    <inkscape:path-effect
       is_visible="true"
       id="path-effect4142-1"
       effect="spiro" />
  </defs>
  <sodipodi:namedview
     id="base"
     pagecolor="#ffffff"
     bordercolor="#666666"
     borderopacity="1.0"
     inkscape:pageopacity="0.0"
     inkscape:pageshadow="2"
     inkscape:zoom="2.56"
     inkscape:cx="112.81768"
     inkscape:cy="118.26216"
     inkscape:document-units="px"
     inkscape:current-layer="layer1"
     showgrid="false"
     inkscape:window-width="1280"
     inkscape:window-height="719"
     inkscape:window-x="0"
     inkscape:window-y="1"
     inkscape:window-maximized="1"
     units="px" />
  <metadata
     id="metadata7">
    <rdf:RDF>
      <cc:Work
         rdf:about="">
        <dc:format>image/svg+xml</dc:format>
        <dc:type
           rdf:resource="http://purl.org/dc/dcmitype/StillImage" />
        <dc:title></dc:title>
      </cc:Work>
    </rdf:RDF>
  </metadata>
  <g
     inkscape:label="Layer 1"
     inkscape:groupmode="layer"
     id="layer1"
     transform="translate(0,-852.36216)">
    <text
       xml:space="preserve"
       style="font-style:normal;font-weight:normal;font-size:27.5px;line-height:125%;font-family:sans-serif;letter-spacing:0px;word-spacing:0px;fill:#000000;fill-opacity:1;stroke:none;stroke-width:1px;stroke-linecap:butt;stroke-linejoin:miter;stroke-opacity:1"
       x="-333.66602"
       y="133.1234"
       id="text4230"
       sodipodi:linespacing="125%"><tspan
         sodipodi:role="line"
         id="tspan4232"
         x="-333.66602"
         y="133.1234" /></text>
    <path
       style="opacity:1;fill:#efebe8;fill-opacity:1;fill-rule:nonzero;stroke:none;stroke-width:0;stroke-linecap:round;stroke-linejoin:round;stroke-miterlimit:4;stroke-dasharray:none;stroke-dashoffset:0;stroke-opacity:1"
       d="M 0 0.0546875 L 0 200 L 199.9707 200 L 199.9707 111.55273 L 154.67969 111.55273 A 2.1502151 2.1502151 0 0 1 153.16016 110.92383 L 116.77734 74.541016 L 64.082031 74.541016 A 2.1502151 2.1502151 0 0 1 61.931641 72.390625 L 61.931641 38.140625 A 2.1502151 2.1502151 0 0 1 64.082031 35.990234 L 97.779297 35.990234 A 2.1502151 2.1502151 0 0 1 99.929688 38.140625 L 99.929688 68.115234 L 128.63867 51.539062 L 128.63867 21.507812 L 92.808594 21.507812 A 2.15039 2.15039 0 1 1 92.808594 17.207031 L 130.78906 17.207031 L 166.83398 17.207031 A 2.1502151 2.1502151 0 0 1 168.98242 19.357422 L 168.98242 70.732422 A 2.1502151 2.1502151 0 0 1 168.35352 72.253906 L 146.88867 93.71875 L 182.97461 93.71875 L 199.9707 44.039062 L 199.9707 0.0546875 L 0 0.0546875 z M 132.93945 21.507812 L 132.93945 52.779297 A 2.1502151 2.1502151 0 0 1 131.86328 54.642578 L 104.84766 70.240234 L 117.66602 70.240234 A 2.1502151 2.1502151 0 0 1 119.1875 70.869141 L 141.42188 93.103516 L 164.68359 69.841797 L 164.68359 21.507812 L 132.93945 21.507812 z M 66.232422 40.289062 L 66.232422 70.240234 L 95.628906 70.240234 L 95.628906 40.289062 L 66.232422 40.289062 z M 199.9707 57.322266 L 186.54492 96.564453 A 2.1502151 2.1502151 0 0 1 184.50977 98.017578 L 146.33594 98.017578 L 155.57031 107.25195 L 199.9707 107.25195 L 199.9707 57.322266 z "
       transform="translate(0,852.36216)"
       id="rect4619" />
    <path
       style="color:#000000;font-style:normal;font-variant:normal;font-weight:normal;font-stretch:normal;font-size:medium;line-height:normal;font-family:sans-serif;text-indent:0;text-align:start;text-decoration:none;text-decoration-line:none;text-decoration-style:solid;text-decoration-color:#000000;letter-spacing:normal;word-spacing:normal;text-transform:none;direction:ltr;block-progression:tb;writing-mode:lr-tb;baseline-shift:baseline;text-anchor:start;white-space:normal;clip-rule:nonzero;display:inline;overflow:visible;visibility:visible;opacity:1;isolation:auto;mix-blend-mode:normal;color-interpolation:sRGB;color-interpolation-filters:linearRGB;solid-color:#000000;solid-opacity:1;fill:#575757;fill-opacity:1;fill-rule:evenodd;stroke:none;stroke-width:40;stroke-linecap:round;stroke-linejoin:round;stroke-miterlimit:4;stroke-dasharray:none;stroke-dashoffset:0;stroke-opacity:1;color-rendering:auto;image-rendering:auto;shape-rendering:auto;text-rendering:auto;enable-background:accumulate"
       d="m 1.0058591,853.77932 c 6.3869982,25.3648 -0.45327728,79.20365 -0.45327728,118.04101 l 12.59390218,0 0,80.54097 186.240236,0.8594 1.64258,-31.4063 -84.13477,-84.13667 c -3.75103,-3.75049 -8.8382,-5.85744 -14.14258,-5.85742 l -49.605466,0 0,-79.33594 c -41.750499,0 -38.834845,0.47857 -52.1406249,1.29495 z m 12.1406249,-0.79104 0,78.83203 c -0.349011,-28.64453 -1.198739,-54.69899 0,-78.83203 z m 40,118.83203 41.320313,0 60.541013,60.54099 -101.861326,0 z"
       id="path4623"
       inkscape:connector-curvature="0"
       sodipodi:nodetypes="cccccccsccccccccccc" />
    <path
       style="color:#000000;font-style:normal;font-variant:normal;font-weight:normal;font-stretch:normal;font-size:medium;line-height:normal;font-family:sans-serif;text-indent:0;text-align:start;text-decoration:none;text-decoration-line:none;text-decoration-style:solid;text-decoration-color:#000000;letter-spacing:normal;word-spacing:normal;text-transform:none;direction:ltr;block-progression:tb;writing-mode:lr-tb;baseline-shift:baseline;text-anchor:start;white-space:normal;clip-rule:nonzero;display:inline;overflow:visible;visibility:visible;opacity:1;isolation:auto;mix-blend-mode:normal;color-interpolation:sRGB;color-interpolation-filters:linearRGB;solid-color:#000000;solid-opacity:1;fill:#8d8d8d;fill-opacity:1;fill-rule:evenodd;stroke:none;stroke-width:30;stroke-linecap:round;stroke-linejoin:round;stroke-miterlimit:4;stroke-dasharray:none;stroke-dashoffset:0;stroke-opacity:1;color-rendering:auto;image-rendering:auto;shape-rendering:auto;text-rendering:auto;enable-background:accumulate"
       d="M 0.58306277,852.7929 C 0.58306277,875.5471 0,940.10724 0,966.82114 l 18.146484,0 0,85.54106 c 13.811507,0 13.894779,-0.029 24.24334,-0.029 l 157.580876,0.1847 0.1582,-24.4375 -86.76952,-86.86718 c -2.81348,-2.81281 -6.62905,-4.39285 -10.60743,-4.39258 l -54.605466,0 0,-84.40429 c -10.411302,0 -38.02187,0.37605 -47.56342123,0.37605 z M 15,867.41685 l 3.146484,0 0,69.40429 -3.146484,0 z m 33.146484,99.40429 48.392578,0 70.541018,70.54106 -118.933596,0 z"
       id="path4621"
       inkscape:connector-curvature="0"
       sodipodi:nodetypes="ccccccccccccccccccccccc" />
    <path
       style="color:#000000;font-style:normal;font-variant:normal;font-weight:normal;font-stretch:normal;font-size:medium;line-height:normal;font-family:sans-serif;text-indent:0;text-align:start;text-decoration:none;text-decoration-line:none;text-decoration-style:solid;text-decoration-color:#000000;letter-spacing:normal;word-spacing:normal;text-transform:none;direction:ltr;block-progression:tb;writing-mode:lr-tb;baseline-shift:baseline;text-anchor:start;white-space:normal;clip-rule:nonzero;display:inline;overflow:visible;visibility:visible;opacity:1;isolation:auto;mix-blend-mode:normal;color-interpolation:sRGB;color-interpolation-filters:linearRGB;solid-color:#000000;solid-opacity:1;fill:#ffffff;fill-opacity:1;fill-rule:evenodd;stroke:none;stroke-width:5;stroke-linecap:round;stroke-linejoin:round;stroke-miterlimit:4;stroke-dasharray:5, 30;stroke-dashoffset:0;stroke-opacity:1;color-rendering:auto;image-rendering:auto;shape-rendering:auto;text-rendering:auto;enable-background:accumulate"
       d="m 31.205078,864.81641 -0.558594,1.57421 0,5 0.792969,1.82813 1.878906,0.66602 1.769532,-0.91797 0.558593,-1.57618 0,-5 -0.794922,-1.82812 -1.878906,-0.66602 z m 0,35 -0.558594,1.57421 0,5 0.792969,1.82813 1.878906,0.66602 1.769532,-0.91797 0.558593,-1.57618 0,-5 -0.794922,-1.82812 -1.878906,-0.66602 z m 0,35 -0.558594,1.57421 0,5 0.792969,1.82813 1.878906,0.66602 1.769532,-0.91797 0.558593,-1.57618 0,-5 -0.794922,-1.82812 -1.878906,-0.66602 z m -30.61080466,15.41966 -0.18459497,1.06754 -0.0295623,1.26694 0.67652453,1.74976 5,0 1.828125,-0.79492 0.6660156,-1.87695 -0.9179687,-1.76953 -1.5761719,-0.5586 -5,0 z m 33.63619566,-0.12084 -0.667969,1.87891 0.919922,1.76758 1.574219,0.55859 5,0 1.828125,-0.79492 0.666015,-1.87695 -0.917969,-1.76953 -1.576171,-0.5586 -5,0 z m 35,0 -0.667969,1.87891 0.919922,1.76758 1.574219,0.55859 5,0 1.828125,-0.79492 0.666015,-1.87695 -0.917969,-1.76953 -1.576171,-0.5586 -5,0 z m 33.972651,2.40235 -0.5996,1.90039 0.71875,1.50781 3.53515,3.53516 1.85352,0.73047 1.79883,-0.85743 0.60156,-1.89843 -0.71875,-1.50977 -3.53516,-3.53516 -1.85547,-0.73046 z m -71.998042,17.29883 -0.558594,1.57421 0,5 0.792969,1.82813 1.878906,0.66602 1.769532,-0.91797 0.558593,-1.57618 0,-5 -0.794922,-1.82812 -1.878906,-0.66602 z m 96.746092,7.44921 -0.59961,1.9004 0.71875,1.50781 3.53516,3.53711 1.85351,0.73047 1.80079,-0.85743 0.59961,-1.90039 -0.71876,-1.50976 -3.53515,-3.53516 -1.85352,-0.73047 z m 24.75,24.74808 -0.60156,1.9004 0.71875,1.5097 3.53516,3.5352 1.85546,0.7305 1.79883,-0.8575 0.60157,-1.9004 -0.71876,-1.5078 -3.5371,-3.5351 -1.85352,-0.7325 z m -121.496092,2.8027 -0.558594,1.5742 0,5 0.792969,1.8282 1.878906,0.666 1.769532,-0.918 0.558593,-1.5762 0,-5 -0.794922,-1.8281 -1.878906,-0.666 z m 146.244142,21.9473 -0.59961,1.9004 0.71875,1.5078 3.53516,3.5351 1.85351,0.7305 1.79883,-0.8555 0.60156,-1.9004 -0.71875,-1.5097 -3.53515,-3.5352 -1.85547,-0.7305 z m -146.244142,13.0527 -0.558594,1.5742 0,5 0.792969,1.8282 1.878906,0.666 1.769532,-0.918 0.558593,-1.5762 0,-5 -0.794922,-1.8281 -1.878906,-0.666 z"
       id="path4625"
       inkscape:connector-curvature="0"
       sodipodi:nodetypes="ccccccccccccccccccccccccccccccccccccccccccccccccccccccccccccccccccccccccccccccccccccccccccccccccccccccccccccccccccccccccccccccccccccccccccccccc" />
    <rect
       ry="1.8779449"
       y="975.36163"
       x="58.393311"
       height="24.306641"
       width="33.539143"
       id="rect4627"
       style="opacity:1;fill:#bcaba3;fill-opacity:1;fill-rule:nonzero;stroke:none;stroke-width:10;stroke-linecap:round;stroke-linejoin:round;stroke-miterlimit:4;stroke-dasharray:none;stroke-dashoffset:0;stroke-opacity:1" />
    <rect
       style="opacity:1;fill:#bcaba3;fill-opacity:1;fill-rule:nonzero;stroke:none;stroke-width:10;stroke-linecap:round;stroke-linejoin:round;stroke-miterlimit:4;stroke-dasharray:none;stroke-dashoffset:0;stroke-opacity:1"
       id="rect4629"
       width="16.966328"
       height="24.306641"
       x="56.183601"
       y="857.69464"
       ry="1.8779449" />
    <rect
       ry="1.8779449"
       y="817.60565"
       x="-566.79083"
       height="24.306641"
       width="16.966328"
       id="rect4631"
       style="opacity:1;fill:#bcaba3;fill-opacity:1;fill-rule:nonzero;stroke:none;stroke-width:10;stroke-linecap:round;stroke-linejoin:round;stroke-miterlimit:4;stroke-dasharray:none;stroke-dashoffset:0;stroke-opacity:1"
       transform="matrix(0.71516935,-0.69895121,0.69895121,0.71516935,0,0)" />
    <path
       style="fill:#00bcd5;fill-opacity:1;fill-rule:evenodd;stroke:#000000;stroke-width:0;stroke-linecap:butt;stroke-linejoin:miter;stroke-miterlimit:4;stroke-dasharray:none;stroke-opacity:1"
       d="m 88.940775,856.80294 c 0.552427,2.76214 -1.657282,7.73398 7.181553,8.28641 8.838832,0.55243 42.536892,-2.76214 60.766992,-1.10486 18.23009,1.65729 25.41165,6.0767 23.20194,14.36311 -2.20971,8.28641 -7.73398,19.88738 -6.0767,29.27864 1.65728,9.39126 7.18155,13.25825 11.04854,6.62913 3.86699,-6.62913 14.62545,-20.92809 15.17787,-23.69022 -0.79097,-10.54489 -0.14998,-26.1348 0.0139,-37.90541 -3.86699,0 -111.590289,-0.13811 -111.590289,-0.13811 z"
       id="path4640"
       inkscape:connector-curvature="0"
       sodipodi:nodetypes="cssssscccc" />
    <path
       style="fill:#6cc642;fill-rule:evenodd;stroke:#000000;stroke-width:0;stroke-linecap:butt;stroke-linejoin:miter;stroke-opacity:1;fill-opacity:1;stroke-miterlimit:4;stroke-dasharray:none"
       d="m 59.375,1004.7059 0,23.8281 76.95313,0 -25.58594,-25.5859 -51.757815,0 z"
       id="path4642"
       inkscape:connector-curvature="0" />
    <g
       id="g4667"
       transform="matrix(0.78127666,0,0,0.78127666,21.760785,214.71647)">
      <g
         id="g4655"
         transform="matrix(0.7620363,0,0,0.7620363,359.45491,1682.1996)"
         style="fill:#ffffff;fill-opacity:1;stroke:none;stroke-opacity:0.90277782">
        <g
           style="fill:#ffffff;fill-opacity:1;stroke:none;stroke-opacity:0.90277782"
           transform="matrix(0.176319,0,0,0.176319,-364.25503,-1073.2721)"
           inkscape:label="Layer 1"
           id="g4657">
          <path
             style="fill:#ffffff;fill-opacity:1;fill-rule:evenodd;stroke:none;stroke-width:38.00531387;stroke-linecap:butt;stroke-linejoin:miter;stroke-miterlimit:4;stroke-dasharray:none;stroke-opacity:0.90277782"
             d="m 373.50524,1019.6271 c 0,0 -348.772053,-442.29242 -348.772053,-609.0357 0,-242.37759 130.907583,-390.908817 356.946413,-387.816461 226.03881,3.092356 337.87294,142.240161 337.87294,387.816461 0,165.24894 -346.0473,609.0357 -346.0473,609.0357 z"
             id="path4659"
             inkscape:connector-curvature="0"
             sodipodi:nodetypes="cczcc" />
        </g>
        <g
           transform="translate(-5.078125,-10.546875)"
           id="g4661"
           style="fill:#ffffff;fill-opacity:1;stroke:none;stroke-opacity:0.90277782">
          <path
             style="fill:#ffffff;fill-opacity:1;fill-rule:evenodd;stroke:none;stroke-width:1px;stroke-linecap:butt;stroke-linejoin:miter;stroke-opacity:0.90277782"
             d="m -308.59375,-1035.5284 30.07812,0 -11.38841,67.54416 -6.7009,-0.0339 z"
             id="path4663"
             inkscape:connector-curvature="0"
             sodipodi:nodetypes="ccccc" />
          <circle
             style="opacity:1;fill:#ffffff;fill-opacity:1;fill-rule:nonzero;stroke:none;stroke-width:0;stroke-linecap:round;stroke-linejoin:round;stroke-miterlimit:4;stroke-dasharray:none;stroke-dashoffset:0;stroke-opacity:0.90277782"
             id="circle4665"
             cx="-291.79688"
             cy="-951.15344"
             r="8.984375" />
        </g>
      </g>
      <g
         style="stroke:none;stroke-opacity:0.90277782"
         transform="matrix(0.6731429,0,0,0.6731429,332.54082,1592.6178)"
         id="g4593">
        <g
           id="layer1-8"
           inkscape:label="Layer 1"
           transform="matrix(0.176319,0,0,0.176319,-364.25503,-1073.2721)"
           style="stroke:none;stroke-opacity:0.90277782">
          <path
             sodipodi:nodetypes="cczcc"
             inkscape:connector-curvature="0"
             id="path4143"
             d="m 373.50524,1019.6271 c 0,0 -348.772053,-442.29242 -348.772053,-609.0357 0,-242.37759 130.907583,-390.908817 356.946413,-387.816461 226.03881,3.092356 337.87294,142.240161 337.87294,387.816461 0,165.24894 -346.0473,609.0357 -346.0473,609.0357 z"
             style="fill:#ff3535;fill-opacity:1;fill-rule:evenodd;stroke:none;stroke-width:38.00531387;stroke-linecap:butt;stroke-linejoin:miter;stroke-miterlimit:4;stroke-dasharray:none;stroke-opacity:0.90277782" />
        </g>
        <g
           style="stroke:none;stroke-opacity:0.90277782"
           id="g4589"
           transform="translate(-5.078125,-10.546875)">
          <path
             sodipodi:nodetypes="ccccc"
             inkscape:connector-curvature="0"
             id="path4585"
             d="m -308.59375,-1035.5284 30.07812,0 -11.38841,67.54416 -6.7009,-0.0339 z"
             style="fill:#ffffff;fill-opacity:1;fill-rule:evenodd;stroke:none;stroke-width:1px;stroke-linecap:butt;stroke-linejoin:miter;stroke-opacity:0.90277782" />
          <circle
             r="8.984375"
             cy="-951.15344"
             cx="-291.79688"
             id="path4587"
             style="opacity:1;fill:#ffffff;fill-opacity:1;fill-rule:nonzero;stroke:none;stroke-width:0;stroke-linecap:round;stroke-linejoin:round;stroke-miterlimit:4;stroke-dasharray:none;stroke-dashoffset:0;stroke-opacity:0.90277782" />
        </g>
      </g>
    </g>
  </g>
</svg>
