<?xml version="1.0" encoding="UTF-8" standalone="no"?>
<svg
   xmlns:dc="http://purl.org/dc/elements/1.1/"
   xmlns:cc="http://creativecommons.org/ns#"
   xmlns:rdf="http://www.w3.org/1999/02/22-rdf-syntax-ns#"
   xmlns:svg="http://www.w3.org/2000/svg"
   xmlns="http://www.w3.org/2000/svg"
   xmlns:sodipodi="http://sodipodi.sourceforge.net/DTD/sodipodi-0.dtd"
   xmlns:inkscape="http://www.inkscape.org/namespaces/inkscape"
   sodipodi:docname="new_icon_notification_none.svg"
   inkscape:version="1.0 (4035a4fb49, 2020-05-01)"
   version="1.1"
   id="svg2"
   viewBox="0 0 200 200"
   height="200"
   width="200">
  <defs
     id="defs4">
    <inkscape:path-effect
       effect="spiro"
       id="path-effect4251"
       is_visible="true" />
    <inkscape:path-effect
       effect="spiro"
       id="path-effect4247"
       is_visible="true" />
    <inkscape:path-effect
       effect="spiro"
       id="path-effect4243"
       is_visible="true" />
    <inkscape:path-effect
       effect="spiro"
       id="path-effect4239"
       is_visible="true" />
    <inkscape:path-effect
       effect="spiro"
       id="path-effect4169"
       is_visible="true" />
    <inkscape:path-effect
       effect="spiro"
       id="path-effect4145"
       is_visible="true" />
    <inkscape:path-effect
       effect="spiro"
       id="path-effect4141"
       is_visible="true" />
    <inkscape:path-effect
       effect="spiro"
       id="path-effect4151"
       is_visible="true" />
    <inkscape:path-effect
       effect="spiro"
       id="path-effect4147"
       is_visible="true" />
    <inkscape:path-effect
       effect="spiro"
       id="path-effect4142"
       is_visible="true" />
    <inkscape:path-effect
       effect="spiro"
       id="path-effect4145-9"
       is_visible="true" />
    <inkscape:path-effect
       effect="spiro"
       id="path-effect4141-7"
       is_visible="true" />
    <inkscape:path-effect
       effect="spiro"
       id="path-effect4151-4"
       is_visible="true" />
    <inkscape:path-effect
       effect="spiro"
       id="path-effect4147-1"
       is_visible="true" />
    <inkscape:path-effect
       effect="spiro"
       id="path-effect4142-1"
       is_visible="true" />
  </defs>
  <sodipodi:namedview
     inkscape:document-rotation="0"
     units="px"
     inkscape:window-maximized="1"
     inkscape:window-y="284"
     inkscape:window-x="1272"
     inkscape:window-height="1027"
     inkscape:window-width="1920"
     showgrid="false"
     inkscape:current-layer="layer1"
     inkscape:document-units="px"
     inkscape:cy="113.42049"
     inkscape:cx="26.362687"
     inkscape:zoom="1.8101934"
     inkscape:pageshadow="2"
     inkscape:pageopacity="0.0"
     borderopacity="1.0"
     bordercolor="#666666"
     pagecolor="#ffffff"
     id="base" />
  <metadata
     id="metadata7">
    <rdf:RDF>
      <cc:Work
         rdf:about="">
        <dc:format>image/svg+xml</dc:format>
        <dc:type
           rdf:resource="http://purl.org/dc/dcmitype/StillImage" />
        <dc:title></dc:title>
      </cc:Work>
    </rdf:RDF>
  </metadata>
  <g
     transform="translate(0,-852.36216)"
     id="layer1"
     inkscape:groupmode="layer"
     inkscape:label="Layer 1">
    <text
       id="text4230"
       y="133.1234"
       x="-333.66602"
       style="font-style:normal;font-weight:normal;line-height:0%;font-family:sans-serif;letter-spacing:0px;word-spacing:0px;fill:#000000;fill-opacity:1;stroke:none;stroke-width:1px;stroke-linecap:butt;stroke-linejoin:miter;stroke-opacity:1"
       xml:space="preserve"><tspan
         style="font-size:27.5px;line-height:1.25"
         y="133.1234"
         x="-333.66602"
         id="tspan4232"
         sodipodi:role="line"> </tspan></text>
    <path
       transform="translate(0,852.36216)"
       d="M 100.09766 14.880859 A 82.705078 85.33493 0 0 0 20.498047 100.15625 A 82.705078 85.33493 0 0 0 97.679688 185.29883 L 108.74219 185.29883 A 82.705078 85.33493 0 0 0 185.2832 110.61523 L 185.2832 109.91406 L 146.68164 109.91406 A 1.8326768 1.8326768 0 0 1 145.38477 109.37891 L 114.375 78.367188 L 69.462891 78.367188 A 1.8326768 1.8326768 0 0 1 67.628906 76.535156 L 67.628906 47.34375 A 1.8326768 1.8326768 0 0 1 69.462891 45.509766 L 98.183594 45.509766 A 1.8326768 1.8326768 0 0 1 100.01562 47.34375 L 100.01562 72.890625 L 124.48633 58.763672 L 124.48633 33.166016 L 93.947266 33.166016 A 1.83283 1.83283 0 1 1 93.947266 29.501953 L 126.31836 29.501953 L 149.58398 29.501953 A 82.705078 85.33493 0 0 0 106.2832 14.880859 L 100.09766 14.880859 z M 128.15039 33.166016 L 128.15039 59.820312 A 1.8326768 1.8326768 0 0 1 127.23438 61.408203 L 104.20703 74.703125 L 115.13281 74.703125 A 1.8326768 1.8326768 0 0 1 116.42969 75.238281 L 135.38086 94.189453 L 155.20703 74.363281 L 155.20703 33.802734 A 82.705078 85.33493 0 0 0 154.43555 33.166016 L 128.15039 33.166016 z M 158.87109 37.046875 L 158.87109 75.121094 A 1.8326768 1.8326768 0 0 1 158.33594 76.417969 L 140.04102 94.712891 L 170.79688 94.712891 L 179.87695 68.171875 A 82.705078 85.33493 0 0 0 158.87109 37.046875 z M 71.294922 49.173828 L 71.294922 74.703125 L 96.349609 74.703125 L 96.349609 49.173828 L 71.294922 49.173828 z M 181.8457 73.738281 L 173.83984 97.138672 A 1.8326768 1.8326768 0 0 1 172.10547 98.376953 L 139.56836 98.376953 L 147.43945 106.24805 L 185.2832 106.24805 L 185.2832 89.693359 A 82.705078 85.33493 0 0 0 181.8457 73.738281 z "
       style="opacity:1;fill:#efebe8;fill-opacity:1;fill-rule:nonzero;stroke:none;stroke-width:0;stroke-linecap:round;stroke-linejoin:round;stroke-miterlimit:4;stroke-dasharray:none;stroke-dashoffset:0;stroke-opacity:1"
       id="rect4619" />
    <path
       transform="translate(0,852.36216)"
       d="M 60.142578 27.298828 A 82.705078 85.33493 0 0 0 26.048828 69.421875 L 26.048828 82.558594 C 25.996397 78.255388 25.926426 74.104711 25.859375 69.935547 A 82.705078 85.33493 0 0 0 20.498047 100.15625 A 82.705078 85.33493 0 0 0 22.058594 116.65234 L 26.048828 116.65234 L 26.048828 130.88867 A 82.705078 85.33493 0 0 0 103.20312 185.49023 A 82.705078 85.33493 0 0 0 172.94531 146.02344 L 114.47656 87.550781 C 111.27947 84.354161 106.94292 82.558584 102.42188 82.558594 L 60.142578 82.558594 L 60.142578 27.298828 z M 60.142578 116.65234 L 95.359375 116.65234 L 146.96094 168.25195 L 60.142578 168.25195 L 60.142578 116.65234 z "
       style="color:#000000;font-style:normal;font-variant:normal;font-weight:normal;font-stretch:normal;font-size:medium;line-height:normal;font-family:sans-serif;text-indent:0;text-align:start;text-decoration:none;text-decoration-line:none;text-decoration-style:solid;text-decoration-color:#000000;letter-spacing:normal;word-spacing:normal;text-transform:none;writing-mode:lr-tb;direction:ltr;baseline-shift:baseline;text-anchor:start;white-space:normal;clip-rule:nonzero;display:inline;overflow:visible;visibility:visible;opacity:1;isolation:auto;mix-blend-mode:normal;color-interpolation:sRGB;color-interpolation-filters:linearRGB;solid-color:#000000;solid-opacity:1;fill:#575757;fill-opacity:1;fill-rule:evenodd;stroke:none;stroke-width:34.0929;stroke-linecap:round;stroke-linejoin:round;stroke-miterlimit:4;stroke-dasharray:none;stroke-dashoffset:0;stroke-opacity:1;color-rendering:auto;image-rendering:auto;shape-rendering:auto;text-rendering:auto;enable-background:accumulate"
       id="path4623" />
    <path
       transform="translate(0,852.36216)"
       d="M 55.880859 30.169922 A 82.705078 85.33493 0 0 0 30.310547 59.839844 L 30.310547 86.822266 L 27.628906 86.822266 L 27.628906 65.492188 A 82.705078 85.33493 0 0 0 20.498047 100.15625 A 82.705078 85.33493 0 0 0 21.353516 112.39062 L 30.310547 112.39062 L 30.310547 140.46875 A 82.705078 85.33493 0 0 0 55.880859 170.13867 L 55.880859 112.39062 L 97.126953 112.39062 L 153.01172 168.27734 A 82.705078 85.33493 0 0 0 170.53711 149.70508 L 111.46289 90.564453 C 109.0649 88.167033 105.81274 86.820083 102.42188 86.820312 L 55.880859 86.820312 L 55.880859 30.169922 z M 59.365234 172.51562 A 82.705078 85.33493 0 0 0 98.152344 185.33008 L 108.08203 185.3418 A 82.705078 85.33493 0 0 0 147.04102 172.51562 L 59.365234 172.51562 z "
       style="color:#000000;font-style:normal;font-variant:normal;font-weight:normal;font-stretch:normal;font-size:medium;line-height:normal;font-family:sans-serif;text-indent:0;text-align:start;text-decoration:none;text-decoration-line:none;text-decoration-style:solid;text-decoration-color:#000000;letter-spacing:normal;word-spacing:normal;text-transform:none;writing-mode:lr-tb;direction:ltr;baseline-shift:baseline;text-anchor:start;white-space:normal;clip-rule:nonzero;display:inline;overflow:visible;visibility:visible;opacity:1;isolation:auto;mix-blend-mode:normal;color-interpolation:sRGB;color-interpolation-filters:linearRGB;solid-color:#000000;solid-opacity:1;fill:#8d8d8d;fill-opacity:1;fill-rule:evenodd;stroke:none;stroke-width:25.5697;stroke-linecap:round;stroke-linejoin:round;stroke-miterlimit:4;stroke-dasharray:none;stroke-dashoffset:0;stroke-opacity:1;color-rendering:auto;image-rendering:auto;shape-rendering:auto;text-rendering:auto;enable-background:accumulate"
       id="path4621" />
    <path
       transform="translate(0,852.36216)"
       d="M 42.947266 54.498047 L 41.441406 55.28125 L 40.964844 56.623047 L 40.964844 60.884766 L 41.640625 62.443359 L 43.242188 63.009766 L 44.75 62.228516 L 45.226562 60.884766 L 45.226562 56.623047 L 44.548828 55.064453 L 42.947266 54.498047 z M 42.947266 84.328125 L 41.441406 85.113281 L 40.964844 86.455078 L 40.964844 90.716797 L 41.640625 92.273438 L 43.242188 92.841797 L 44.75 92.058594 L 45.226562 90.716797 L 45.226562 86.455078 L 44.548828 84.896484 L 42.947266 84.328125 z M 45.576172 97.474609 L 44.019531 98.152344 L 43.449219 99.753906 L 44.234375 101.25977 L 45.576172 101.73633 L 49.837891 101.73633 L 51.394531 101.05859 L 51.962891 99.458984 L 51.179688 97.951172 L 49.837891 97.474609 L 45.576172 97.474609 z M 75.40625 97.474609 L 73.849609 98.152344 L 73.28125 99.753906 L 74.064453 101.25977 L 75.40625 101.73633 L 79.667969 101.73633 L 81.226562 101.05859 L 81.794922 99.458984 L 81.011719 97.951172 L 79.667969 97.474609 L 75.40625 97.474609 z M 20.533203 97.662109 A 82.705078 85.33493 0 0 0 20.498047 100.15625 A 82.705078 85.33493 0 0 0 20.509766 101.51758 L 21.564453 101.05859 L 22.130859 99.458984 L 21.349609 97.951172 L 20.533203 97.662109 z M 104.33984 99.46875 L 102.80664 100.19922 L 102.29492 101.82031 L 102.9082 103.10547 L 105.91992 106.11719 L 107.5 106.74023 L 109.0332 106.00977 L 109.54688 104.39062 L 108.93359 103.10547 L 105.91992 100.0918 L 104.33984 99.46875 z M 42.947266 114.16016 L 41.441406 114.94336 L 40.964844 116.28516 L 40.964844 120.54688 L 41.640625 122.10547 L 43.242188 122.67383 L 44.75 121.89062 L 45.226562 120.54688 L 45.226562 116.28516 L 44.548828 114.72852 L 42.947266 114.16016 z M 125.43359 120.5625 L 123.89844 121.29297 L 123.38867 122.91211 L 124 124.19727 L 127.01367 127.21289 L 128.59375 127.83594 L 130.12891 127.10547 L 130.64062 125.48438 L 130.02734 124.19727 L 127.01367 121.18555 L 125.43359 120.5625 z M 146.52734 141.65625 L 144.99414 142.38672 L 144.48242 144.00586 L 145.09375 145.29297 L 148.10742 148.30664 L 149.68945 148.92969 L 151.22266 148.19727 L 151.73438 146.57812 L 151.12305 145.29297 L 148.10742 142.2793 L 146.52734 141.65625 z M 42.947266 143.99219 L 41.441406 144.77539 L 40.964844 146.11719 L 40.964844 150.37891 L 41.640625 151.9375 L 43.242188 152.50391 L 44.75 151.72266 L 45.226562 150.37891 L 45.226562 146.11719 L 44.548828 144.55859 L 42.947266 143.99219 z "
       style="color:#000000;font-style:normal;font-variant:normal;font-weight:normal;font-stretch:normal;font-size:medium;line-height:normal;font-family:sans-serif;text-indent:0;text-align:start;text-decoration:none;text-decoration-line:none;text-decoration-style:solid;text-decoration-color:#000000;letter-spacing:normal;word-spacing:normal;text-transform:none;writing-mode:lr-tb;direction:ltr;baseline-shift:baseline;text-anchor:start;white-space:normal;clip-rule:nonzero;display:inline;overflow:visible;visibility:visible;opacity:1;isolation:auto;mix-blend-mode:normal;color-interpolation:sRGB;color-interpolation-filters:linearRGB;solid-color:#000000;solid-opacity:1;fill:#ffffff;fill-opacity:1;fill-rule:evenodd;stroke:none;stroke-width:4.26161;stroke-linecap:round;stroke-linejoin:round;stroke-miterlimit:4;stroke-dasharray:4.26161, 25.5697;stroke-dashoffset:0;stroke-opacity:1;color-rendering:auto;image-rendering:auto;shape-rendering:auto;text-rendering:auto;enable-background:accumulate"
       id="path4625" />
    <rect
       style="opacity:1;fill:#bcaba3;fill-opacity:1;fill-rule:nonzero;stroke:none;stroke-width:8.52322;stroke-linecap:round;stroke-linejoin:round;stroke-miterlimit:4;stroke-dasharray:none;stroke-dashoffset:0;stroke-opacity:1"
       id="rect4627"
       width="28.586166"
       height="20.717096"
       x="64.613686"
       y="972.03253"
       ry="1.6006148" />
    <rect
       transform="rotate(-44.34292)"
       style="opacity:1;fill:#bcaba3;fill-opacity:1;fill-rule:nonzero;stroke:none;stroke-width:8.52322;stroke-linecap:round;stroke-linejoin:round;stroke-miterlimit:4;stroke-dasharray:none;stroke-dashoffset:0;stroke-opacity:1"
       id="rect4631"
       width="14.460783"
       height="20.717096"
       x="-570.82208"
       y="807.87012"
       ry="1.6006148" />
    <path
       transform="translate(0,852.36216)"
       d="M 98.162109 14.980469 A 82.705078 85.33493 0 0 0 90.470703 15.837891 L 90.650391 18.621094 C 91.121237 20.975324 89.237946 25.212744 96.771484 25.683594 C 103.23707 26.087697 125.28981 24.069756 141.24023 24.380859 A 82.705078 85.33493 0 0 0 108.45898 14.992188 C 105.39001 14.988269 99.652034 14.982376 98.162109 14.980469 z M 165.9375 44.548828 C 164.0566 50.238314 162.20278 56.512396 163.16016 61.9375 C 164.5727 69.94189 169.2822 73.238041 172.57812 67.587891 C 173.5676 65.891647 175.10777 63.582051 176.76172 61.150391 A 82.705078 85.33493 0 0 0 165.9375 44.548828 z "
       style="fill:#00bcd5;fill-opacity:1;fill-rule:evenodd;stroke:#000000;stroke-width:0;stroke-linecap:butt;stroke-linejoin:miter;stroke-miterlimit:4;stroke-dasharray:none;stroke-opacity:1"
       id="path4640" />
    <path
       inkscape:connector-curvature="0"
       id="path4642"
       d="m 65.4504,997.0433 v 20.3092 h 65.58889 L 109.23181,995.54509 H 65.117461 Z"
       style="fill:#6cc642;fill-opacity:1;fill-rule:evenodd;stroke:#000000;stroke-width:0;stroke-linecap:butt;stroke-linejoin:miter;stroke-miterlimit:4;stroke-dasharray:none;stroke-opacity:1" />
    <g
       id="g4655"
       transform="matrix(1.0742868,0,0,1.0742868,471.78874,1960.4266)"
       style="fill:#ffffff;fill-opacity:1;stroke:none;stroke-opacity:0.902778">
      <g
         style="fill:#ffffff;fill-opacity:1;stroke:none;stroke-opacity:0.902778"
         transform="matrix(0.176319,0,0,0.176319,-364.25503,-1073.2721)"
         inkscape:label="Layer 1"
         id="g4657">
        <path
           style="fill:#ffffff;fill-opacity:1;fill-rule:evenodd;stroke:none;stroke-width:38.0053;stroke-linecap:butt;stroke-linejoin:miter;stroke-miterlimit:4;stroke-dasharray:none;stroke-opacity:0.902778"
           d="m 373.50524,1019.6271 c 0,0 -348.772053,-442.29242 -348.772053,-609.0357 0,-242.37759 130.907583,-390.908817 356.946413,-387.816461 226.03881,3.092356 337.87294,142.240161 337.87294,387.816461 0,165.24894 -346.0473,609.0357 -346.0473,609.0357 z"
           id="path4659"
           inkscape:connector-curvature="0"
           sodipodi:nodetypes="cczcc" />
      </g>
      <g
         transform="translate(-5.078125,-10.546875)"
         id="g4661"
         style="fill:#ffffff;fill-opacity:1;stroke:none;stroke-opacity:0.902778">
        <path
           style="fill:#ffffff;fill-opacity:1;fill-rule:evenodd;stroke:none;stroke-width:1px;stroke-linecap:butt;stroke-linejoin:miter;stroke-opacity:0.902778"
           d="m -308.59375,-1035.5284 h 30.07812 l -11.38841,67.54416 -6.7009,-0.0339 z"
           id="path4663"
           inkscape:connector-curvature="0"
           sodipodi:nodetypes="ccccc" />
        <circle
           style="opacity:1;fill:#ffffff;fill-opacity:1;fill-rule:nonzero;stroke:none;stroke-width:0;stroke-linecap:round;stroke-linejoin:round;stroke-miterlimit:4;stroke-dasharray:none;stroke-dashoffset:0;stroke-opacity:0.902778"
           id="circle4665"
           cx="-291.79688"
           cy="-951.15344"
           r="8.984375" />
      </g>
    </g>
    <g
       style="stroke:none;stroke-opacity:0.902778"
       transform="matrix(0.94896866,0,0,0.94896866,433.84638,1834.138)"
       id="g4593">
      <g
         id="layer1-8"
         inkscape:label="Layer 1"
         transform="matrix(0.176319,0,0,0.176319,-364.25503,-1073.2721)"
         style="stroke:none;stroke-opacity:0.902778">
        <path
           sodipodi:nodetypes="cczcc"
           inkscape:connector-curvature="0"
           id="path4143"
           d="m 373.50524,1019.6271 c 0,0 -348.772053,-442.29242 -348.772053,-609.0357 0,-242.37759 130.907583,-390.908817 356.946413,-387.816461 226.03881,3.092356 337.87294,142.240161 337.87294,387.816461 0,165.24894 -346.0473,609.0357 -346.0473,609.0357 z"
           style="fill:#ff3535;fill-opacity:1;fill-rule:evenodd;stroke:none;stroke-width:38.0053;stroke-linecap:butt;stroke-linejoin:miter;stroke-miterlimit:4;stroke-dasharray:none;stroke-opacity:0.902778" />
      </g>
      <g
         style="stroke:none;stroke-opacity:0.902778"
         id="g4589"
         transform="translate(-5.078125,-10.546875)">
        <path
           sodipodi:nodetypes="ccccc"
           inkscape:connector-curvature="0"
           id="path4585"
           d="m -308.59375,-1035.5284 h 30.07812 l -11.38841,67.54416 -6.7009,-0.0339 z"
           style="fill:#ffffff;fill-opacity:1;fill-rule:evenodd;stroke:none;stroke-width:1px;stroke-linecap:butt;stroke-linejoin:miter;stroke-opacity:0.902778" />
        <circle
           r="8.984375"
           cy="-951.15344"
           cx="-291.79688"
           id="path4587"
           style="opacity:1;fill:#ffffff;fill-opacity:1;fill-rule:nonzero;stroke:none;stroke-width:0;stroke-linecap:round;stroke-linejoin:round;stroke-miterlimit:4;stroke-dasharray:none;stroke-dashoffset:0;stroke-opacity:0.902778" />
      </g>
    </g>
  </g>
</svg>
