<?xml version="1.0" encoding="UTF-8" standalone="no"?>
<!-- Created with Inkscape (http://www.inkscape.org/) -->

<svg
   xmlns:dc="http://purl.org/dc/elements/1.1/"
   xmlns:cc="http://creativecommons.org/ns#"
   xmlns:rdf="http://www.w3.org/1999/02/22-rdf-syntax-ns#"
   xmlns:svg="http://www.w3.org/2000/svg"
   xmlns="http://www.w3.org/2000/svg"
   xmlns:sodipodi="http://sodipodi.sourceforge.net/DTD/sodipodi-0.dtd"
   xmlns:inkscape="http://www.inkscape.org/namespaces/inkscape"
   width="32"
   height="32"
   viewBox="0 0 32 32.000001"
   id="svg2"
   version="1.1"
   inkscape:version="0.91 r13725"
   sodipodi:docname="notification.svg">
  <defs
     id="defs4" />
  <sodipodi:namedview
     id="base"
     pagecolor="#ffffff"
     bordercolor="#666666"
     borderopacity="1.0"
     inkscape:pageopacity="0.0"
     inkscape:pageshadow="2"
     inkscape:zoom="11.2"
     inkscape:cx="7.7037964"
     inkscape:cy="14.085329"
     inkscape:document-units="px"
     inkscape:current-layer="layer1"
     showgrid="false"
     inkscape:window-width="1280"
     inkscape:window-height="719"
     inkscape:window-x="0"
     inkscape:window-y="1"
     inkscape:window-maximized="1"
     units="px" />
  <metadata
     id="metadata7">
    <rdf:RDF>
      <cc:Work
         rdf:about="">
        <dc:format>image/svg+xml</dc:format>
        <dc:type
           rdf:resource="http://purl.org/dc/dcmitype/StillImage" />
        <dc:title />
      </cc:Work>
    </rdf:RDF>
  </metadata>
  <g
     inkscape:label="Layer 1"
     inkscape:groupmode="layer"
     id="layer1"
     transform="translate(0,-1020.3622)">
    <path
       style="fill:#ffffff;fill-opacity:1;fill-rule:evenodd;stroke:#ffffff;stroke-width:0;stroke-linecap:butt;stroke-linejoin:miter;stroke-miterlimit:4;stroke-dasharray:none;stroke-opacity:1"
       d="m 16.100473,1020.6417 c -7.0892044,-0.022 -11.1897573,4.6894 -11.1897573,12.3415 0,5.3056 11.0977173,19.379 11.0977173,19.379 0,0 11.01096,-14.121 11.01096,-19.379 0,-7.8141 -3.558484,-12.2417 -10.750875,-12.3401 -0.05619,-8e-4 -0.112225,0 -0.168045,0 z m -3.346679,4.3085 6.422895,0 -1.971491,13.6434 -2.244874,0 -2.20653,-13.642 z m 3.21126,14.7031 a 2.3523537,2.3523537 0 0 1 2.352328,2.3524 2.3523537,2.3523537 0 0 1 -2.352328,2.3523 2.3523537,2.3523537 0 0 1 -2.352326,-2.3523 2.3523537,2.3523537 0 0 1 2.352326,-2.3524 z"
       id="path4143"
       inkscape:connector-curvature="0" />
  </g>
</svg>
