<?xml version="1.0" encoding="UTF-8" standalone="no"?>
<svg
   xmlns:dc="http://purl.org/dc/elements/1.1/"
   xmlns:cc="http://creativecommons.org/ns#"
   xmlns:rdf="http://www.w3.org/1999/02/22-rdf-syntax-ns#"
   xmlns:svg="http://www.w3.org/2000/svg"
   xmlns="http://www.w3.org/2000/svg"
   xmlns:sodipodi="http://sodipodi.sourceforge.net/DTD/sodipodi-0.dtd"
   xmlns:inkscape="http://www.inkscape.org/namespaces/inkscape"
   sodipodi:docname="notification_icon.svg"
   inkscape:version="1.0 (4035a4fb49, 2020-05-01)"
   version="1.1"
   id="svg2"
   viewBox="0 0 32 32.000001"
   height="32"
   width="32">
  <defs
     id="defs4" />
  <sodipodi:namedview
     inkscape:document-rotation="0"
     units="px"
     inkscape:window-maximized="1"
     inkscape:window-y="284"
     inkscape:window-x="1272"
     inkscape:window-height="1027"
     inkscape:window-width="1920"
     showgrid="false"
     inkscape:current-layer="layer1"
     inkscape:document-units="px"
     inkscape:cy="17.545288"
     inkscape:cx="0.35805325"
     inkscape:zoom="11.2"
     inkscape:pageshadow="2"
     inkscape:pageopacity="0.0"
     borderopacity="1.0"
     bordercolor="#666666"
     pagecolor="#ffffff"
     id="base" />
  <metadata
     id="metadata7">
    <rdf:RDF>
      <cc:Work
         rdf:about="">
        <dc:format>image/svg+xml</dc:format>
        <dc:type
           rdf:resource="http://purl.org/dc/dcmitype/StillImage" />
        <dc:title></dc:title>
      </cc:Work>
    </rdf:RDF>
  </metadata>
  <g
     transform="translate(0,-1020.3622)"
     id="layer1"
     inkscape:groupmode="layer"
     inkscape:label="Layer 1">
    <path
       transform="translate(0,1020.3622)"
       d="M 12.626953 6.5976562 C 12.626953 6.5976562 10.263082 6.8581406 8.1308594 7.9941406 C 7.4271558 8.3690579 6.8057265 8.8371478 6.2753906 9.296875 C 3.4589898 11.657384 1.6640625 15.195422 1.6640625 19.158203 C 1.6640625 26.268203 7.4271379 32.033203 14.537109 32.033203 C 21.647081 32.033203 27.410156 26.268203 27.410156 19.158203 C 27.410156 19.038215 27.39584 18.921935 27.392578 18.802734 C 24.7301 22.912431 21.949219 26.496094 21.949219 26.496094 C 21.949219 26.496094 21.422899 25.797885 21.132812 25.419922 C 20.829518 25.708717 20.500543 25.983397 20.119141 26.210938 C 17.833372 27.574337 18.554871 29.138641 15.306641 30.181641 C 14.526047 30.432241 13.933032 30.288322 14.537109 29.419922 C 15.708782 27.735722 15.607091 25.857878 14.537109 25.017578 C 13.467187 24.177378 12.267314 23.995072 12.556641 22.701172 C 12.845968 21.407272 13.965228 20.954116 14.044922 19.791016 C 14.121792 18.669116 12.343666 14.851422 10.119141 15.607422 C 8.8485399 16.039422 6.3895325 14.423241 6.5195312 12.306641 C 6.5609794 11.630718 6.7376439 11.120468 6.9570312 10.693359 C 6.9891618 10.654647 8.3592693 9.005283 9.3027344 8.3105469 C 10.257286 7.6076469 12.626953 6.5976562 12.626953 6.5976562 z M 13.894531 14.589844 C 13.506679 15.439556 13.426919 16.376246 14.050781 17.535156 C 14.794743 18.917269 15.035392 18.311434 16.132812 18.296875 C 15.340446 17.065839 14.566125 15.815061 13.894531 14.589844 z "
       style="stroke-width:0.0601012;fill:#ffffff"
       id="path2" />
    <path
       style="fill:#ffffff;fill-opacity:1;fill-rule:evenodd;stroke:#ffffff;stroke-width:0;stroke-linecap:butt;stroke-linejoin:miter;stroke-miterlimit:4;stroke-dasharray:none;stroke-opacity:1"
       d="m 22.216887,1020.471 c -5.199644,-0.016 -8.207234,3.4395 -8.207234,9.052 0,3.8914 8.139727,14.2137 8.139727,14.2137 0,0 8.076094,-10.3572 8.076094,-14.2137 0,-5.7313 -2.610004,-8.9788 -7.885332,-9.051 -0.04121,-6e-4 -0.08231,0 -0.123255,0 z m -2.454653,3.1601 h 4.710933 l -1.446008,10.0069 h -1.646525 l -1.6184,-10.0059 z m 2.355329,10.7841 a 1.7253563,1.7253563 0 0 1 1.725338,1.7254 1.7253563,1.7253563 0 0 1 -1.725338,1.7253 1.7253563,1.7253563 0 0 1 -1.725336,-1.7253 1.7253563,1.7253563 0 0 1 1.725336,-1.7254 z"
       id="path839"
       inkscape:connector-curvature="0" />
  </g>
</svg>
