<?xml version="1.0" encoding="utf-8"?>
<!-- Generator: Adobe Illustrator 23.0.0, SVG Export Plug-In . SVG Version: 6.00 Build 0)  -->
<svg version="1.1"
	 id="svg2" inkscape:version="0.91 r13725" sodipodi:docname="nperson.svg" xmlns:cc="http://creativecommons.org/ns#" xmlns:dc="http://purl.org/dc/elements/1.1/" xmlns:inkscape="http://www.inkscape.org/namespaces/inkscape" xmlns:rdf="http://www.w3.org/1999/02/22-rdf-syntax-ns#" xmlns:sodipodi="http://sodipodi.sourceforge.net/DTD/sodipodi-0.dtd" xmlns:svg="http://www.w3.org/2000/svg"
	 xmlns="http://www.w3.org/2000/svg" xmlns:xlink="http://www.w3.org/1999/xlink" x="0px" y="0px" viewBox="0 0 32 32"
	 style="enable-background:new 0 0 32 32;" xml:space="preserve">
<style type="text/css">
	.st0{fill:#5E5D5D;}
</style>
<sodipodi:namedview  bordercolor="#666666" borderopacity="1.0" id="base" inkscape:current-layer="layer1" inkscape:cx="18.423006" inkscape:cy="21.885114" inkscape:document-units="px" inkscape:pageopacity="0.0" inkscape:pageshadow="2" inkscape:window-height="719" inkscape:window-maximized="1" inkscape:window-width="1280" inkscape:window-x="0" inkscape:window-y="1" inkscape:zoom="5.6" pagecolor="#ffffff" showgrid="false" units="px">
	</sodipodi:namedview>
<g id="layer1" transform="translate(0,-1020.3622)" inkscape:groupmode="layer" inkscape:label="Layer 1">
	<g id="g4155" transform="matrix(0.02924282,0,0,0.02924282,6.9138381,1014.8205)">
		<circle id="path4149" class="st0" cx="317.1" cy="338.1" r="148.6"/>
		<path id="rect4151" class="st0" d="M247.6,558.1h142c43.6,0,79,35.4,79,79v567.7c0,43.6-35.4,79-79,79h-142c-43.6,0-79-35.4-79-79
			V637.1C168.6,593.4,203.9,558.1,247.6,558.1z"/>
		<path id="rect4153" class="st0" d="M116.2,526.6h402c43.6,0,79,35.4,79,79v282c0,43.6-35.4,79-79,79h-402c-43.6,0-79-35.4-79-79
			v-282C37.1,562,72.5,526.6,116.2,526.6z"/>
	</g>
</g>
</svg>
