<?xml version="1.0" encoding="UTF-8" standalone="no"?>
<!-- Created with Inkscape (http://www.inkscape.org/) -->

<svg
   xmlns:dc="http://purl.org/dc/elements/1.1/"
   xmlns:cc="http://creativecommons.org/ns#"
   xmlns:rdf="http://www.w3.org/1999/02/22-rdf-syntax-ns#"
   xmlns:svg="http://www.w3.org/2000/svg"
   xmlns="http://www.w3.org/2000/svg"
   xmlns:sodipodi="http://sodipodi.sourceforge.net/DTD/sodipodi-0.dtd"
   xmlns:inkscape="http://www.inkscape.org/namespaces/inkscape"
   width="200"
   height="200"
   viewBox="0 0 200 200"
   id="svg6279"
   version="1.1"
   inkscape:version="0.91 r13725"
   sodipodi:docname="report_icon2.svg">
  <defs
     id="defs6281">
    <inkscape:path-effect
       effect="spiro"
       id="path-effect4237"
       is_visible="true" />
    <inkscape:path-effect
       effect="spiro"
       id="path-effect4218"
       is_visible="true" />
    <inkscape:path-effect
       effect="spiro"
       id="path-effect4213"
       is_visible="true" />
    <inkscape:path-effect
       effect="spiro"
       id="path-effect4209"
       is_visible="true" />
    <inkscape:path-effect
       effect="spiro"
       id="path-effect4201"
       is_visible="true" />
    <inkscape:path-effect
       is_visible="true"
       id="path-effect5386"
       effect="spiro" />
    <inkscape:path-effect
       effect="spiro"
       id="path-effect4770"
       is_visible="true" />
    <inkscape:path-effect
       effect="spiro"
       id="path-effect4766"
       is_visible="true" />
    <inkscape:path-effect
       effect="spiro"
       id="path-effect4751"
       is_visible="true" />
    <inkscape:path-effect
       effect="spiro"
       id="path-effect5980"
       is_visible="true" />
    <inkscape:path-effect
       effect="spiro"
       id="path-effect5976"
       is_visible="true" />
    <inkscape:path-effect
       effect="spiro"
       id="path-effect5972"
       is_visible="true" />
    <inkscape:path-effect
       effect="spiro"
       id="path-effect5968"
       is_visible="true" />
    <inkscape:path-effect
       effect="spiro"
       id="path-effect5964"
       is_visible="true" />
    <inkscape:path-effect
       effect="spiro"
       id="path-effect5960"
       is_visible="true" />
  </defs>
  <sodipodi:namedview
     id="base"
     pagecolor="#ffffff"
     bordercolor="#666666"
     borderopacity="1.0"
     inkscape:pageopacity="0.0"
     inkscape:pageshadow="2"
     inkscape:zoom="0.49497475"
     inkscape:cx="-212.66323"
     inkscape:cy="187.87283"
     inkscape:document-units="px"
     inkscape:current-layer="layer1"
     showgrid="false"
     inkscape:window-width="1280"
     inkscape:window-height="719"
     inkscape:window-x="-3"
     inkscape:window-y="1"
     inkscape:window-maximized="0"
     units="px" />
  <metadata
     id="metadata6284">
    <rdf:RDF>
      <cc:Work
         rdf:about="">
        <dc:format>image/svg+xml</dc:format>
        <dc:type
           rdf:resource="http://purl.org/dc/dcmitype/StillImage" />
        <dc:title></dc:title>
      </cc:Work>
    </rdf:RDF>
  </metadata>
  <g
     inkscape:label="Layer 1"
     inkscape:groupmode="layer"
     id="layer1"
     transform="translate(0,-852.36219)">
    <text
       xml:space="preserve"
       style="font-style:normal;font-weight:normal;font-size:292.89489746px;line-height:125%;font-family:sans-serif;letter-spacing:0px;word-spacing:0px;fill:#000000;fill-opacity:1;stroke:none;stroke-width:1px;stroke-linecap:butt;stroke-linejoin:miter;stroke-opacity:1"
       x="564.38263"
       y="1219.0547"
       id="text4203"
       sodipodi:linespacing="125%"
       transform="scale(1.6065756,0.62244192)"><tspan
         sodipodi:role="line"
         id="tspan4205"
         x="564.38263"
         y="1219.0547"
         style="fill:#ffffff">!</tspan></text>
    <path
       style="fill:none;fill-rule:evenodd;stroke:#ffffff;stroke-width:5.04403877;stroke-linecap:butt;stroke-linejoin:miter;stroke-miterlimit:4;stroke-dasharray:none;stroke-opacity:1"
       d="m 270.79512,977.38568 c 12.01198,17.16928 32.45187,28.12802 53.3999,28.63002 22.02011,0.5277 43.99002,-10.58205 56.61676,-28.63002 -12.69217,-17.08867 -33.72186,-27.66501 -55.00833,-27.66501 -21.28647,0 -42.31616,10.57634 -55.00833,27.66501 z"
       id="path5384"
       inkscape:original-d="m 270.79512,977.38568 c 18.33611,0 21.88376,28.39322 53.3999,28.63002 31.51614,0.2368 56.61676,-28.63002 56.61676,-28.63002 0,0 -36.67222,-27.66501 -55.00833,-27.66501 -18.33611,0 -55.00833,27.66501 -55.00833,27.66501 z"
       inkscape:connector-curvature="0"
       sodipodi:nodetypes="szszs"
       inkscape:path-effect="#path-effect5386" />
    <path
       style="fill:#000000;fill-opacity:1;fill-rule:evenodd;stroke:none;stroke-width:0;stroke-linecap:butt;stroke-linejoin:miter;stroke-miterlimit:4;stroke-dasharray:none;stroke-opacity:1"
       d="m 133.97886,852.41935 c -0.66767,-0.004 -1.33452,0.003 -2.00196,0.0195 -6.40735,0.15506 -12.78927,1.22161 -18.88281,3.21485 -16.249432,5.31531 -30.255391,17.16653 -38.197268,32.30664 -6.997832,13.34042 -9.274812,29.0973 -6.339844,43.87304 2.934968,14.77573 11.059852,28.46793 22.625,38.1211 l -6.876953,13.84766 19.130865,-6.6875 c 15.75556,8.21671 34.88905,9.69227 51.71875,3.99023 16.8297,-5.70203 31.12424,-18.50404 38.64062,-34.60547 7.23182,-15.49184 8.12014,-33.83124 2.42969,-49.95313 -5.69044,-16.12189 -17.88962,-29.83799 -33.23242,-37.38086 -8.98992,-4.41964 -18.99864,-6.69229 -29.01367,-6.74609 z m 0.85742,16.35938 44.94726,80.52539 -91.791015,0 46.843755,-80.52539 z m -10.39844,27.04101 5.30274,30.12305 9.85937,0 5.04102,-30.12305 -20.20313,0 z m 4.29297,34.85156 0,11.86914 11.86914,0 0,-11.86914 -11.86914,0 z"
       id="path4211"
       inkscape:connector-curvature="0" />
    <path
       style="opacity:1;fill:#000000;fill-opacity:1;stroke:none;stroke-width:0;stroke-linecap:round;stroke-linejoin:round;stroke-miterlimit:4;stroke-dasharray:none;stroke-opacity:1"
       d="m 0,944.19227 0,108.16993 71.649787,0 0,-108.16993 -71.649787,0 z m 12.451004,9.67969 45.470862,0 0,6.06054 -45.470862,0 0,-6.06054 z m 0,15.15234 45.470862,0 0,6.06055 -45.470862,0 0,-6.06055 z m 0,17.17383 45.470862,0 0,6.06054 -45.470862,0 0,-6.06054 z m 0,20.20317 29.230969,0 0,6.0605 -29.230969,0 0,-6.0605 z m 0,13.6367 45.470862,0 0,6.0605 -45.470862,0 0,-6.0605 z"
       id="rect4239"
       inkscape:connector-curvature="0" />
  </g>
</svg>
