<?xml version="1.0" encoding="utf-8"?>
<!-- Generator: Adobe Illustrator 23.0.0, SVG Export Plug-In . SVG Version: 6.00 Build 0)  -->
<svg version="1.1"
	 id="svg6279" inkscape:version="0.91 r13725" xmlns:cc="http://creativecommons.org/ns#" xmlns:dc="http://purl.org/dc/elements/1.1/" xmlns:inkscape="http://www.inkscape.org/namespaces/inkscape" xmlns:rdf="http://www.w3.org/1999/02/22-rdf-syntax-ns#" xmlns:sodipodi="http://sodipodi.sourceforge.net/DTD/sodipodi-0.dtd" xmlns:svg="http://www.w3.org/2000/svg"
	 xmlns="http://www.w3.org/2000/svg" xmlns:xlink="http://www.w3.org/1999/xlink" x="0px" y="0px" viewBox="0 0 200 200"
	 style="enable-background:new 0 0 200 200;" xml:space="preserve">
<style type="text/css">
	.st0{fill-rule:evenodd;clip-rule:evenodd;fill:#5E5D5D;}
</style>
<defs>
	
	<inkscape:path-effect  effect="spiro" id="path-effect4237" is_visible="true"></inkscape:path-effect>
	<inkscape:path-effect  effect="spiro" id="path-effect4218" is_visible="true"></inkscape:path-effect>
	<inkscape:path-effect  effect="spiro" id="path-effect4213" is_visible="true"></inkscape:path-effect>
	<inkscape:path-effect  effect="spiro" id="path-effect4209" is_visible="true"></inkscape:path-effect>
	<inkscape:path-effect  effect="spiro" id="path-effect4201" is_visible="true"></inkscape:path-effect>
	<inkscape:path-effect  effect="spiro" id="path-effect5386" is_visible="true"></inkscape:path-effect>
	<inkscape:path-effect  effect="spiro" id="path-effect4770" is_visible="true"></inkscape:path-effect>
	<inkscape:path-effect  effect="spiro" id="path-effect4766" is_visible="true"></inkscape:path-effect>
	<inkscape:path-effect  effect="spiro" id="path-effect4751" is_visible="true"></inkscape:path-effect>
	<inkscape:path-effect  effect="spiro" id="path-effect5980" is_visible="true"></inkscape:path-effect>
	<inkscape:path-effect  effect="spiro" id="path-effect5976" is_visible="true"></inkscape:path-effect>
	<inkscape:path-effect  effect="spiro" id="path-effect5972" is_visible="true"></inkscape:path-effect>
	<inkscape:path-effect  effect="spiro" id="path-effect5968" is_visible="true"></inkscape:path-effect>
	<inkscape:path-effect  effect="spiro" id="path-effect5964" is_visible="true"></inkscape:path-effect>
	<inkscape:path-effect  effect="spiro" id="path-effect5960" is_visible="true"></inkscape:path-effect>
</defs>
<sodipodi:namedview  bordercolor="#666666" borderopacity="1.0" id="base" inkscape:current-layer="layer1" inkscape:cx="-12.646749" inkscape:cy="143.04516" inkscape:document-units="px" inkscape:pageopacity="0.0" inkscape:pageshadow="2" inkscape:window-height="719" inkscape:window-maximized="0" inkscape:window-width="1280" inkscape:window-x="-3" inkscape:window-y="1" inkscape:zoom="0.49497475" pagecolor="#ffffff" showgrid="false" units="px">
	</sodipodi:namedview>
<g id="layer1" transform="translate(0,-852.36219)" inkscape:groupmode="layer" inkscape:label="Layer 1">
	<path id="path4211" inkscape:connector-curvature="0" class="st0" d="M134,852.4c-0.7,0-1.3,0-2,0c-6.4,0.2-12.8,1.2-18.9,3.2
		C96.8,861,82.8,872.8,74.9,888c-7,13.3-9.3,29.1-6.3,43.9s11.1,28.5,22.6,38.1l-6.9,13.8l19.1-6.7c15.8,8.2,34.9,9.7,51.7,4
		s31.1-18.5,38.6-34.6c7.2-15.5,8.1-33.8,2.4-50c-5.7-16.1-17.9-29.8-33.2-37.4C154,854.7,144,852.5,134,852.4L134,852.4z
		 M134.8,868.8l44.9,80.5H88L134.8,868.8z M124.4,895.8l5.3,30.1h9.9l5-30.1C144.6,895.8,124.4,895.8,124.4,895.8z M128.7,930.7
		v11.9h11.9v-11.9H128.7z"/>
	
		<path id="path4235" inkscape:connector-curvature="0" inkscape:original-d="m 37.868242,966.66229 c 0,0 11.324385,19.35766 19.109901,27.07235 7.785515,7.71486 27.603188,19.21606 27.603188,19.21606 l 13.164603,-11.4658 c 0,0 4.352806,-3.04353 6.582306,-2.97263 2.22948,0.071 6.79463,3.39723 6.79463,3.39723 l 16.98657,16.7742 c 0,0 4.0697,5.8746 4.35281,8.4933 0.28312,2.6187 -2.65415,7.2193 -2.65415,7.2193 l -15.28792,14.8632 c 0,0 -5.73298,2.6896 -8.91796,2.9727 -3.18499,0.2831 -10.19194,-1.2739 -10.19194,-1.2739 0,0 -42.537227,-19.6054 -58.285201,-35.3534 C 21.377105,999.85697 0.92243203,956.47037 0.92243203,956.47037 c 0,0 -0.4600533,-11.96137 0.74316237,-16.24345 1.2032157,-4.28199 6.476133,-9.44874 6.476133,-9.44874 l 9.1302866,-9.13034 c 0,0 4.742088,-2.72493 7.219297,-2.65413 2.477209,0.0707 7.643961,3.07881 7.643961,3.07881 l 15.28792,15.07559 c 0,0 4.777475,4.70667 4.883642,8.06858 0.106166,3.362 -4.246645,12.10296 -4.246645,12.10296 z" inkscape:path-effect="#path-effect4237" sodipodi:nodetypes="czcczcczcczczczcczcczcc" class="st0" d="
		M37.9,966.7c4.7,10,11.2,19.2,19.1,27.1c8,8,17.4,14.5,27.6,19.2l13.2-11.5c1.6-1.9,4.1-3,6.6-3c2.6,0,5.2,1.3,6.8,3.4l17,16.8
		c2.6,2,4.3,5.2,4.4,8.5c0,2.6-0.9,5.2-2.7,7.2l-15.3,14.9c-2.7,1.6-5.8,2.6-8.9,3c-3.4,0.4-7-0.1-10.2-1.3
		c-21.8-7-42-19.2-58.3-35.4C20.6,999.2,8,978.7,0.9,956.5c-1.4-5.3-1.2-11.1,0.7-16.2c0.7-1.8,1.6-3.5,2.7-5.1
		c1.1-1.6,2.4-3,3.8-4.3l9.1-9.1c2-1.7,4.6-2.7,7.2-2.7c2.8,0,5.6,1.1,7.6,3.1l15.3,15.1c1.1,1.1,2.3,2.3,3.1,3.6
		c0.9,1.3,1.5,2.9,1.8,4.4c0.4,2.2,0.2,4.5-0.5,6.6s-2,4-3.7,5.5L37.9,966.7z"/>
</g>
</svg>
